STARTFONT 2.1
COMMENT
COMMENT Converted from OpenType font "Vollda-Bold.otf" by "otf2bdf 3.0".
COMMENT
FONT -FreeType-Vollda-Bold-R-Normal--55-400-100-100-P-305-ISO10646-1
SIZE 40 100 100
FONTBOUNDINGBOX 177 78 -10 -17
STARTPROPERTIES 19
FOUNDRY "FreeType"
FAMILY_NAME "Vollda"
WEIGHT_NAME "Bold"
SLANT "R"
SETWIDTH_NAME "Normal"
ADD_STYLE_NAME ""
PIXEL_SIZE 55
POINT_SIZE 400
RESOLUTION_X 100
RESOLUTION_Y 100
SPACING "P"
AVERAGE_WIDTH 305
CHARSET_REGISTRY "ISO10646"
CHARSET_ENCODING "1"
FONT_ASCENT 53
FONT_DESCENT 24
COPYRIGHT "Copyright 2023 Vollda (https://github.com/alexburba/vollda)"
_OTF_FONTFILE "Vollda-Bold.otf"
_OTF_PSNAME "Vollda-Bold"
ENDPROPERTIES
CHARS 1220
STARTCHAR 0000
ENCODING 0
SWIDTH 0 0
DWIDTH 0 0
BBX 0 0 0 0
BITMAP
ENDCHAR
STARTCHAR 000D
ENCODING 13
SWIDTH 198 0
DWIDTH 11 0
BBX 0 0 0 0
BITMAP
ENDCHAR
STARTCHAR 0020
ENCODING 32
SWIDTH 198 0
DWIDTH 11 0
BBX 0 0 0 0
BITMAP
ENDCHAR
STARTCHAR 0021
ENCODING 33
SWIDTH 396 0
DWIDTH 22 0
BBX 9 40 7 0
BITMAP
0100
0F80
FF80
FF80
FF80
FF00
FF00
FF00
7F00
7F00
7F00
7F00
7F00
7F00
7F00
7E00
3E00
3E00
3E00
3E00
3E00
3E00
3E00
3E00
3E00
3E00
3C00
0000
0000
0000
0000
0000
3E00
7F00
FF80
FF80
FF80
FF80
7F00
7E00
ENDCHAR
STARTCHAR 0022
ENCODING 34
SWIDTH 378 0
DWIDTH 21 0
BBX 15 15 3 25
BITMAP
0804
7C3E
FC7E
7C7E
7C7C
7C3C
7C3C
7C3C
783C
783C
783C
783C
383C
383C
383C
ENDCHAR
STARTCHAR 0023
ENCODING 35
SWIDTH 594 0
DWIDTH 33 0
BBX 31 40 1 -1
BITMAP
000800C0
000F00F0
000E00F0
001E00E0
001E01E0
001E01E0
001E01E0
001C01E0
003C01C0
003C03C0
003C03C0
003C03C0
0FFFFFFE
1FFFFFFE
1FFFFFFE
1FFFFFFE
00780780
00700780
00F00700
00F00F00
00F00F00
00F00F00
00F00F00
01E00E00
01E01E00
7FFFFFF8
7FFFFFF8
FFFFFFF8
FFFFFFF8
03C03C00
03C03C00
03C03C00
03C03C00
03803C00
07807800
07807800
07807800
07807800
07007800
07007000
ENDCHAR
STARTCHAR 0024
ENCODING 36
SWIDTH 558 0
DWIDTH 31 0
BBX 26 47 3 -5
BITMAP
00100000
001E0000
001E0000
001E0000
00FFC000
03FFF800
0FFFFE00
1FFFFE00
3F9EFE00
7F1E7E00
7E1E7E00
7E1E3E00
7E1E3E00
FE1E3E00
FF1E1E00
FF9E0000
FFDE0000
7FFE0000
7FFE0000
7FFF0000
3FFFC000
1FFFF000
1FFFF800
0FFFFE00
03FFFF00
01FFFF00
007FFF80
001FFF80
001FFFC0
001DFFC0
F81C7FC0
F81C3FC0
FC1C3FC0
FC1C3FC0
FC1C1FC0
FC1C3F80
FE1C3F80
FF1C7F00
FFDDFE00
FFFFFC00
3FFFF800
07FFE000
001C0000
001C0000
001C0000
001C0000
000C0000
ENDCHAR
STARTCHAR 0025
ENCODING 37
SWIDTH 846 0
DWIDTH 47 0
BBX 38 38 5 0
BITMAP
00E00000E0
0FF80001F0
1FFE0001E0
3FFF0003E0
7E1F0007C0
7C1F800F80
FC0F801F00
F80F803E00
F80FC03C00
F80FC07C00
F80F80F800
FC0F81F000
FC0F83E000
7E1F07C000
7F3F078000
3FFE0F8000
1FFC1F0000
07F03E0000
00007C0000
0000F80000
0001F00000
0001F03F80
0003E0FFE0
0007C1FFF0
000F83F1F8
001F07E0F8
003E07C0FC
003E07C0FC
007C0FC07C
00F80FC07C
01F00FC07C
03E007C07C
07C007C0FC
07C007E0F8
0F8003F1F8
1F0003FFF0
3E0001FFE0
1C00007FC0
ENDCHAR
STARTCHAR 0026
ENCODING 38
SWIDTH 774 0
DWIDTH 43 0
BBX 37 41 3 -1
BITMAP
0007F80000
003FFF8000
00FFFFC000
01FFFFC000
01FC1FC000
03F80FC000
03F807C000
03F807C000
07F807C000
07F807C000
03FC000000
03FC000000
03FC000000
03FE000000
01FF00F8F0
01FF00FFF0
00FF80FFF0
01FFC07FF0
07FFE00FC0
0FFFE00F80
1FFFF00F00
3F9FF80F00
3F8FFC0F00
7F07FE0E00
7F03FE1E00
FF03FF1C00
FF01FFBC00
FF00FFFC00
FF007FF800
FF003FF800
FF001FF800
FF000FFC00
FF800FFE00
7FC007FE00
7FC00FFF80
3FF03FFFF0
3FFFFEFFF8
1FFFFC7FF8
07FFF87FF8
01FFE03FF0
000C000000
ENDCHAR
STARTCHAR 0027
ENCODING 39
SWIDTH 216 0
DWIDTH 12 0
BBX 6 15 3 25
BITMAP
08
7C
FC
7C
7C
7C
7C
7C
7C
78
78
78
38
38
38
ENDCHAR
STARTCHAR 0028
ENCODING 40
SWIDTH 306 0
DWIDTH 17 0
BBX 14 56 2 -15
BITMAP
0038
0078
00F0
00F0
01E0
03E0
03C0
07C0
0780
0F80
0F80
1F00
1F00
3F00
3F00
3E00
7E00
7E00
7E00
7E00
7E00
FE00
FE00
FE00
FE00
FE00
FE00
FE00
FE00
FE00
FE00
FE00
FE00
FE00
FE00
7E00
7E00
7E00
7E00
3F00
3F00
3F00
1F00
1F80
0F80
0F80
0F80
07C0
03C0
03E0
01E0
01F0
00F0
0070
0038
003C
ENDCHAR
STARTCHAR 0029
ENCODING 41
SWIDTH 306 0
DWIDTH 17 0
BBX 14 56 2 -15
BITMAP
7000
7800
3800
3C00
1E00
1E00
0F00
0F80
0F80
07C0
07C0
07E0
03E0
03F0
03F0
03F0
01F8
01F8
01F8
01F8
01F8
01FC
01FC
01FC
01FC
01FC
01FC
01FC
01FC
01FC
01FC
01FC
01FC
01FC
01F8
01F8
01F8
01F8
01F0
03F0
03F0
03F0
03E0
03E0
07C0
07C0
0780
0F80
0F00
1F00
1E00
3E00
3C00
7800
7000
F000
ENDCHAR
STARTCHAR 002A
ENCODING 42
SWIDTH 468 0
DWIDTH 26 0
BBX 20 20 3 23
BITMAP
006000
007E00
007E00
107C00
387800
7C7800
7E7800
FF70F0
3FF7F0
03FFF0
00FFF0
03F7F0
07B000
1FB800
7F3C00
7E3E00
3C3E00
1C1F00
081F00
001C00
ENDCHAR
STARTCHAR 002B
ENCODING 43
SWIDTH 540 0
DWIDTH 30 0
BBX 26 28 2 0
BITMAP
000E0000
001E0000
001E0000
001E0000
001E0000
001E0000
001E0000
001E0000
001E0000
001E0000
001E0000
001E0000
7FFFFFC0
7FFFFFC0
FFFFFFC0
FFFFFFC0
001E0000
001E0000
001E0000
001E0000
001E0000
001E0000
001E0000
001E0000
001E0000
001E0000
001E0000
001E0000
ENDCHAR
STARTCHAR 002C
ENCODING 44
SWIDTH 288 0
DWIDTH 16 0
BBX 9 17 4 -10
BITMAP
0600
FF00
FF80
FF80
FF80
FF80
FF80
3F00
1F00
1F00
1E00
1E00
3C00
7C00
7800
F000
E000
ENDCHAR
STARTCHAR 002D
ENCODING 45
SWIDTH 414 0
DWIDTH 23 0
BBX 17 5 3 12
BITMAP
7FFF80
7FFF80
7FFF80
FFFF80
FFFF00
ENDCHAR
STARTCHAR 002E
ENCODING 46
SWIDTH 270 0
DWIDTH 15 0
BBX 10 9 3 -1
BITMAP
1E00
7F00
7F80
FFC0
FFC0
FFC0
FF80
7F80
3F00
ENDCHAR
STARTCHAR 002F
ENCODING 47
SWIDTH 378 0
DWIDTH 21 0
BBX 18 40 2 -1
BITMAP
000200
0003C0
000780
000780
000780
000F00
000F00
000F00
001E00
001E00
003C00
003C00
003C00
007800
007800
007800
00F000
00F000
01F000
01E000
01E000
03C000
03C000
03C000
078000
078000
0F8000
0F0000
0F0000
1E0000
1E0000
1E0000
3C0000
3C0000
3C0000
780000
780000
F80000
F00000
F00000
ENDCHAR
STARTCHAR 0030
ENCODING 48
SWIDTH 612 0
DWIDTH 34 0
BBX 30 29 2 -1
BITMAP
003FF000
00FFFE00
03FFFF80
0FFFFFC0
1FE07FE0
1FC01FF0
3F801FF0
7F800FF8
7F0007F8
7F0007FC
FF0007FC
FF0003FC
FF0003FC
FF0003FC
FF0003FC
FF0003FC
FF0003FC
FF8003FC
7F8003FC
7F8003F8
7FC007F8
3FE007F0
1FF00FF0
1FF81FE0
0FFF7FC0
07FFFF80
01FFFE00
007FF800
00030000
ENDCHAR
STARTCHAR 0031
ENCODING 49
SWIDTH 396 0
DWIDTH 22 0
BBX 16 28 3 0
BITMAP
FFFF
FFFF
FFFF
7FFF
1FF8
0FF0
0FF0
0FF0
0FF0
0FF0
0FF0
0FF0
0FF0
0FF0
0FF0
0FF0
0FF0
0FF0
0FF0
0FF0
0FF0
0FF0
0FF0
1FF8
3FFC
FFFF
FFFF
FFFF
ENDCHAR
STARTCHAR 0032
ENCODING 50
SWIDTH 504 0
DWIDTH 28 0
BBX 23 28 3 0
BITMAP
03FF80
1FFFE0
7FFFF0
7FBFF8
7E07FC
7C07FC
7C03FC
7C03FC
7C03FC
7803F8
0007F8
0007F0
000FE0
001FC0
003F80
007F00
00FE00
01F800
03F01E
07E01E
0F803E
3FFFFE
7FFFFE
FFFFFE
FFFFFE
FFFFFE
FFFFFE
FFFFFE
ENDCHAR
STARTCHAR 0033
ENCODING 51
SWIDTH 504 0
DWIDTH 28 0
BBX 24 38 2 -10
BITMAP
3FFFFC
3FFFFE
3FFFFE
3FFFFE
3FFFFC
7FFFFC
7FFFF8
7E01F0
7C03E0
7807C0
7807C0
000F80
001F00
003E00
007E00
007F00
00FFE0
01FFF8
01FFFC
01FFFE
00BFFE
0003FF
0001FF
0001FF
0000FF
0000FF
0000FF
0000FF
0000FF
0001FE
0001FE
0003FC
4007FC
F83FF8
FFFFF0
7FFFC0
1FFF00
00C000
ENDCHAR
STARTCHAR 0034
ENCODING 52
SWIDTH 594 0
DWIDTH 33 0
BBX 30 37 2 -10
BITMAP
00003F00
00007F00
0000FF00
0001FF00
0001FF00
0003FF00
0007FF00
000FFF00
001FFF00
001EFF00
003CFF00
0078FF00
00F8FF00
00F0FF00
01E0FF00
03E0FF00
07C0FF00
0F80FF00
0F80FF00
1F00FF00
3E00FF00
7FFFFFF8
FFFFFFFC
FFFFFFF8
FFFFFFF8
FFFFFFF8
FFFFFFF8
7FFFFFF8
0000FF00
0000FF00
0000FF00
0000FF00
0000FF00
0000FF00
0000FF00
0000FF00
0000F000
ENDCHAR
STARTCHAR 0035
ENCODING 53
SWIDTH 468 0
DWIDTH 26 0
BBX 22 41 2 -10
BITMAP
00003C
000038
000078
0FFFF8
0FFFF8
0FFFF8
0FFFF8
1FFFF8
1FFFF8
1FFFF8
1C0000
1C0000
3C0000
3C0000
3C0000
3FC000
7FF800
7FFE00
7FFF80
7FFFE0
3FFFF0
0FFFF8
00FFF8
003FFC
000FFC
0007FC
0007FC
0003FC
0003FC
0003FC
0003FC
0003FC
0003FC
0007F8
000FF0
001FF0
607FE0
7FFF80
FFFF00
7FF800
010000
ENDCHAR
STARTCHAR 0036
ENCODING 54
SWIDTH 540 0
DWIDTH 30 0
BBX 27 36 2 -1
BITMAP
0000FC00
0007FE00
001FFE00
007FE000
00FF8000
03FE0000
07F80000
07F00000
0FF00000
1FE00000
1FC00000
3FC00000
3F800000
7F8FE000
7FFFFC00
7FFFFE00
FFFFFF00
FF81FF80
FF00FFC0
FF007FC0
FF003FC0
FF003FC0
FF003FE0
FF001FE0
FF001FC0
FF001FC0
FF801FC0
7F803FC0
7F803FC0
3FC03F80
3FE07F00
1FF1FF00
0FFFFC00
07FFF800
01FFE000
00040000
ENDCHAR
STARTCHAR 0037
ENCODING 55
SWIDTH 468 0
DWIDTH 26 0
BBX 23 38 2 -10
BITMAP
7FFFFC
7FFFFE
7FFFFE
7FFFFE
7FFFFC
7FFFF8
FFFFF8
FE00F0
F801F0
F801E0
F003C0
0003C0
000780
000F80
000F00
001F00
001E00
003E00
007E00
007C00
00FC00
00FC00
01F800
01F800
03F800
03F800
03F800
07F800
07F800
07F800
07F800
0FF800
0FF800
0FF800
0FF000
0FC000
070000
040000
ENDCHAR
STARTCHAR 0038
ENCODING 56
SWIDTH 540 0
DWIDTH 30 0
BBX 25 36 3 -1
BITMAP
01FFC000
0FFFF000
1FFFFC00
3FC3FC00
3F81FE00
7F80FE00
7F00FE00
7F80FE00
7F80FE00
7F80FE00
7FC0FE00
7FF1FC00
3FF9F800
1FFFF000
0FFFE000
07FFC000
03FFF000
07FFF800
0FFFFC00
1F9FFE00
3F0FFE00
7F03FF00
FF01FF00
FE00FF00
FE00FF80
FE007F80
FE007F80
FE007F80
FF007F00
FF007F00
7F80FF00
7FC1FE00
3FFFFC00
1FFFF800
03FFE000
00180000
ENDCHAR
STARTCHAR 0039
ENCODING 57
SWIDTH 540 0
DWIDTH 30 0
BBX 27 37 2 -9
BITMAP
007FC000
03FFF800
07FFFE00
1FFFFF00
3FC0FF00
3F807F80
7F807FC0
7F003FC0
FF003FC0
FF003FC0
FF001FE0
FF001FE0
FF001FE0
FF001FE0
FF801FE0
FF801FE0
7FC01FE0
7FE01FE0
3FF87FC0
1FFFFFC0
0FFFFFC0
07FFFFC0
00FE3F80
00007F80
00007F00
0000FF00
0001FE00
0001FC00
0003FC00
000FF800
001FF000
007FC000
00FF8000
07FE0000
1FFC0000
1FE00000
1F000000
ENDCHAR
STARTCHAR 003A
ENCODING 58
SWIDTH 270 0
DWIDTH 15 0
BBX 9 25 3 0
BITMAP
0C00
3F00
7F80
FF80
FF80
FF80
7F80
7F00
1E00
0000
0000
0000
0000
0000
0000
0000
3E00
7F80
7F80
FF80
FF80
FF80
7F80
3F00
0800
ENDCHAR
STARTCHAR 003B
ENCODING 59
SWIDTH 288 0
DWIDTH 16 0
BBX 9 35 4 -10
BITMAP
1C00
7F00
FF80
FF80
FF80
FF80
FF80
7F00
3E00
0000
0000
0000
0000
0000
0000
0000
0000
0000
0700
7F00
FF80
FF80
FF80
FF80
FF80
1F80
1F00
1F00
1F00
1E00
3E00
3C00
7800
F800
F000
ENDCHAR
STARTCHAR 003C
ENCODING 60
SWIDTH 540 0
DWIDTH 30 0
BBX 24 27 3 0
BITMAP
00000C
00003E
0000FF
0003FC
0007F0
001FE0
007F80
00FE00
03FC00
0FF000
1FC000
7F0000
7E0000
F80000
FE0000
FF8000
3FC000
0FF000
03FC00
00FF00
003FC0
001FF0
0007FC
0001FE
00007E
00003E
00000E
ENDCHAR
STARTCHAR 003D
ENCODING 61
SWIDTH 540 0
DWIDTH 30 0
BBX 25 14 3 7
BITMAP
FFFFFF80
FFFFFF80
FFFFFF80
FFFFFF00
00000000
00000000
00000000
00000000
00000000
00000000
FFFFFF80
FFFFFF80
FFFFFF00
FFFFFF00
ENDCHAR
STARTCHAR 003E
ENCODING 62
SWIDTH 540 0
DWIDTH 30 0
BBX 23 27 4 0
BITMAP
380000
7C0000
FF0000
3F8000
1FE000
07F800
01FC00
00FF00
003F80
000FE0
0007F0
0001FC
00007E
00003E
00007E
0001FE
0007F8
000FE0
003FC0
00FF00
03FC00
07F000
1FE000
7F8000
7E0000
7C0000
700000
ENDCHAR
STARTCHAR 003F
ENCODING 63
SWIDTH 522 0
DWIDTH 29 0
BBX 20 41 6 -1
BITMAP
01F800
1FFF80
7FFFC0
FFFFE0
FE1FF0
FC0FF0
FC0FF0
F80FF0
F80FF0
F80FF0
380FE0
001FE0
003FC0
007FC0
007F80
00FF00
01FE00
01FC00
03F800
03F800
03F000
03F000
03F000
03F000
03F000
01F000
01F000
00F000
000000
000000
000000
00F000
01FC00
03FC00
07FE00
07FE00
07FE00
07FE00
03FC00
01F800
002000
ENDCHAR
STARTCHAR 0040
ENCODING 64
SWIDTH 990 0
DWIDTH 55 0
BBX 44 48 6 -11
BITMAP
000003C00000
0000FFFF0000
0007FFFFE000
001FFFFFF000
007F8003FC00
00FC0000FE00
01F000003F00
03E000001F80
07C000000F80
0F80000007C0
1F00000003E0
1E003F8383E0
3E00FFFF81E0
3C03FFFF81E0
7C07FFFF80F0
7807E07F80F0
780FC03F80F0
F81FC03F80F0
F81FC03F80F0
F01FC03F80F0
F03FC03F80F0
F03FC03F80F0
F03FC07F80E0
F03FC07F80E0
F03FC07F80E0
F03FC07F81E0
F03FC0FF81E0
F03FC0FF81C0
F03FC0FF83C0
F83FC1FF8380
F83FC1FFC780
F83FE3BFCF00
783FFFBFFE00
7C1FFF3FFE00
7C1FFE3FFC00
3E0FFC3FF000
3E07F81FE000
1F0040020000
1F8000000000
0FC000000180
0FE000000780
07F000000F80
03FC00003F00
01FF0000FE00
007FF81FFC00
003FFFFFF000
0007FFFF8000
0000FFFC0000
ENDCHAR
STARTCHAR 0041
ENCODING 65
SWIDTH 702 0
DWIDTH 39 0
BBX 38 38 1 0
BITMAP
0000F00000
0000F00000
0000F80000
0001F80000
0001FC0000
0003FC0000
0003FE0000
0003FE0000
0007FF0000
0007FF0000
000FFF0000
000EFF8000
000EFF8000
001E7FC000
001C7FC000
003C3FE000
00383FE000
00381FF000
00781FF000
00701FF000
00F00FF800
00F00FF800
00E007FC00
01E007FC00
01FFFFFE00
03FFFFFE00
03FFFFFF00
07FF81FF00
078001FF00
070000FF80
0F0000FF80
0F0000FFC0
1F00007FC0
1F00007FE0
7F8001FFF0
FFE003FFF8
FFE003FFF8
FFE003FFFC
ENDCHAR
STARTCHAR 0042
ENCODING 66
SWIDTH 666 0
DWIDTH 37 0
BBX 33 38 2 0
BITMAP
FFFFE00000
FFFFFF8000
FFFFFFE000
7FFFFFF800
1FF81FF800
0FF80FFC00
0FF807FC00
0FF807FC00
0FF803FE00
0FF803FC00
0FF803FC00
0FF803FC00
0FF803FC00
0FF807F800
0FF807F000
0FF80FE000
0FF83FC000
0FFFFC0000
0FFFFFE000
0FFFFFF800
0FF87FFC00
0FF80FFE00
0FF803FF00
0FF801FF00
0FF801FF80
0FF801FF80
0FF800FF80
0FF800FF80
0FF800FF80
0FF800FF80
0FF801FF00
0FF801FF00
0FF803FF00
0FFC07FE00
3FFE1FFC00
7FFFFFF800
FFFFFFE000
FFFFFE0000
ENDCHAR
STARTCHAR 0043
ENCODING 67
SWIDTH 630 0
DWIDTH 35 0
BBX 32 39 2 -1
BITMAP
0003FF00
001FFFF0
007FFFFC
01FF8FFE
03FC01FE
07F800FE
0FF0007E
1FE0003E
1FE0003C
3FC0003C
3FC0003C
7F80003C
7F800000
7F800000
FF800000
FF800000
FF800000
FF800000
FF800000
FF800000
FF800000
FF800000
FF800000
FF800000
7FC00000
7FC00000
7FC00000
7FE00000
3FE00000
3FF00000
1FF80000
0FFC0002
07FE000E
07FF803F
01FFFFFE
00FFFFF8
003FFFF0
000FFF80
00002000
ENDCHAR
STARTCHAR 0044
ENCODING 68
SWIDTH 720 0
DWIDTH 40 0
BBX 37 38 2 0
BITMAP
FFFFF00000
FFFFFFC000
FFFFFFF800
7FFFFFFC00
1FF807FF00
0FF801FF80
0FF800FFC0
0FF8007FC0
0FF8003FE0
0FF8003FE0
0FF8001FF0
0FF8001FF0
0FF8001FF0
0FF8000FF0
0FF8000FF8
0FF8000FF8
0FF8000FF8
0FF8000FF8
0FF8000FF8
0FF8000FF8
0FF8000FF8
0FF8000FF8
0FF8000FF8
0FF8000FF0
0FF8000FF0
0FF8000FF0
0FF8001FF0
0FF8001FE0
0FF8001FE0
0FF8003FC0
0FF8003FC0
0FF8007F80
0FF800FF00
0FFC03FE00
3FFF9FF800
7FFFFFF000
FFFFFF8000
FFFFF80000
ENDCHAR
STARTCHAR 0045
ENCODING 69
SWIDTH 612 0
DWIDTH 34 0
BBX 31 38 2 0
BITMAP
FFFFFFF0
FFFFFFF0
FFFFFFF0
7FFFFFF0
1FF807F0
0FF801F0
0FF800F8
0FF800F8
0FF80078
0FF80078
0FF80040
0FF80000
0FF80000
0FF80F00
0FF80F00
0FF81E00
0FF81E00
0FF9FE00
0FFFFE00
0FFFFE00
0FFFFE00
0FF83E00
0FF81E00
0FF80F00
0FF80F00
0FF80100
0FF80000
0FF80010
0FF8001E
0FF8003E
0FF8003E
0FF8007C
0FF800FC
0FFC01FC
3FFF9FFC
7FFFFFFC
FFFFFFFC
FFFFFFFC
ENDCHAR
STARTCHAR 0046
ENCODING 70
SWIDTH 576 0
DWIDTH 32 0
BBX 29 38 2 0
BITMAP
FFFFFFF0
FFFFFFF0
FFFFFFF0
7FFFFFF0
1FF807F0
0FF801F8
0FF800F8
0FF800F8
0FF80078
0FF80078
0FF80040
0FF80000
0FF80000
0FF80000
0FF80380
0FF80780
0FF80780
0FF80F00
0FF81F00
0FFFFF00
0FFFFF00
0FFFFF00
0FF87F00
0FF80F00
0FF80F00
0FF80780
0FF80780
0FF80000
0FF80000
0FF80000
0FF80000
0FF80000
0FF80000
0FFC0000
3FFF0000
FFFFC000
FFFFE000
FFFFE000
ENDCHAR
STARTCHAR 0047
ENCODING 71
SWIDTH 702 0
DWIDTH 39 0
BBX 35 39 2 -1
BITMAP
0003FFC000
001FFFFC00
007FFFFF00
01FF87FF80
03FE007F00
07F8003F00
0FF0003F00
1FE0001F00
1FE0001F00
3FC0000F00
3FC0000F00
7FC0000F00
7F80000000
7F80000000
FF80000000
FF80000000
FF80000000
FF80000000
FF80000000
FF80000000
FF8007FFE0
FF8007FFE0
FF8007FFE0
FF8000FF80
FF80007F80
7FC0007F80
7FC0007F80
7FC0007F80
3FE0007F80
3FE0007F80
1FF0007F80
0FF8007F80
0FFC007F80
07FE007F80
03FF81FF80
00FFFFFE00
003FFFF800
000FFFE000
0000300000
ENDCHAR
STARTCHAR 0048
ENCODING 72
SWIDTH 774 0
DWIDTH 43 0
BBX 39 38 2 0
BITMAP
FFFF83FFFE
FFFF83FFFE
FFFF83FFFE
7FFF81FFFE
1FFC007FF0
0FF8003FE0
0FF8003FE0
0FF8003FE0
0FF8003FE0
0FF8003FE0
0FF8003FE0
0FF8003FE0
0FF8003FE0
0FF8003FE0
0FF8003FE0
0FF8003FE0
0FF8003FE0
0FFFFFFFE0
0FFFFFFFE0
0FFFFFFFE0
0FFFFE3FE0
0FF8003FE0
0FF8003FE0
0FF8003FE0
0FF8003FE0
0FF8003FE0
0FF8003FE0
0FF8003FE0
0FF8003FE0
0FF8003FE0
0FF8003FE0
0FF8003FE0
0FF8003FE0
0FF8003FF0
3FFE00FFF8
7FFF81FFFE
FFFF83FFFE
FFFF83FFFE
ENDCHAR
STARTCHAR 0049
ENCODING 73
SWIDTH 378 0
DWIDTH 21 0
BBX 17 38 2 0
BITMAP
FFFF80
FFFF80
FFFF80
7FFF80
1FFC00
0FF800
0FF800
0FF800
0FF800
0FF800
0FF800
0FF800
0FF800
0FF800
0FF800
0FF800
0FF800
0FF800
0FF800
0FF800
0FF800
0FF800
0FF800
0FF800
0FF800
0FF800
0FF800
0FF800
0FF800
0FF800
0FF800
0FF800
0FF800
0FF800
3FFE00
7FFF80
FFFF80
FFFF80
ENDCHAR
STARTCHAR 004A
ENCODING 74
SWIDTH 360 0
DWIDTH 20 0
BBX 18 52 0 -14
BITMAP
3FFFC0
3FFFC0
3FFFC0
3FFFC0
07FE00
07FE00
03FC00
03FC00
03FC00
03FC00
03FC00
03FC00
03FC00
03FC00
03FC00
03FC00
03FC00
03FC00
03FC00
03FC00
03FC00
03FC00
03FC00
03FC00
03FC00
03FC00
03FC00
03FC00
03FC00
03FC00
03FC00
03FC00
03FC00
03FC00
03FC00
03FC00
03FC00
03FC00
03F800
07F800
07F800
07F800
07F000
0FF000
0FE000
1FC000
3F8000
7F0000
FE0000
FC0000
F00000
400000
ENDCHAR
STARTCHAR 004B
ENCODING 75
SWIDTH 720 0
DWIDTH 40 0
BBX 37 38 2 0
BITMAP
FFFF83FFE0
FFFF83FFE0
FFFF83FFE0
7FFF83FFE0
1FFC00FF00
0FF800FC00
0FF801F800
0FF801F000
0FF803E000
0FF807C000
0FF80F8000
0FF81F0000
0FF83E0000
0FF87C0000
0FF8F80000
0FF9F00000
0FFBF00000
0FFFF80000
0FFFFC0000
0FFFFC0000
0FFFFE0000
0FFBFF0000
0FFBFF8000
0FF9FFC000
0FF8FFC000
0FF87FE000
0FF83FF000
0FF83FF000
0FF81FF800
0FF80FFC00
0FF807FE00
0FF807FE00
0FF803FF00
0FF803FFC0
3FFE01FFF0
7FFF80FFF8
FFFF80FFF8
FFFF807FF8
ENDCHAR
STARTCHAR 004C
ENCODING 76
SWIDTH 594 0
DWIDTH 33 0
BBX 30 38 2 0
BITMAP
FFFF8000
FFFF8000
FFFF8000
7FFF8000
1FFC0000
0FF80000
0FF80000
0FF80000
0FF80000
0FF80000
0FF80000
0FF80000
0FF80000
0FF80000
0FF80000
0FF80000
0FF80000
0FF80000
0FF80000
0FF80000
0FF80000
0FF80000
0FF80000
0FF80000
0FF80000
0FF80000
0FF80000
0FF80020
0FF8003C
0FF8003C
0FF8007C
0FF8007C
0FF800FC
0FFC01FC
3FFF9FF8
7FFFFFF8
FFFFFFF8
FFFFFFF8
ENDCHAR
STARTCHAR 004D
ENCODING 77
SWIDTH 954 0
DWIDTH 53 0
BBX 51 38 1 -1
BITMAP
1FFE000007FF80
1FFE000007FF80
1FFF00000FFF80
1FFF00000FFF80
03FF80001FFC00
01FF80001FF800
01FFC0001FF800
01FFC0003FF800
01FFC0003FF800
01FFE0003FF800
01FFE0007FF800
01FFF0007FF800
03DFF000F7F800
03DFF800F7FC00
03CFF800E7FC00
03CFF801E7FC00
03C7FC01E7FC00
03C7FC03C7FC00
03C3FE03C3FC00
0383FE0383FC00
0381FF0783FC00
0381FF0783FC00
0381FF8703FC00
0780FF8F03FE00
0780FF8E03FE00
07807FDE03FE00
07807FDE03FE00
07803FFC01FE00
07803FFC01FE00
07801FF801FE00
07801FF801FE00
0F801FF801FF00
0F800FF001FF00
1F800FF003FF00
3FE007E007FFC0
FFF007E01FFFE0
FFF003E01FFFE0
FFF803C01FFFE0
ENDCHAR
STARTCHAR 004E
ENCODING 78
SWIDTH 720 0
DWIDTH 40 0
BBX 36 38 2 0
BITMAP
FFE000FFF0
FFF000FFF0
FFF0007FF0
FFF8007FF0
1FFC000FC0
0FFE000F80
0FFE000780
0FFF000780
0FFF800780
0FFFC00780
0FFFC00780
0F7FE00780
0F7FF00780
0F3FF80780
0F1FF80780
0F0FFC0780
0F0FFE0780
0F07FF0780
0F03FF0780
0F01FF8780
0F01FFC780
0F00FFE780
0F007FE780
0F003FF780
0F003FFF80
0F001FFF80
0F000FFF80
0F0007FF80
0F0007FF80
0F0003FF80
0F0001FF80
0F0000FF80
0F8000FF80
1F80007F80
7FE0003F80
FFF0001F80
FFF0001F80
FFF0000F80
ENDCHAR
STARTCHAR 004F
ENCODING 79
SWIDTH 738 0
DWIDTH 41 0
BBX 38 39 2 -1
BITMAP
0003FF0000
001FFFE000
007FFFF800
01FF9FFC00
03FC03FF00
07F801FF80
0FF000FFC0
1FE0007FC0
1FC0003FE0
3FC0003FE0
3FC0001FF0
7F80001FF0
7F80000FF8
7F80000FF8
FF80000FF8
FF80000FF8
FF800007F8
FF800007FC
FF800007FC
FF800007FC
FF800007F8
FF800007F8
FF800007F8
FF800007F8
7F80000FF8
7FC0000FF8
7FC0000FF0
7FC0000FF0
3FE0001FE0
3FE0001FE0
1FF0001FC0
0FF8003FC0
07FC007F80
07FE00FF00
01FF83FE00
00FFFFF800
003FFFF000
000FFF8000
0000300000
ENDCHAR
STARTCHAR 0050
ENCODING 80
SWIDTH 630 0
DWIDTH 35 0
BBX 32 38 2 0
BITMAP
FFFFF000
FFFFFF80
FFFFFFE0
7FFFFFF8
1FF81FF8
0FF80FFC
0FF807FE
0FF803FE
0FF803FE
0FF801FE
0FF801FF
0FF801FF
0FF801FF
0FF801FE
0FF801FE
0FF801FE
0FF801FE
0FF803FC
0FF803FC
0FF807F8
0FF80FF8
0FF9FFF0
0FFBFFE0
0FFBFF80
0FF9FE00
0FF80000
0FF80000
0FF80000
0FF80000
0FF80000
0FF80000
0FF80000
0FF80000
0FFC0000
3FFF0000
FFFFC000
FFFFE000
FFFFE000
ENDCHAR
STARTCHAR 0051
ENCODING 81
SWIDTH 738 0
DWIDTH 41 0
BBX 41 49 2 -11
BITMAP
0003FF000000
001FFFE00000
007FFFF80000
01FF9FFC0000
03FC03FF0000
07F801FF8000
0FF000FFC000
1FE0007FC000
1FC0003FE000
3FC0003FE000
3FC0001FF000
7F80001FF000
7F80000FF800
7F80000FF800
FF80000FF800
FF80000FF800
FF800007F800
FF800007FC00
FF800007FC00
FF800007FC00
FF800007F800
FF800007F800
FF800007F800
FF800007F800
7F80000FF800
7FC0000FF800
7FC0000FF000
7FC0000FF000
3FE0001FE000
3FE0001FE000
1FF0001FC000
0FF8003FC000
07FC007F8000
07FE00FF0000
01FF83FE0000
00FFFFF80000
003FFFF00000
000FFFE00000
00003FF80000
000003FE0000
000001FF0000
000000FFC000
0000007FF000
0000003FFF80
0000003FFF80
0000001FFF80
0000000FFF80
00000007F800
00000003C000
ENDCHAR
STARTCHAR 0052
ENCODING 82
SWIDTH 702 0
DWIDTH 39 0
BBX 36 38 2 -1
BITMAP
FFFFFE0000
FFFFFFC000
FFFFFFF000
7FFFFFF800
1FF80FFC00
0FF807FE00
0FF803FE00
0FF801FF00
0FF801FF00
0FF801FF00
0FF801FF00
0FF801FF00
0FF801FF00
0FF801FF00
0FF801FE00
0FF803FE00
0FF807FC00
0FF80FF800
0FF87FF000
0FFFFFE000
0FFFFF8000
0FFFFF0000
0FF8FF8000
0FF87FC000
0FF83FE000
0FF81FF000
0FF81FF000
0FF80FF800
0FF80FF800
0FF807FC00
0FF807FC00
0FF803FE00
0FF803FF00
0FF803FF80
3FFE01FFE0
7FFF01FFF0
FFFF00FFF0
FFFF00FFF0
ENDCHAR
STARTCHAR 0053
ENCODING 83
SWIDTH 558 0
DWIDTH 31 0
BBX 26 39 3 -1
BITMAP
00FFC000
03FFF800
0FFFFE00
1FF7FE00
3F80FE00
3F007E00
7E007E00
7E003E00
7E003E00
FE003E00
FF001E00
FF800000
FFC00000
7FF00000
7FFC0000
7FFF0000
3FFFC000
1FFFF000
1FFFF800
0FFFFE00
03FFFF00
01FFFF00
007FFF80
000FFF80
0003FFC0
0001FFC0
F8007FC0
F8003FC0
FC003FC0
FC003FC0
FC001FC0
FC003F80
FE003F80
FF007F00
FFC1FE00
FFFFFC00
3FFFF800
07FFE000
00180000
ENDCHAR
STARTCHAR 0054
ENCODING 84
SWIDTH 648 0
DWIDTH 36 0
BBX 34 38 1 0
BITMAP
3FFFFFFF80
3FFFFFFF80
7FFFFFFF80
7FFFFFFF80
7F07F81F80
7E07F80F80
7C07F80F80
7C07F807C0
7807F807C0
F807F807C0
3807F80300
0007F80000
0007F80000
0007F80000
0007F80000
0007F80000
0007F80000
0007F80000
0007F80000
0007F80000
0007F80000
0007F80000
0007F80000
0007F80000
0007F80000
0007F80000
0007F80000
0007F80000
0007F80000
0007F80000
0007F80000
0007F80000
0007FC0000
000FFC0000
003FFF0000
00FFFFC000
01FFFFE000
01FFFFE000
ENDCHAR
STARTCHAR 0055
ENCODING 85
SWIDTH 684 0
DWIDTH 38 0
BBX 34 39 2 -1
BITMAP
FFFF01FFC0
FFFF01FFC0
FFFF01FFC0
FFFF01FFC0
3FF8007F00
1FF0003E00
1FF0003E00
1FF0001E00
0FF0001C00
0FF0001C00
0FF0001C00
0FF0001C00
0FF0001C00
0FF0001C00
0FF0001C00
0FF0001C00
0FF0001C00
0FF0001C00
0FF0001C00
0FF0001C00
0FF0001C00
0FF0001C00
0FF0001C00
0FF0001C00
0FF0001C00
0FF0001C00
0FF0001C00
0FF0001C00
0FF0003C00
0FF8003C00
0FF8003C00
0FF8003C00
07FC007800
07FE00F800
03FF87F000
01FFFFE000
00FFFFC000
003FFF0000
0000600000
ENDCHAR
STARTCHAR 0056
ENCODING 86
SWIDTH 684 0
DWIDTH 38 0
BBX 37 38 1 0
BITMAP
FFFF003FF8
FFFF003FF8
FFFF003FF8
FFFF003FF0
3FF8000FE0
1FF8000FC0
1FF8000780
0FF8000780
0FFC000F00
07FC000F00
07FC000E00
03FE001E00
03FE001E00
01FF001C00
01FF003C00
01FF003800
00FF807800
00FF807800
007FC07000
007FC0F000
007FC0E000
003FE1E000
003FE1E000
001FE1C000
001FF3C000
001FF38000
000FF78000
000FFF8000
0007FF0000
0007FF0000
0007FE0000
0003FE0000
0003FC0000
0001FC0000
0001FC0000
0001F80000
0000F80000
0000F00000
ENDCHAR
STARTCHAR 0057
ENCODING 87
SWIDTH 990 0
DWIDTH 55 0
BBX 53 39 1 -1
BITMAP
FFFF001E007FF8
FFFF001E003FF8
FFFF003F003FF8
FFFF003F003FF8
3FF8003F0007E0
1FF0007F8007E0
1FF0007F8007C0
0FF800FF8003C0
0FF800FFC00780
0FF800FFC00780
07FC01FFE00780
07FC01FFE00700
07FC01FFE00F00
03FE03DFF00F00
03FE03DFF00E00
03FE039FF00E00
01FE078FF81E00
01FF078FF81C00
01FF070FFC1C00
00FF0F07FC3C00
00FF8F07FC3800
00FF8E03FE3800
00FF9E03FE7800
007FDE03FE7800
007FDC01FF7000
007FFC01FFF000
003FFC01FFF000
003FF800FFE000
003FF800FFE000
001FF8007FE000
001FF0007FC000
001FF0007FC000
000FF0003FC000
000FE0003FC000
000FE0003F8000
000FC0001F8000
0007C0001F8000
0007C0000F0000
00040000080000
ENDCHAR
STARTCHAR 0058
ENCODING 88
SWIDTH 684 0
DWIDTH 38 0
BBX 35 38 2 0
BITMAP
FFFF83FFC0
FFFF83FFC0
7FFF83FFC0
7FFF81FFC0
1FFE007F00
0FFE007E00
07FE007C00
07FE00F800
03FF00F000
01FF01F000
01FF81E000
00FFC3C000
007FC7C000
007FE78000
003FFF0000
003FFF0000
001FFE0000
000FFC0000
000FFC0000
0007FE0000
0007FF0000
0007FF0000
000FFF8000
001EFF8000
003EFFC000
003C7FE000
00787FE000
00F83FF000
00F01FF000
01E01FF800
03E00FFC00
07C00FFC00
0FC00FFE00
1FC007FF00
7FE00FFFC0
FFF03FFFE0
FFF83FFFE0
FFF83FFFE0
ENDCHAR
STARTCHAR 0059
ENCODING 89
SWIDTH 630 0
DWIDTH 35 0
BBX 33 38 1 0
BITMAP
FFFF01FF80
FFFF01FF80
FFFF01FF80
FFFF01FF80
3FFC007E00
1FFC007C00
0FFC007800
0FFC007800
07FE007000
07FE00F000
03FE00E000
03FF01E000
01FF01C000
01FF83C000
00FF838000
00FFC78000
007FC78000
007FE70000
003FEF0000
003FEE0000
001FFE0000
001FFC0000
000FFC0000
000FF80000
0007F80000
0007F80000
0007F80000
0007F80000
0007F80000
0007F80000
0007F80000
0007F80000
000FF80000
000FFC0000
007FFF0000
01FFFFC000
01FFFFC000
01FFFFC000
ENDCHAR
STARTCHAR 005A
ENCODING 90
SWIDTH 594 0
DWIDTH 33 0
BBX 29 38 2 0
BITMAP
1FFFFFF0
1FFFFFF0
1FFFFFF0
1FFFFFF0
3F803FF0
3F007FE0
3F007FE0
3E00FFC0
3E00FFC0
3C01FF80
7C01FF80
0003FF00
0003FE00
0007FE00
000FFC00
000FFC00
001FF800
001FF800
003FF000
003FF000
007FE000
007FC000
00FFC000
01FF8000
01FF8000
03FF0000
03FF0000
07FE0040
0FFC00F8
0FFC00F8
1FF800F8
1FF801F8
3FF001F0
7FE003F0
7FE01FF0
FFFFFFF0
FFFFFFF0
7FFFFFF0
ENDCHAR
STARTCHAR 005B
ENCODING 91
SWIDTH 288 0
DWIDTH 16 0
BBX 12 56 2 -15
BITMAP
FFF0
FFF0
FFF0
FF80
FE00
FC00
FC00
FC00
FC00
FC00
FC00
FC00
FC00
FC00
FC00
FC00
FC00
FC00
FC00
FC00
FC00
FC00
FC00
FC00
FC00
FC00
FC00
FC00
FC00
FC00
FC00
FC00
FC00
FC00
FC00
FC00
FC00
FC00
FC00
FC00
FC00
FC00
FC00
FC00
FC00
FC00
FC00
FC00
FC00
FC00
FC00
FE00
FFE0
FFF0
FFF0
FFF0
ENDCHAR
STARTCHAR 005C
ENCODING 92
SWIDTH 378 0
DWIDTH 21 0
BBX 18 40 2 0
BITMAP
E00000
F00000
F00000
780000
780000
780000
3C0000
3C0000
3C0000
1E0000
1E0000
0F0000
0F0000
0F0000
078000
078000
078000
03C000
03C000
01E000
01E000
01E000
00F000
00F000
00F000
007800
007800
007800
003C00
003C00
001E00
001E00
001E00
000F00
000F00
000F00
000780
000780
0003C0
0003C0
ENDCHAR
STARTCHAR 005D
ENCODING 93
SWIDTH 288 0
DWIDTH 16 0
BBX 12 56 2 -15
BITMAP
7FF0
FFF0
FFF0
1FF0
03F0
03F0
01F0
01F0
01F0
01F0
01F0
01F0
01F0
01F0
01F0
01F0
01F0
01F0
01F0
01F0
01F0
01F0
01F0
01F0
01F0
01F0
01F0
01F0
01F0
01F0
01F0
01F0
01F0
01F0
01F0
01F0
01F0
01F0
01F0
01F0
01F0
01F0
01F0
01F0
01F0
01F0
01F0
01F0
01F0
01F0
03F0
07F0
7FF0
7FF0
FFF0
FFF0
ENDCHAR
STARTCHAR 005E
ENCODING 94
SWIDTH 540 0
DWIDTH 30 0
BBX 26 18 2 21
BITMAP
000E0000
001F0000
003F8000
007F8000
00FFC000
00F3E000
01E1E000
03E0F000
07C0F800
0F807800
0F003C00
1E003E00
3E001E00
7C000F00
F8000780
F00007C0
700003C0
20000000
ENDCHAR
STARTCHAR 005F
ENCODING 95
SWIDTH 540 0
DWIDTH 30 0
BBX 28 3 1 -8
BITMAP
7FFFFFF0
FFFFFFF0
FFFFFFF0
ENDCHAR
STARTCHAR 0060
ENCODING 96
SWIDTH 288 0
DWIDTH 16 0
BBX 11 10 3 30
BITMAP
1E00
FE00
7F00
3F00
1F80
1F80
0F80
07C0
03C0
03E0
ENDCHAR
STARTCHAR 0061
ENCODING 97
SWIDTH 504 0
DWIDTH 28 0
BBX 26 27 2 -1
BITMAP
003F8000
01FFE000
03FFF000
0FFFF800
1E1FF800
3E0FF800
7E07FC00
FE07FC00
FE07FC00
FE03FC00
0003FC00
001FFC00
007FFC00
01FBFC00
0FE3FC00
3F83FC00
7F03FC00
FF03FC00
FF03FC00
FF03FC00
FF03FE00
FF03FF80
FFCFFFC0
FFFFFFC0
7FFBFFC0
1FE1FE00
00004000
ENDCHAR
STARTCHAR 0062
ENCODING 98
SWIDTH 594 0
DWIDTH 33 0
BBX 31 41 0 -1
BITMAP
00200000
03F00000
FFF00000
FFF00000
FFF00000
3FF00000
0FF00000
0FF00000
0FF00000
0FF00000
0FF00000
0FF00000
0FF00000
0FF00000
0FF03F00
0FF0FFE0
0FF3FFF0
0FF7FFF8
0FFFFFFC
0FFC07FC
0FF007FE
0FF003FE
0FF003FE
0FF001FE
0FF001FE
0FF001FE
0FF001FE
0FF001FE
0FF001FE
0FF001FE
0FF001FE
0FF001FC
0FF003FC
0FF003F8
0FF007F8
0FF007F0
1FFC1FE0
0FFFFFC0
03FFFF00
007FFC00
00018000
ENDCHAR
STARTCHAR 0063
ENCODING 99
SWIDTH 450 0
DWIDTH 25 0
BBX 23 27 2 -1
BITMAP
007F80
03FFF0
07FFFC
0FF7FC
1FC1FC
3F80FC
3F807C
7F007C
7F007C
FF0078
FF0000
FF0000
FF0000
FF0000
FF0000
FF0000
FF0000
FF8000
7F8000
7FC000
3FE004
3FF01C
1FFFFE
0FFFFC
07FFF8
01FFE0
000C00
ENDCHAR
STARTCHAR 0064
ENCODING 100
SWIDTH 594 0
DWIDTH 33 0
BBX 30 41 2 -1
BITMAP
00000040
000007E0
0001FFE0
0001FFE0
0001FFE0
00007FE0
00001FE0
00001FE0
00001FE0
00001FE0
00001FE0
00001FE0
00001FE0
00001FE0
001FFFE0
00FFFFE0
03FFFFE0
07FCFFE0
0FE03FE0
1FC01FE0
3FC01FE0
3F801FE0
7F801FE0
7F801FE0
FF001FE0
FF001FE0
FF001FE0
FF001FE0
FF001FE0
FF001FE0
FF801FE0
FF801FE0
FF801FE0
7FC01FE0
7FE01FF0
7FF01FFC
3FFFFFFC
1FFFFFFC
0FFFDFFC
03FF1E00
00300000
ENDCHAR
STARTCHAR 0065
ENCODING 101
SWIDTH 504 0
DWIDTH 28 0
BBX 24 27 2 -1
BITMAP
007F80
03FFE0
07FFF8
0FFFFC
1FC1FC
3F80FE
7F80FE
7F00FF
7F007F
FF007F
FF007F
FFFFFF
FFFFFF
FFFFFF
FFFFFE
FF0000
FF0000
FF8000
7F8000
7FC000
7FE003
3FF00F
1FFFFF
0FFFFE
07FFFC
01FFE0
000E00
ENDCHAR
STARTCHAR 0066
ENCODING 102
SWIDTH 378 0
DWIDTH 21 0
BBX 24 40 2 0
BITMAP
0003F0
001FFE
007FFF
00FFFF
01F87F
03F83F
03F03F
07F03F
07F03F
0FF010
0FF000
0FF000
0FF000
0FF000
0FF000
FFFFC0
FFFFC0
FFFFC0
FFFFC0
0FF000
0FF000
0FF000
0FF000
0FF000
0FF000
0FF000
0FF000
0FF000
0FF000
0FF000
0FF000
0FF000
0FF000
0FF000
0FF800
1FF800
3FFF00
FFFFC0
FFFFC0
FFFFC0
ENDCHAR
STARTCHAR 0067
ENCODING 103
SWIDTH 540 0
DWIDTH 30 0
BBX 27 40 2 -14
BITMAP
00FF0000
07FFFFE0
1FFFFFE0
3FC3FFE0
3F81FC20
7F80FE00
7F00FF00
7F00FF00
FF00FF00
FF00FF00
FF00FF00
7F80FF00
7F80FF00
7FC0FE00
3FE3FC00
1FFFF800
0FFFF000
0FFFC000
1F000000
3E000000
3F000000
7FF80000
7FFFFE00
7FFFFF00
7FFFFF80
3FFFFFC0
1FFFFFC0
1FFFFFC0
3EFFFFC0
7E003FC0
FC001FC0
FC001FC0
FC001F80
FC001F80
FE003F00
FF00FE00
7FFFFC00
7FFFF000
1FFFC000
03FC0000
ENDCHAR
STARTCHAR 0068
ENCODING 104
SWIDTH 648 0
DWIDTH 36 0
BBX 32 40 2 0
BITMAP
00600000
07E00000
FFF00000
FFF00000
FFF00000
3FF00000
1FF00000
1FF00000
0FF00000
0FF00000
0FF00000
0FF00000
0FF00000
0FF00000
0FF03C00
0FF1FF80
0FF3FFE0
0FFFFFF0
0FFFFFF0
0FFF3FF0
0FF00FF8
0FF007F8
0FF007F8
0FF007F8
0FF007F8
0FF007F8
0FF007F8
0FF007F8
0FF007F8
0FF007F8
0FF007F8
0FF007F8
0FF007F8
0FF007F8
1FF007F8
1FF007FC
3FFC1FFE
FFFE3FFF
FFFE3FFF
FFFE3FFF
ENDCHAR
STARTCHAR 0069
ENCODING 105
SWIDTH 342 0
DWIDTH 19 0
BBX 16 38 2 0
BITMAP
0FE0
1FF0
1FF0
1FF0
1FF0
1FF0
0FE0
0300
0000
0000
0000
0000
0060
07F0
FFF0
FFF0
FFF0
3FF0
0FF0
0FF0
0FF0
0FF0
0FF0
0FF0
0FF0
0FF0
0FF0
0FF0
0FF0
0FF0
0FF0
0FF0
0FF0
1FF8
3FFC
FFFF
FFFF
FFFF
ENDCHAR
STARTCHAR 006A
ENCODING 106
SWIDTH 306 0
DWIDTH 17 0
BBX 13 52 1 -14
BITMAP
07F0
0FF8
0FF8
0FF8
0FF8
0FF8
07F0
0180
0000
0000
0000
0000
0030
03F8
7FF8
7FF8
7FF8
1FF8
0FF8
07F8
07F8
07F8
07F8
07F8
07F8
07F8
07F8
07F8
07F8
07F8
07F8
07F8
07F8
07F8
07F8
07F8
07F8
07F8
07F0
07F0
07F0
0FE0
0FE0
0FC0
1FC0
3F80
3F00
7E00
FC00
F800
F000
4000
ENDCHAR
STARTCHAR 006B
ENCODING 107
SWIDTH 612 0
DWIDTH 34 0
BBX 32 40 2 0
BITMAP
00600000
07E00000
FFF00000
FFF00000
FFF00000
3FF00000
1FF00000
0FF00000
0FF00000
0FF00000
0FF00000
0FF00000
0FF00000
0FF00000
0FF0380E
0FF03FFE
0FF03FFC
0FF03FFC
0FF00FE0
0FF01F80
0FF01F00
0FF03E00
0FF07C00
0FF0F000
0FF3F000
0FF7F000
0FFFF800
0FF7FC00
0FF7FE00
0FF3FF00
0FF1FF00
0FF0FF80
0FF07FC0
0FF07FE0
1FF03FF0
1FF01FF8
3FF80FFE
FFFE07FF
FFFE07FF
FFFE03FE
ENDCHAR
STARTCHAR 006C
ENCODING 108
SWIDTH 324 0
DWIDTH 18 0
BBX 15 40 2 0
BITMAP
0060
07E0
FFF0
FFF0
FFF0
3FF0
1FF0
0FF0
0FF0
0FF0
0FF0
0FF0
0FF0
0FF0
0FF0
0FF0
0FF0
0FF0
0FF0
0FF0
0FF0
0FF0
0FF0
0FF0
0FF0
0FF0
0FF0
0FF0
0FF0
0FF0
0FF0
0FF0
0FF0
0FF0
1FF0
1FF0
3FF8
FFFE
FFFE
FFFE
ENDCHAR
STARTCHAR 006D
ENCODING 109
SWIDTH 954 0
DWIDTH 53 0
BBX 50 26 2 0
BITMAP
00603E00060000
07F0FFC03FE000
FFF3FFE0FFF000
FFF7FFF1FFF800
FFEFFFF7FFFC00
3FFE1FFF8FFC00
1FF00FFC03FC00
0FF007F803FC00
0FF007F803FE00
0FF007F801FE00
0FF007F801FE00
0FF007F801FE00
0FF007F801FC00
0FF007F801FC00
0FF007F801FC00
0FF007F801FE00
0FF007F801FE00
0FF007F801FE00
0FF007F801FE00
0FF007F801FE00
0FF007F803FE00
1FF007FC03FE00
3FFC1FFE07FF00
FFFE3FFF9FFFC0
FFFF3FFF9FFFC0
FFFF3FFF9FFFC0
ENDCHAR
STARTCHAR 006E
ENCODING 110
SWIDTH 648 0
DWIDTH 36 0
BBX 33 26 2 0
BITMAP
00601C0000
07F0FFC000
FFF3FFE000
FFF7FFF000
FFFFFFF000
3FFE1FF800
1FF00FF800
0FF007F800
0FF007FC00
0FF007FC00
0FF003FC00
0FF003FC00
0FF003FC00
0FF003FC00
0FF003FC00
0FF003FC00
0FF003F800
0FF003F800
0FF003FC00
0FF007FC00
0FF007FC00
1FF807FC00
3FFC0FFE00
FFFE3FFF80
FFFE3FFF80
FFFF3FFF80
ENDCHAR
STARTCHAR 006F
ENCODING 111
SWIDTH 558 0
DWIDTH 31 0
BBX 28 27 2 -1
BITMAP
003FC000
01FFF800
07FFFE00
0FFBFF00
1FC0FF80
3FC07FC0
3F803FC0
7F803FE0
7F001FE0
FF001FE0
FF001FF0
FF001FF0
FF000FF0
FF000FF0
FF000FF0
FF000FF0
FF800FE0
FF801FE0
7F801FE0
7FC01FC0
3FC03FC0
3FE03F80
1FF0FF00
0FFFFE00
07FFFC00
00FFF000
00060000
ENDCHAR
STARTCHAR 0070
ENCODING 112
SWIDTH 630 0
DWIDTH 35 0
BBX 31 40 2 -14
BITMAP
00603F00
07F1FFC0
FFF3FFF0
FFF7FFF8
FFFFFFF8
3FF80FFC
1FF007FC
0FF003FE
0FF003FE
0FF001FE
0FF001FE
0FF001FE
0FF001FE
0FF001FE
0FF001FE
0FF001FE
0FF001FC
0FF003FC
0FF003FC
0FF003F8
0FF007F8
0FF00FF0
0FF81FE0
0FFFFFC0
0FFFFF00
0FFFFC00
0FF18000
0FF00000
0FF00000
0FF00000
0FF00000
0FF00000
0FF00000
0FF00000
0FF80000
1FFC0000
FFFFC000
FFFFC000
FFFFC000
E001C000
ENDCHAR
STARTCHAR 0071
ENCODING 113
SWIDTH 594 0
DWIDTH 33 0
BBX 31 40 2 -14
BITMAP
001FF000
00FFFF00
03FFFFC0
07FCFFF0
0FE03FF0
1FC01FF0
3FC01FE0
3F801FE0
7F801FE0
7F801FE0
FF001FE0
FF001FE0
FF001FE0
FF001FE0
FF001FE0
FF001FE0
FF001FE0
FF801FE0
FF801FE0
7F801FE0
7FC01FE0
3FE07FE0
3FFFFFE0
1FFFDFE0
07FF9FE0
01FC1FE0
00001FE0
00001FE0
00001FE0
00001FE0
00001FE0
00001FE0
00001FE0
00001FE0
00003FF0
00007FF0
0003FFFE
0007FFFE
0007FFFE
0007800E
ENDCHAR
STARTCHAR 0072
ENCODING 114
SWIDTH 468 0
DWIDTH 26 0
BBX 23 26 2 0
BITMAP
006010
07F0FE
FFF3FE
FFE7FE
FFE7FE
3FEFFE
1FFFFE
0FF83E
0FF03E
0FF03E
0FF020
0FF000
0FF000
0FF000
0FF000
0FF000
0FF000
0FF000
0FF000
0FF000
0FF800
1FF800
3FFF00
FFFFC0
FFFFC0
FFFFC0
ENDCHAR
STARTCHAR 0073
ENCODING 115
SWIDTH 450 0
DWIDTH 25 0
BBX 22 27 2 -1
BITMAP
01FF00
0FFFE0
3FFFF0
3FDFF0
7F03F0
7E03F0
FF01F0
FF01F0
FF80C0
7FE000
7FFC00
7FFF00
3FFFC0
0FFFE0
07FFF0
00FFF8
003FF8
780FFC
F807FC
F803FC
FC03F8
FC07F8
FF0FF8
FFFFF0
FFFFC0
1FFF00
006000
ENDCHAR
STARTCHAR 0074
ENCODING 116
SWIDTH 360 0
DWIDTH 20 0
BBX 19 35 1 -1
BITMAP
006000
01F000
0FF000
0FF000
0FF000
0FF000
0FF000
0FF000
0FF000
FFFFC0
FFFFC0
FFFFC0
FFFFC0
0FF000
0FF000
0FF000
0FF000
0FF000
0FF000
0FF000
0FF000
0FF000
0FF000
0FF000
0FF000
0FF000
0FF000
0FF000
0FF000
0FF000
0FFDC0
07FFE0
03FFE0
01FF80
001000
ENDCHAR
STARTCHAR 0075
ENCODING 117
SWIDTH 594 0
DWIDTH 33 0
BBX 31 26 1 -1
BITMAP
00400060
0FE03FF0
FFE0FFF0
FFE0FFF0
FFE0FFF0
3FE01FF0
1FE00FF0
1FE00FF0
1FE00FF0
1FE00FF0
1FE00FF0
1FE00FF0
1FE00FF0
1FE00FF0
1FE00FF0
1FE00FF0
1FE00FF0
1FE00FF0
1FF00FF0
0FF00FF0
0FF80FF8
0FFC0FFE
0FFFFFFE
07FFFFFE
03FFEFFE
01FF0F00
ENDCHAR
STARTCHAR 0076
ENCODING 118
SWIDTH 540 0
DWIDTH 30 0
BBX 29 27 1 -1
BITMAP
F87E3C78
FFFE3FF8
FFFE1FF8
FFFE1FF8
3FF007E0
1FF007C0
1FF00780
0FF80780
0FF80780
07F80F00
07FC0F00
03FC0E00
03FE1E00
01FE1C00
01FF3C00
00FF3800
00FF3800
00FFF800
007FF000
007FF000
003FE000
003FE000
001FC000
001FC000
000F8000
000F8000
000E0000
ENDCHAR
STARTCHAR 0077
ENCODING 119
SWIDTH 774 0
DWIDTH 43 0
BBX 42 27 1 -1
BITMAP
F07C0180E3C0
FFFC0780FFC0
FFFC07C0FFC0
FFFC0FC0FFC0
3FF00FE03F00
1FF00FE01E00
1FF01FF01E00
0FF01FF01C00
0FF03FF03C00
0FF83FF83C00
07F83FF83800
07F87BFC3800
07FC7BFC7800
03FCF3FC7000
03FCF1FE7000
03FEE1FEF000
01FFE1FEE000
01FFC0FFE000
00FFC0FFE000
00FFC07FC000
00FF807FC000
007F807FC000
007F003F8000
007F003F8000
003E001F8000
003E001F0000
002000080000
ENDCHAR
STARTCHAR 0078
ENCODING 120
SWIDTH 558 0
DWIDTH 31 0
BBX 28 26 2 0
BITMAP
F03E7060
FFFE7FE0
FFFE7FE0
FFFE3FE0
3FF81F80
1FF81F00
0FFC3E00
07FC3C00
03FE7C00
03FF7800
01FFF000
00FFF000
00FFE000
007FE000
00FFF000
01FFF800
01EFF800
03E7FC00
07C7FE00
0F83FE00
0F83FF00
1F81FF80
7F83FFE0
FFC7FFF0
FFC7FFF0
FFC7FFF0
ENDCHAR
STARTCHAR 0079
ENCODING 121
SWIDTH 558 0
DWIDTH 31 0
BBX 29 40 1 -14
BITMAP
F83F3C38
FFFF1FF8
FFFE1FF8
FFFE1FF8
3FF807E0
1FF003C0
1FF003C0
0FF80780
0FF80780
07FC0780
07FC0F00
03FE0F00
03FE0E00
01FE1E00
01FF1C00
00FF3C00
00FFBC00
007FB800
007FF800
003FF000
003FF000
003FE000
001FE000
001FE000
000FC000
000FC000
00078000
00078000
00078000
000F0000
000F0000
001E0000
003E0000
7FFC0000
7FFC0000
7FF80000
7FF00000
7FF00000
3FE00000
0F000000
ENDCHAR
STARTCHAR 007A
ENCODING 122
SWIDTH 504 0
DWIDTH 28 0
BBX 23 26 3 0
BITMAP
FF01FC
FFFFFC
FFFFFE
FFFFFE
FE07FC
FC0FF8
F81FF8
F81FF0
F83FE0
107FE0
00FFC0
00FF80
01FF00
03FF00
03FE00
07FC00
0FFC18
1FF81E
1FF01E
3FF03E
7FE03E
7FC03E
FF81FE
FFFFFE
FFFFFE
FFFFFE
ENDCHAR
STARTCHAR 007B
ENCODING 123
SWIDTH 360 0
DWIDTH 20 0
BBX 17 56 2 -14
BITMAP
000F00
003F00
00FE00
01FC00
01F800
03F000
03F000
07F000
07F000
07F000
07F000
07F000
07F000
07F000
07F000
07F000
07F000
03F800
03F800
03F800
07F800
07F800
07F000
0FF000
1FE000
3FC000
FF0000
FC0000
FF8000
3FC000
1FE000
0FF000
07F000
07F800
07F800
07F800
07F800
07F800
07F800
07F000
07F000
07F000
07F000
07F000
07F000
07F000
07F000
07F000
03F000
03F000
03F800
01F800
00FE00
007F80
003F80
000700
ENDCHAR
STARTCHAR 007C
ENCODING 124
SWIDTH 180 0
DWIDTH 10 0
BBX 4 54 3 -14
BITMAP
30
F0
F0
F0
F0
F0
F0
F0
F0
F0
F0
F0
F0
F0
F0
F0
F0
F0
F0
F0
F0
F0
F0
F0
F0
F0
F0
F0
F0
F0
F0
F0
F0
F0
F0
F0
F0
F0
F0
F0
F0
F0
F0
F0
F0
F0
F0
F0
F0
F0
F0
F0
F0
C0
ENDCHAR
STARTCHAR 007D
ENCODING 125
SWIDTH 360 0
DWIDTH 20 0
BBX 17 56 2 -14
BITMAP
780000
7E0000
3F0000
1FC000
0FC000
07E000
07E000
07F000
07F000
07F000
07F000
07F000
07F000
07F000
07F000
07F000
0FE000
0FE000
0FE000
0FE000
0FF000
0FF000
07F000
07F800
03FC00
01FE00
007F80
001F80
00FF80
01FE00
03FC00
07F800
07F000
0FF000
0FF000
0FF000
0FF000
0FF000
0FF000
0FF000
07F000
07F000
07F000
07F000
07F000
07F000
07F000
07F000
07E000
07E000
0FE000
0FC000
3F8000
FF0000
FC0000
F00000
ENDCHAR
STARTCHAR 007E
ENCODING 126
SWIDTH 540 0
DWIDTH 30 0
BBX 25 9 3 10
BITMAP
01000000
0FE00300
1FF80380
3FFE0F80
7FFFFF00
F87FFE00
F00FFE00
E007F800
C000F000
ENDCHAR
STARTCHAR 00A0
ENCODING 160
SWIDTH 198 0
DWIDTH 11 0
BBX 0 0 0 0
BITMAP
ENDCHAR
STARTCHAR 00A1
ENCODING 161
SWIDTH 396 0
DWIDTH 22 0
BBX 9 40 7 -14
BITMAP
3E00
7F00
FF80
FF80
FF80
FF80
FF00
7F00
1C00
0000
0000
0000
0000
0000
3C00
3E00
3E00
3E00
3E00
3E00
3E00
3E00
3E00
7E00
7E00
7E00
7F00
7F00
7F00
7F00
7F00
7F00
7F00
7F00
FF80
FF80
FF80
FF80
FE00
F000
ENDCHAR
STARTCHAR 00A2
ENCODING 162
SWIDTH 450 0
DWIDTH 25 0
BBX 23 42 2 -8
BITMAP
001C00
001E00
001E00
001E00
001E00
001E00
001E00
001E00
007FC0
03FFF0
07FFFC
0FFFFC
1FDFFC
3F9EFC
3F9E7C
7F1E7C
7F1E7C
FF1E78
FF1E00
FF1E00
FF1E00
FF1E00
FF1E00
FF1E00
FF1E00
FF9E00
7F9E00
7FDE00
3FFE04
3FFE1C
1FFFFE
0FFFFC
07FFF8
01FFE0
001E00
001E00
001E00
001E00
001E00
001E00
001E00
000E00
ENDCHAR
STARTCHAR 00A3
ENCODING 163
SWIDTH 576 0
DWIDTH 32 0
BBX 28 39 3 -1
BITMAP
003FF800
01FFFF00
03FFFF00
0FFFFF00
0FE07F00
1FE03F00
3FC03F00
3FC01F00
3FC01F00
3FC01F00
3FC00000
3FE00000
3FE00000
3FF00000
3FF00000
1FF80000
1FF80000
1FFC0000
7FFFF000
FFFFF000
FFFFF000
FFFFF000
07FC0000
07F80000
07F80000
07F00000
07F00000
07E00000
07C3C000
07DFF1C0
0FFFFFF0
0FFFFFE0
1FFFFFC0
3FFFFF80
7FFFFF80
FE0FFF00
F001FF00
E0007E00
00000200
ENDCHAR
STARTCHAR 00A4
ENCODING 164
SWIDTH 540 0
DWIDTH 30 0
BBX 24 22 3 3
BITMAP
300006
F87F0F
7DFFDE
3FFFFC
1F81F8
0F00F8
1E0078
1E003C
3C003C
3C003C
3C001C
3C001C
3C003C
1E003C
1E003C
0F0078
0F80F8
0FE3F8
1FFFFC
3CFF9E
781C0F
700007
ENDCHAR
STARTCHAR 00A5
ENCODING 165
SWIDTH 630 0
DWIDTH 35 0
BBX 33 38 1 0
BITMAP
FFFF01FF80
FFFF01FF80
FFFF01FF80
FFFF01FF80
3FFC007E00
1FFC007C00
0FFC007800
0FFC007800
07FE007000
07FE00F000
03FE00E000
03FF01E000
01FF01C000
01FF83C000
00FF838000
00FFC78000
007FC78000
07FFE7F800
07FFEFF800
07FFEFF800
001FFE0000
001FFC0000
000FFC0000
000FF80000
07FFFFF800
0FFFFFF800
0FFFFFF800
0007F80000
0007F80000
0007F80000
0007F80000
0007F80000
000FF80000
000FFC0000
007FFF0000
01FFFFC000
01FFFFC000
01FFFFC000
ENDCHAR
STARTCHAR 00A6
ENCODING 166
SWIDTH 180 0
DWIDTH 10 0
BBX 4 54 3 -14
BITMAP
30
F0
F0
F0
F0
F0
F0
F0
F0
F0
F0
F0
F0
F0
F0
F0
F0
F0
F0
F0
F0
F0
00
00
00
00
00
00
00
00
70
F0
F0
F0
F0
F0
F0
F0
F0
F0
F0
F0
F0
F0
F0
F0
F0
F0
F0
F0
F0
F0
F0
C0
ENDCHAR
STARTCHAR 00A7
ENCODING 167
SWIDTH 558 0
DWIDTH 31 0
BBX 26 53 2 -13
BITMAP
001F0000
00FFF000
01FFFC00
07FFFC00
07E0FC00
0FC07C00
0F807C00
1F807C00
1F803C00
1FC03000
1FC00000
1FF00000
0FF80000
0FFE0000
0FFF8000
07FFE000
03FFF800
01FFFC00
03FFFF00
0FFFFF00
1FDFFF80
3F07FFC0
3E01FFC0
7E007FC0
7E003FC0
7E001FC0
7E000FC0
FE000FC0
7F000FC0
7F800FC0
7FE00FC0
7FF01F80
3FFC3F00
3FFFFE00
1FFFFC00
0FFFF000
07FFF000
03FFF800
00FFFC00
003FFC00
000FFE00
0003FE00
0001FE00
0300FE00
0F007E00
07807E00
07803E00
07807E00
07C07E00
07E0FC00
07FFF800
07FFF000
01FFC000
ENDCHAR
STARTCHAR 00A8
ENCODING 168
SWIDTH 288 0
DWIDTH 16 0
BBX 21 8 -2 29
BITMAP
180180
7E07F0
FF07F0
FF0FF8
FF0FF8
FF0FF8
FF07F0
7E03E0
ENDCHAR
STARTCHAR 00A9
ENCODING 169
SWIDTH 792 0
DWIDTH 44 0
BBX 39 38 3 -6
BITMAP
0001FE0000
000FFFE000
003FFFF800
00FF01FC00
01F8003F00
03E0000F80
07C00007C0
0F00FF81E0
0F07FFE1E0
1E0FFFF0F0
3C1FC3F070
383F81F038
783F00F038
707F00F03C
707E00F01C
707E00E01C
F0FE00001C
F0FE00001C
E0FE00001E
E0FE00001E
E0FE00001C
F0FE00001C
70FE00001C
707F00001C
707F00001C
787F80003C
383F803038
3C1FE0F078
1C1FFFF070
1E0FFFC0F0
0F03FF81E0
07807803C0
03C0000F80
01F0001F00
00FE00FE00
007FFFFC00
001FFFF000
0003FF8000
ENDCHAR
STARTCHAR 00AA
ENCODING 170
SWIDTH 432 0
DWIDTH 24 0
BBX 20 20 2 20
BITMAP
03F800
1FFE00
3FFF00
3E3F80
3C1F80
3C1F80
3C1FC0
001FC0
01FFC0
0FFFC0
1FDFC0
3F1FC0
7E1FC0
FE1FC0
FE3FC0
FE3FC0
FFFFF0
7FEFF0
7FCFF0
1F8E00
ENDCHAR
STARTCHAR 00AB
ENCODING 171
SWIDTH 504 0
DWIDTH 28 0
BBX 22 19 3 4
BITMAP
00E030
01F07C
03E0F8
07C0F0
0F81F0
1F03E0
3F07E0
7E0FC0
7E0F80
FE1FC0
FF1FC0
7F0FE0
1F87E0
0F83F0
07C1F8
03E0F8
03F078
01E038
00C020
ENDCHAR
STARTCHAR 00AC
ENCODING 172
SWIDTH 540 0
DWIDTH 30 0
BBX 25 14 3 6
BITMAP
FFFFFF80
FFFFFF80
FFFFFF80
FFFFFF80
00000780
00000780
00000780
00000780
00000780
00000780
00000780
00000780
00000780
00000700
ENDCHAR
STARTCHAR 00AD
ENCODING 173
SWIDTH 414 0
DWIDTH 23 0
BBX 17 5 3 12
BITMAP
7FFF80
7FFF80
7FFF80
FFFF80
FFFF00
ENDCHAR
STARTCHAR 00AE
ENCODING 174
SWIDTH 522 0
DWIDTH 29 0
BBX 23 23 3 21
BITMAP
00FE00
03FFC0
07FFE0
1F00F0
1C0078
38003C
70FE1C
70E70E
60E30E
E0E30E
E0E306
E0E706
E0FE06
E0EE06
60E70E
70E70E
70E39C
38003C
1C0078
1F00F0
07FFE0
03FFC0
00FE00
ENDCHAR
STARTCHAR 00AF
ENCODING 175
SWIDTH 288 0
DWIDTH 16 0
BBX 21 3 -2 32
BITMAP
FFFFF8
FFFFF8
FFFFF0
ENDCHAR
STARTCHAR 00B0
ENCODING 176
SWIDTH 396 0
DWIDTH 22 0
BBX 16 15 3 24
BITMAP
03E0
1FF8
3FFE
7C3E
7C1F
781F
F81F
F81F
FC1F
7C1F
7C1F
7E3E
3FFE
1FF8
03E0
ENDCHAR
STARTCHAR 00B1
ENCODING 177
SWIDTH 540 0
DWIDTH 30 0
BBX 24 26 3 2
BITMAP
000C00
003C00
003C00
003C00
003C00
003C00
003C00
003C00
003C00
3FFFFE
3FFFFE
3FFFFC
003C00
003C00
003C00
003C00
003C00
003C00
003C00
003C00
000000
000000
FFFFFF
FFFFFF
FFFFFF
FFFFFF
ENDCHAR
STARTCHAR 00B2
ENCODING 178
SWIDTH 378 0
DWIDTH 21 0
BBX 17 20 2 23
BITMAP
018000
3FFC00
7FFE00
7EFE00
787F00
787F00
787F00
787F00
087E00
007E00
00FC00
01F800
03E000
07C380
0F8780
1FFF80
3FFF80
FFFF80
FFFF80
FFFF80
ENDCHAR
STARTCHAR 00B3
ENCODING 179
SWIDTH 378 0
DWIDTH 21 0
BBX 17 26 2 16
BITMAP
7FFF00
7FFF00
7FFF00
7FFE00
7FFC00
787800
70F000
00F000
01E000
03C000
07F000
07FC00
07FF00
03FF00
003F80
001F80
001F80
001F80
001F80
001F80
003F00
007F00
61FE00
FFFC00
FFF800
3FC000
ENDCHAR
STARTCHAR 00B4
ENCODING 180
SWIDTH 288 0
DWIDTH 16 0
BBX 11 11 3 29
BITMAP
0FE0
1FC0
1F80
3F00
3F00
3E00
7C00
7800
F800
F000
3000
ENDCHAR
STARTCHAR 00B5
ENCODING 181
SWIDTH 630 0
DWIDTH 35 0
BBX 32 40 2 -14
BITMAP
00400060
0FE01FF0
FFE0FFF0
FFE0FFF0
FFE0FFF0
3FE01FF0
1FE00FF0
1FE00FF0
1FE00FF0
1FE00FF0
1FE00FF0
1FE00FF0
1FE00FF0
1FE00FF0
1FE00FF0
1FE00FF0
1FE00FF0
1FE00FF0
1FF01FF0
1FF01FF0
1FF03FF8
1FF87FFF
1FFFF7FF
1FFFF7FF
1FFFC7FE
1FFF03C0
1FC00000
1FC00000
1FC00000
1FC00000
1FC00000
1FC00000
1FC00000
1FC00000
1FE00000
1FE00000
1FC00000
1F000000
1C000000
08000000
ENDCHAR
STARTCHAR 00B6
ENCODING 182
SWIDTH 576 0
DWIDTH 32 0
BBX 29 52 2 -14
BITMAP
001FFFF8
01FFFFF8
07FFFFF8
1FFDFFF8
3FE1E3C0
7F81E3C0
7F81E380
7F01E380
FF01E380
FF01E380
FF01E380
FF01E380
FF01E380
FF81E380
FF81E380
7FC1E380
7FC1E380
3FF1E380
1FFFE380
0FFFE380
01FFE380
0001E380
0001E380
0001E380
0001E380
0001E380
0001E380
0001E380
0001E380
0001E380
0001E380
0001E380
0001E380
0001E380
0001E380
0001E380
0001E380
0001E380
0001E380
0001E380
0001E380
0001E380
0001E380
0001E380
0001E380
0001E380
0001E380
0001E380
0001E380
0001E380
0001E380
0001C300
ENDCHAR
STARTCHAR 00B7
ENCODING 183
SWIDTH 270 0
DWIDTH 15 0
BBX 9 9 3 10
BITMAP
1C00
3F00
7F80
FF80
FF80
FF80
7F80
7F00
1E00
ENDCHAR
STARTCHAR 00B8
ENCODING 184
SWIDTH 288 0
DWIDTH 16 0
BBX 9 14 4 -13
BITMAP
1C00
3800
7800
7000
FC00
FF00
FF00
1F80
0F80
0F80
0F00
1F00
FE00
F800
ENDCHAR
STARTCHAR 00B9
ENCODING 185
SWIDTH 324 0
DWIDTH 18 0
BBX 13 19 3 23
BITMAP
FFF8
FFF0
FFF0
3FE0
1FC0
1F80
1F80
1F80
1F80
1F80
1F80
1F80
1F80
1F80
1FC0
3FC0
FFF0
FFF0
FFF8
ENDCHAR
STARTCHAR 00BA
ENCODING 186
SWIDTH 432 0
DWIDTH 24 0
BBX 20 20 2 20
BITMAP
01F800
07FF00
1FFF80
3F1FC0
7E0FE0
7E07E0
7E07F0
FE07F0
FE07F0
FE03F0
FE03F0
FE03F0
FE03F0
FE07F0
7E07E0
7F07E0
3F8FC0
3FFF80
0FFF00
03FC00
ENDCHAR
STARTCHAR 00BB
ENCODING 187
SWIDTH 504 0
DWIDTH 28 0
BBX 22 19 3 4
BITMAP
101C00
F81E00
7C1F00
3E0FC0
3F07E0
1F87F0
1FC3F8
0FE1FC
0FE1FC
07E0FC
0FE1FC
0FC1F8
1F83F0
1F07E0
3E07C0
7C0F80
7C1F00
381E00
100C00
ENDCHAR
STARTCHAR 00BC
ENCODING 188
SWIDTH 864 0
DWIDTH 48 0
BBX 45 40 2 0
BITMAP
00F000000C00
7FF000000F00
FFF000001E00
FFF000003E00
FFF000007C00
07F000007800
03F00000F800
03F00001F000
03F00003E000
03F00003C000
03F00007C000
03F0000F8000
03F0001F0000
03F0001E0000
03F0003E0000
03F0007C0F80
03F000781F80
03F000F03F80
03F001F03F80
07F803E07F80
07F803C0FF80
3FFE07C1FF80
7FFF8F81DF80
7FFF9F039F80
40009E079F80
00003E0F1F80
00007C1E1F80
0000F81C1F80
0000F03C1F80
0001F07FFFF8
0003E0FFFFF8
0003C07FFFF0
0007807FFFF0
000F807FFFF0
001F00001F80
001E00003F80
003E00007FC0
007C0001FFF0
00F80001FFF0
00700003FFF0
ENDCHAR
STARTCHAR 00BD
ENCODING 189
SWIDTH 972 0
DWIDTH 54 0
BBX 51 40 2 0
BITMAP
00F000000C0000
7FF000000F0000
FFF000001E0000
FFF000003E0000
FFF000007C0000
07F00000780000
03F00000F80000
03F00001F00000
03F00003E00000
03F00003C00000
03F00007C00000
03F0000F800000
03F0001F000000
03F0001E000000
03F0003E000000
03F0007C0FFC00
03F000787FFF00
03F000F0FFFF80
03F001F0FFFFC0
07F803E0FC3FC0
07F803C0F83FC0
3FFE07C0F83FC0
7FFF8F80F83FC0
7FFF9F00F83FC0
40009E00183F80
00003E00007F00
00007C00007F00
0000F80000FE00
0000F00001F800
0001F00003F000
0003E00007E100
0003C0000FC1E0
000780001F81E0
000F80003FFFE0
001F00007FFFE0
001E0000FFFFE0
003E0000FFFFE0
007C0000FFFFE0
00F80000FFFFE0
00700000FFFFE0
ENDCHAR
STARTCHAR 00BE
ENCODING 190
SWIDTH 846 0
DWIDTH 47 0
BBX 44 40 2 -1
BITMAP
FFFF00000800
FFFF80001E00
FFFF00003E00
FFFF00007C00
FFFE00007800
FFFC0000F000
F0780001F000
E0F00003E000
01F00003C000
03E00007C000
07F0000F8000
0FFE001F0000
0FFF001E0000
07FF803E0000
00FF807C0000
003F80781F00
003F80F03F00
003F81F03F00
003F83E07F00
003F83C0FF00
807F0781FF00
F3FF0F81FF00
FFFE1F03BF00
FFF81E073F00
1F803E0F3F00
00007C1E3F00
0000F81C3F00
0000F03C3F00
0001F0783F00
0003E0FFFFF0
0007C0FFFFF0
000780FFFFE0
000F80FFFFE0
001F007FFFE0
001E00003F00
003C00003F00
007C00007F80
00F80003FFE0
00F00003FFE0
00F00003FFE0
ENDCHAR
STARTCHAR 00BF
ENCODING 191
SWIDTH 522 0
DWIDTH 29 0
BBX 19 40 4 -14
BITMAP
00F000
03F800
07FC00
07FC00
07FE00
07FE00
07FC00
03FC00
01F800
000000
000000
000000
007000
00F000
00F800
00F800
00FC00
00FC00
00FC00
00FC00
00FC00
01FC00
03FC00
03F800
07F000
0FF000
1FE000
3FC000
7F8000
7F0000
FF01E0
FF01E0
FF01E0
FF03E0
FF03E0
FF03E0
FF87E0
7FFFE0
3FFFC0
0FFF00
ENDCHAR
STARTCHAR 00C0
ENCODING 192
SWIDTH 702 0
DWIDTH 39 0
BBX 38 49 1 0
BITMAP
0003C00000
001FC00000
000FC00000
0007E00000
0003E00000
0001F00000
0000F00000
0000F80000
0000000000
0000000000
0000000000
0000F00000
0000F00000
0000F80000
0001F80000
0001FC0000
0003FC0000
0003FE0000
0003FE0000
0007FF0000
0007FF0000
000FFF0000
000EFF8000
000EFF8000
001E7FC000
001C7FC000
003C3FE000
00383FE000
00381FF000
00781FF000
00701FF000
00F00FF800
00F00FF800
00E007FC00
01E007FC00
01FFFFFE00
03FFFFFE00
03FFFFFF00
07FF81FF00
078001FF00
070000FF80
0F0000FF80
0F0000FFC0
1F00007FC0
1F00007FE0
7F8001FFF0
FFE003FFF8
FFE003FFF8
FFE003FFFC
ENDCHAR
STARTCHAR 00C1
ENCODING 193
SWIDTH 702 0
DWIDTH 39 0
BBX 38 49 1 0
BITMAP
00001FC000
00003F8000
00003F0000
00007E0000
00007C0000
0000F80000
0000F80000
0001F00000
0000000000
0000000000
0000000000
0000F00000
0000F00000
0000F80000
0001F80000
0001FC0000
0003FC0000
0003FE0000
0003FE0000
0007FF0000
0007FF0000
000FFF0000
000EFF8000
000EFF8000
001E7FC000
001C7FC000
003C3FE000
00383FE000
00381FF000
00781FF000
00701FF000
00F00FF800
00F00FF800
00E007FC00
01E007FC00
01FFFFFE00
03FFFFFE00
03FFFFFF00
07FF81FF00
078001FF00
070000FF80
0F0000FF80
0F0000FFC0
1F00007FC0
1F00007FE0
7F8001FFF0
FFE003FFF8
FFE003FFF8
FFE003FFFC
ENDCHAR
STARTCHAR 00C2
ENCODING 194
SWIDTH 702 0
DWIDTH 39 0
BBX 38 49 1 0
BITMAP
0000F80000
0001FC0000
0003FE0000
000FFF0000
001FFF8000
007F9FE000
007E0FF000
007803E000
0000000000
0000000000
0000000000
0000F00000
0000F00000
0000F80000
0001F80000
0001FC0000
0003FC0000
0003FE0000
0003FE0000
0007FF0000
0007FF0000
000FFF0000
000EFF8000
000EFF8000
001E7FC000
001C7FC000
003C3FE000
00383FE000
00381FF000
00781FF000
00701FF000
00F00FF800
00F00FF800
00E007FC00
01E007FC00
01FFFFFE00
03FFFFFE00
03FFFFFF00
07FF81FF00
078001FF00
070000FF80
0F0000FF80
0F0000FFC0
1F00007FC0
1F00007FE0
7F8001FFF0
FFE003FFF8
FFE003FFF8
FFE003FFFC
ENDCHAR
STARTCHAR 00C3
ENCODING 195
SWIDTH 702 0
DWIDTH 39 0
BBX 38 48 1 0
BITMAP
000FC02000
003FF0F800
007FFFF000
00FFFFE000
00FBFFC000
00C07F8000
00001E0000
0000000000
0000000000
0000000000
0000F00000
0000F00000
0000F80000
0001F80000
0001FC0000
0003FC0000
0003FE0000
0003FE0000
0007FF0000
0007FF0000
000FFF0000
000EFF8000
000EFF8000
001E7FC000
001C7FC000
003C3FE000
00383FE000
00381FF000
00781FF000
00701FF000
00F00FF800
00F00FF800
00E007FC00
01E007FC00
01FFFFFE00
03FFFFFE00
03FFFFFF00
07FF81FF00
078001FF00
070000FF80
0F0000FF80
0F0000FFC0
1F00007FC0
1F00007FE0
7F8001FFF0
FFE003FFF8
FFE003FFF8
FFE003FFFC
ENDCHAR
STARTCHAR 00C4
ENCODING 196
SWIDTH 702 0
DWIDTH 39 0
BBX 38 48 1 0
BITMAP
007C03E000
00FE07F000
00FF0FF800
00FF0FF800
00FF0FF800
00FF0FF000
007E07F000
001801C000
0000000000
0000000000
0000F00000
0000F00000
0000F80000
0001F80000
0001FC0000
0003FC0000
0003FE0000
0003FE0000
0007FF0000
0007FF0000
000FFF0000
000EFF8000
000EFF8000
001E7FC000
001C7FC000
003C3FE000
00383FE000
00381FF000
00781FF000
00701FF000
00F00FF800
00F00FF800
00E007FC00
01E007FC00
01FFFFFE00
03FFFFFE00
03FFFFFF00
07FF81FF00
078001FF00
070000FF80
0F0000FF80
0F0000FFC0
1F00007FC0
1F00007FE0
7F8001FFF0
FFE003FFF8
FFE003FFF8
FFE003FFFC
ENDCHAR
STARTCHAR 00C5
ENCODING 197
SWIDTH 702 0
DWIDTH 39 0
BBX 38 49 1 0
BITMAP
0001FC0000
0007FF0000
000F0F0000
000F0F0000
000F0F0000
000F0F0000
000F8F0000
0007FE0000
0001F80000
0000000000
0000000000
0000F00000
0000F00000
0000F80000
0001F80000
0001FC0000
0003FC0000
0003FE0000
0003FE0000
0007FF0000
0007FF0000
000FFF0000
000EFF8000
000EFF8000
001E7FC000
001C7FC000
003C3FE000
00383FE000
00381FF000
00781FF000
00701FF000
00F00FF800
00F00FF800
00E007FC00
01E007FC00
01FFFFFE00
03FFFFFE00
03FFFFFF00
07FF81FF00
078001FF00
070000FF80
0F0000FF80
0F0000FFC0
1F00007FC0
1F00007FE0
7F8001FFF0
FFE003FFF8
FFE003FFF8
FFE003FFFC
ENDCHAR
STARTCHAR 00C6
ENCODING 198
SWIDTH 954 0
DWIDTH 53 0
BBX 51 38 1 0
BITMAP
0000FFFFFFFF00
0000FFFFFFFF00
0000FFFFFFFF00
0000FFFFFFFF00
00001FFF807F00
00001F7F803F00
00001E7F801F00
00001E7F800F00
00003C7F800F00
00003C7F800F80
0000787F800000
0000787F800000
0000F07F800000
0001F07F800000
0001E07F81E000
0003C07F81E000
0003C07F81E000
0007807F81E000
0007807F87E000
000FFFFFFFE000
001FFFFFFFE000
001FFFFFFFE000
003C007F83E000
003C007F81E000
0078007F81E000
0078007F81E000
00F0007F806000
01E0007F800000
01E0007F8003C0
03C0007F8003E0
03C0007F8007C0
07C000FF8007C0
0F8000FF800FC0
1FC000FFC01FC0
3FE003FFF1FF80
FFF007FFFFFF80
FFF007FFFFFF80
FFF007FFFFFF80
ENDCHAR
STARTCHAR 00C7
ENCODING 199
SWIDTH 630 0
DWIDTH 35 0
BBX 32 51 2 -13
BITMAP
0003FF00
001FFFF0
007FFFFC
01FF8FFE
03FC01FE
07F800FE
0FF0007E
1FE0003E
1FE0003C
3FC0003C
3FC0003C
7F80003C
7F800000
7F800000
FF800000
FF800000
FF800000
FF800000
FF800000
FF800000
FF800000
FF800000
FF800000
FF800000
7FC00000
7FC00000
7FC00000
7FE00000
3FE00000
3FF00000
1FF80000
0FFC0002
07FE000E
03FF803F
01FFFFFE
00FFFFF8
003FFFF0
000FFF80
0000F000
0001E000
0001C000
0003F800
0003FC00
0001FC00
00007E00
00003E00
00003E00
00003E00
00007C00
0003F800
0003E000
ENDCHAR
STARTCHAR 00C8
ENCODING 200
SWIDTH 612 0
DWIDTH 34 0
BBX 31 49 2 0
BITMAP
003C0000
00FE0000
007E0000
003F0000
001F0000
001F8000
000F8000
0007C000
00000000
00000000
00000000
FFFFFFF0
FFFFFFF0
FFFFFFF0
7FFFFFF0
1FF807F0
0FF801F0
0FF800F8
0FF800F8
0FF80078
0FF80078
0FF80040
0FF80000
0FF80000
0FF80F00
0FF80F00
0FF81E00
0FF81E00
0FF9FE00
0FFFFE00
0FFFFE00
0FFFFE00
0FF83E00
0FF81E00
0FF80F00
0FF80F00
0FF80100
0FF80000
0FF80010
0FF8001E
0FF8003E
0FF8003E
0FF8007C
0FF800FC
0FFC01FC
3FFF9FFC
7FFFFFFC
FFFFFFFC
FFFFFFFC
ENDCHAR
STARTCHAR 00C9
ENCODING 201
SWIDTH 612 0
DWIDTH 34 0
BBX 31 49 2 0
BITMAP
0001FC00
0001F800
0003F000
0003F000
0007E000
0007C000
000F8000
000F0000
00000000
00000000
00000000
FFFFFFF0
FFFFFFF0
FFFFFFF0
7FFFFFF0
1FF807F0
0FF801F0
0FF800F8
0FF800F8
0FF80078
0FF80078
0FF80040
0FF80000
0FF80000
0FF80F00
0FF80F00
0FF81E00
0FF81E00
0FF9FE00
0FFFFE00
0FFFFE00
0FFFFE00
0FF83E00
0FF81E00
0FF80F00
0FF80F00
0FF80100
0FF80000
0FF80010
0FF8001E
0FF8003E
0FF8003E
0FF8007C
0FF800FC
0FFC01FC
3FFF9FFC
7FFFFFFC
FFFFFFFC
FFFFFFFC
ENDCHAR
STARTCHAR 00CA
ENCODING 202
SWIDTH 612 0
DWIDTH 34 0
BBX 31 49 2 0
BITMAP
00078000
000FC000
003FF000
007FF800
00FFFC00
03F9FE00
07E07F00
03801E00
01000000
00000000
00000000
FFFFFFF0
FFFFFFF0
FFFFFFF0
7FFFFFF0
1FF807F0
0FF801F0
0FF800F8
0FF800F8
0FF80078
0FF80078
0FF80040
0FF80000
0FF80000
0FF80F00
0FF80F00
0FF81E00
0FF81E00
0FF9FE00
0FFFFE00
0FFFFE00
0FFFFE00
0FF83E00
0FF81E00
0FF80F00
0FF80F00
0FF80100
0FF80000
0FF80010
0FF8001E
0FF8003E
0FF8003E
0FF8007C
0FF800FC
0FFC01FC
3FFF9FFC
7FFFFFFC
FFFFFFFC
FFFFFFFC
ENDCHAR
STARTCHAR 00CB
ENCODING 203
SWIDTH 612 0
DWIDTH 34 0
BBX 31 48 2 0
BITMAP
03E03E00
07F07F80
0FF87F80
0FF87F80
0FF87F80
07F07F80
07F03F00
01C01C00
00000000
00000000
FFFFFFF0
FFFFFFF0
FFFFFFF0
7FFFFFF0
1FF807F0
0FF801F0
0FF800F8
0FF800F8
0FF80078
0FF80078
0FF80040
0FF80000
0FF80000
0FF80F00
0FF80F00
0FF81E00
0FF81E00
0FF9FE00
0FFFFE00
0FFFFE00
0FFFFE00
0FF83E00
0FF81E00
0FF80F00
0FF80F00
0FF80100
0FF80000
0FF80010
0FF8001E
0FF8003E
0FF8003E
0FF8007C
0FF800FC
0FFC01FC
3FFF9FFC
7FFFFFFC
FFFFFFFC
FFFFFFFC
ENDCHAR
STARTCHAR 00CC
ENCODING 204
SWIDTH 378 0
DWIDTH 21 0
BBX 17 49 2 0
BITMAP
0F0000
3F8000
1F8000
0F8000
0FC000
07C000
03E000
01F000
000000
000000
000000
FFFF80
FFFF80
FFFF80
7FFF80
1FFC00
0FF800
0FF800
0FF800
0FF800
0FF800
0FF800
0FF800
0FF800
0FF800
0FF800
0FF800
0FF800
0FF800
0FF800
0FF800
0FF800
0FF800
0FF800
0FF800
0FF800
0FF800
0FF800
0FF800
0FF800
0FF800
0FF800
0FF800
0FF800
0FF800
3FFE00
7FFF80
FFFF80
FFFF80
ENDCHAR
STARTCHAR 00CD
ENCODING 205
SWIDTH 378 0
DWIDTH 21 0
BBX 17 49 2 0
BITMAP
007F00
00FE00
00FC00
00F800
01F800
01F000
03E000
03C000
000000
000000
000000
FFFF80
FFFF80
FFFF80
7FFF80
1FFC00
0FF800
0FF800
0FF800
0FF800
0FF800
0FF800
0FF800
0FF800
0FF800
0FF800
0FF800
0FF800
0FF800
0FF800
0FF800
0FF800
0FF800
0FF800
0FF800
0FF800
0FF800
0FF800
0FF800
0FF800
0FF800
0FF800
0FF800
0FF800
0FF800
3FFE00
7FFF80
FFFF80
FFFF80
ENDCHAR
STARTCHAR 00CE
ENCODING 206
SWIDTH 378 0
DWIDTH 21 0
BBX 17 49 2 0
BITMAP
00E000
03F000
07F000
0FF800
1FFC00
3FFE00
7E7F00
F83F80
700F00
000000
000000
FFFF80
FFFF80
FFFF80
7FFF80
1FFC00
0FF800
0FF800
0FF800
0FF800
0FF800
0FF800
0FF800
0FF800
0FF800
0FF800
0FF800
0FF800
0FF800
0FF800
0FF800
0FF800
0FF800
0FF800
0FF800
0FF800
0FF800
0FF800
0FF800
0FF800
0FF800
0FF800
0FF800
0FF800
0FF800
3FFE00
7FFF80
FFFF80
FFFF80
ENDCHAR
STARTCHAR 00CF
ENCODING 207
SWIDTH 378 0
DWIDTH 21 0
BBX 19 48 1 0
BITMAP
080300
7E0FC0
FF1FE0
FF1FE0
FF1FE0
FF1FE0
7F1FC0
3C0780
000000
000000
7FFFC0
7FFFC0
7FFFC0
3FFFC0
0FFE00
07FC00
07FC00
07FC00
07FC00
07FC00
07FC00
07FC00
07FC00
07FC00
07FC00
07FC00
07FC00
07FC00
07FC00
07FC00
07FC00
07FC00
07FC00
07FC00
07FC00
07FC00
07FC00
07FC00
07FC00
07FC00
07FC00
07FC00
07FC00
07FC00
1FFF00
3FFFC0
7FFFC0
7FFFC0
ENDCHAR
STARTCHAR 00D0
ENCODING 208
SWIDTH 720 0
DWIDTH 40 0
BBX 37 38 2 0
BITMAP
FFFFF00000
FFFFFFC000
FFFFFFF800
7FFFFFFC00
1FF807FF00
0FF801FF80
0FF800FFC0
0FF8007FC0
0FF8003FE0
0FF8003FE0
0FF8001FF0
0FF8001FF0
0FF8001FF0
0FF8000FF0
0FF8000FF8
0FF8000FF8
0FF8000FF8
FFFFF00FF8
FFFFF00FF8
FFFFF00FF8
FFFFF00FF8
0FF8000FF8
0FF8000FF8
0FF8000FF0
0FF8000FF0
0FF8000FF0
0FF8001FF0
0FF8001FE0
0FF8001FE0
0FF8003FC0
0FF8003FC0
0FF8007F80
0FF800FF00
0FFC03FE00
3FFF9FF800
7FFFFFF000
FFFFFF8000
FFFFF80000
ENDCHAR
STARTCHAR 00D1
ENCODING 209
SWIDTH 720 0
DWIDTH 40 0
BBX 36 48 2 0
BITMAP
000FE02000
003FF87800
007FFFF000
00FFFFF000
00FBFFE000
00607FC000
00401F0000
0000000000
0000000000
0000000000
FFE000FFF0
FFF000FFF0
FFF0007FF0
FFF8007FF0
1FFC000FC0
0FFE000F80
0FFE000780
0FFF000780
0FFF800780
0FFFC00780
0FFFC00780
0F7FE00780
0F7FF00780
0F3FF80780
0F1FF80780
0F0FFC0780
0F0FFE0780
0F07FF0780
0F03FF0780
0F01FF8780
0F01FFC780
0F00FFE780
0F007FE780
0F003FF780
0F003FFF80
0F001FFF80
0F000FFF80
0F0007FF80
0F0007FF80
0F0003FF80
0F0001FF80
0F0000FF80
0F8000FF80
1F80007F80
7FE0003F80
FFF0001F80
FFF0001F80
FFF0000F80
ENDCHAR
STARTCHAR 00D2
ENCODING 210
SWIDTH 738 0
DWIDTH 41 0
BBX 38 50 2 -1
BITMAP
0003C00000
000FE00000
0007E00000
0003F00000
0001F00000
0001F80000
0000F80000
00007C0000
0000000000
0000000000
0000000000
0003FF0000
001FFFE000
007FFFF800
01FF9FFC00
03FC03FF00
07F801FF80
0FF000FFC0
1FE0007FC0
1FC0003FE0
3FC0003FE0
3FC0001FF0
7F80001FF0
7F80000FF8
7F80000FF8
FF80000FF8
FF80000FF8
FF800007F8
FF800007FC
FF800007FC
FF800007FC
FF800007F8
FF800007F8
FF800007F8
FF800007F8
7F80000FF8
7FC0000FF8
7FC0000FF0
7FC0000FF0
3FE0001FE0
3FE0001FE0
1FF0001FC0
0FF8003FC0
07FC007F80
07FE00FF00
01FF83FE00
00FFFFF800
003FFFF000
000FFF8000
0000300000
ENDCHAR
STARTCHAR 00D3
ENCODING 211
SWIDTH 738 0
DWIDTH 41 0
BBX 38 50 2 -1
BITMAP
00001FC000
00001F8000
00003F0000
00003F0000
00007E0000
00007C0000
0000F80000
0000F00000
0000000000
0000000000
0000000000
0003FF0000
001FFFE000
007FFFF800
01FF9FFC00
03FC03FF00
07F801FF80
0FF000FFC0
1FE0007FC0
1FC0003FE0
3FC0003FE0
3FC0001FF0
7F80001FF0
7F80000FF8
7F80000FF8
FF80000FF8
FF80000FF8
FF800007F8
FF800007FC
FF800007FC
FF800007FC
FF800007F8
FF800007F8
FF800007F8
FF800007F8
7F80000FF8
7FC0000FF8
7FC0000FF0
7FC0000FF0
3FE0001FE0
3FE0001FE0
1FF0001FC0
0FF8003FC0
07FC007F80
07FE00FF00
01FF83FE00
00FFFFF800
003FFFF000
000FFF8000
0000300000
ENDCHAR
STARTCHAR 00D4
ENCODING 212
SWIDTH 738 0
DWIDTH 41 0
BBX 38 50 2 -1
BITMAP
0000780000
0000FC0000
0003FF0000
0007FF8000
000FFFC000
003F9FE000
007E07F000
003801E000
0010000000
0000000000
0000000000
0003FF0000
001FFFE000
007FFFF800
01FF9FFC00
03FC03FF00
07F801FF80
0FF000FFC0
1FE0007FC0
1FC0003FE0
3FC0003FE0
3FC0001FF0
7F80001FF0
7F80000FF8
7F80000FF8
FF80000FF8
FF80000FF8
FF800007F8
FF800007FC
FF800007FC
FF800007FC
FF800007F8
FF800007F8
FF800007F8
FF800007F8
7F80000FF8
7FC0000FF8
7FC0000FF0
7FC0000FF0
3FE0001FE0
3FE0001FE0
1FF0001FC0
0FF8003FC0
07FC007F80
07FE00FF00
01FF83FE00
00FFFFF800
003FFFF000
000FFF8000
0000300000
ENDCHAR
STARTCHAR 00D5
ENCODING 213
SWIDTH 738 0
DWIDTH 41 0
BBX 38 49 2 -1
BITMAP
000FE03000
001FF87800
007FFFF800
007FFFF000
007FFFE000
00607FC000
00001F0000
0000000000
0000000000
0000000000
0003FF0000
001FFFE000
007FFFF800
01FF9FFC00
03FC03FF00
07F801FF80
0FF000FFC0
1FE0007FC0
1FC0003FE0
3FC0003FE0
3FC0001FF0
7F80001FF0
7F80000FF8
7F80000FF8
FF80000FF8
FF80000FF8
FF800007F8
FF800007FC
FF800007FC
FF800007FC
FF800007F8
FF800007F8
FF800007F8
FF800007F8
7F80000FF8
7FC0000FF8
7FC0000FF0
7FC0000FF0
3FE0001FE0
3FE0001FE0
1FF0001FC0
0FF8003FC0
07FC007F80
07FE00FF00
01FF83FE00
00FFFFF800
003FFFF000
000FFF8000
0000300000
ENDCHAR
STARTCHAR 00D6
ENCODING 214
SWIDTH 738 0
DWIDTH 41 0
BBX 38 49 2 -1
BITMAP
003E03E000
007F07F800
00FF87F800
00FF87F800
00FF87F800
007F07F800
007F03F000
001C01C000
0000000000
0000000000
0003FF0000
001FFFE000
007FFFF800
01FF9FFC00
03FC03FF00
07F801FF80
0FF000FFC0
1FE0007FC0
1FC0003FE0
3FC0003FE0
3FC0001FF0
7F80001FF0
7F80000FF8
7F80000FF8
FF80000FF8
FF80000FF8
FF800007F8
FF800007FC
FF800007FC
FF800007FC
FF800007F8
FF800007F8
FF800007F8
FF800007F8
7F80000FF8
7FC0000FF8
7FC0000FF0
7FC0000FF0
3FE0001FE0
3FE0001FE0
1FF0001FC0
0FF8003FC0
07FC007F80
07FE00FF00
01FF83FE00
00FFFFF800
003FFFF000
000FFF8000
0000300000
ENDCHAR
STARTCHAR 00D7
ENCODING 215
SWIDTH 540 0
DWIDTH 30 0
BBX 26 27 2 1
BITMAP
00000200
780003C0
F80007C0
7C000F80
3E001F00
1F003E00
0F807C00
07C0F800
03E1F000
01F3E000
00FFC000
007FC000
003F8000
003F0000
003F8000
007F8000
00FFC000
01F3E000
03E1F000
07C0F800
0FC07C00
0F803E00
1F001F00
3E000F80
7C0007C0
F80007C0
30000300
ENDCHAR
STARTCHAR 00D8
ENCODING 216
SWIDTH 738 0
DWIDTH 41 0
BBX 38 40 2 -2
BITMAP
00000000E0
0003FF01F0
001FFFE3F0
007FFFFBE0
01FF9FFFC0
03FC03FF80
07F801FF80
0FF000FFC0
1FE0007FC0
1FC0007FE0
3FC000FFF0
3FC001FFF0
7F8003FFF0
7F8003EFF8
7F8007CFF8
FF800F8FF8
FF801F0FF8
FF803F07F8
FF803E07FC
FF807C07FC
FF80F807FC
FF81F807F8
FF81F007F8
FF83E007F8
FF87C007F8
7F8F800FF8
7FCF800FF8
7FDF000FF0
7FFE000FF0
3FFC001FE0
3FFC001FE0
1FF8001FC0
0FF8003FC0
07F8007F80
07FE00FF00
0FFF83FE00
1FFFFFF800
1F3FFFF000
3E0FFF8000
7C00300000
ENDCHAR
STARTCHAR 00D9
ENCODING 217
SWIDTH 684 0
DWIDTH 38 0
BBX 34 50 2 -1
BITMAP
0001E00000
000FE00000
0007F00000
0003F00000
0001F80000
0000F80000
00007C0000
00003C0000
0000000000
0000000000
0000000000
FFFF01FFC0
FFFF01FFC0
FFFF01FFC0
FFFF01FFC0
3FF8007F00
1FF0003E00
1FF0003E00
1FF0001E00
0FF0001C00
0FF0001C00
0FF0001C00
0FF0001C00
0FF0001C00
0FF0001C00
0FF0001C00
0FF0001C00
0FF0001C00
0FF0001C00
0FF0001C00
0FF0001C00
0FF0001C00
0FF0001C00
0FF0001C00
0FF0001C00
0FF0001C00
0FF0001C00
0FF0001C00
0FF0001C00
0FF0003C00
0FF8003C00
0FF8003C00
0FF8003C00
07FC007800
07FE00F800
03FF87F000
01FFFFE000
00FFFFC000
003FFF0000
0000600000
ENDCHAR
STARTCHAR 00DA
ENCODING 218
SWIDTH 684 0
DWIDTH 38 0
BBX 34 50 2 -1
BITMAP
00000FE000
00001FC000
00001F8000
00003F0000
00003E0000
00007E0000
00007C0000
0000F80000
0000000000
0000000000
0000000000
FFFF01FFC0
FFFF01FFC0
FFFF01FFC0
FFFF01FFC0
3FF8007F00
1FF0003E00
1FF0003E00
1FF0001E00
0FF0001C00
0FF0001C00
0FF0001C00
0FF0001C00
0FF0001C00
0FF0001C00
0FF0001C00
0FF0001C00
0FF0001C00
0FF0001C00
0FF0001C00
0FF0001C00
0FF0001C00
0FF0001C00
0FF0001C00
0FF0001C00
0FF0001C00
0FF0001C00
0FF0001C00
0FF0001C00
0FF0003C00
0FF8003C00
0FF8003C00
0FF8003C00
07FC007800
07FE00F800
03FF87F000
01FFFFE000
00FFFFC000
003FFF0000
0000600000
ENDCHAR
STARTCHAR 00DB
ENCODING 219
SWIDTH 684 0
DWIDTH 38 0
BBX 34 50 2 -1
BITMAP
00007C0000
0000FE0000
0001FF0000
0003FF8000
000FFFE000
001FCFF000
003F03F800
003C01F000
0000000000
0000000000
0000000000
FFFF01FFC0
FFFF01FFC0
FFFF01FFC0
FFFF01FFC0
3FF8007F00
1FF0003E00
1FF0003E00
1FF0001E00
0FF0001C00
0FF0001C00
0FF0001C00
0FF0001C00
0FF0001C00
0FF0001C00
0FF0001C00
0FF0001C00
0FF0001C00
0FF0001C00
0FF0001C00
0FF0001C00
0FF0001C00
0FF0001C00
0FF0001C00
0FF0001C00
0FF0001C00
0FF0001C00
0FF0001C00
0FF0001C00
0FF0003C00
0FF8003C00
0FF8003C00
0FF8003C00
07FC007800
07FE00F800
03FF87F000
01FFFFE000
00FFFFC000
003FFF0000
0000600000
ENDCHAR
STARTCHAR 00DC
ENCODING 220
SWIDTH 684 0
DWIDTH 38 0
BBX 34 49 2 -1
BITMAP
001F01F000
003F83F800
007F87FC00
007F87FC00
007F87FC00
007F83FC00
003F03F800
001C00E000
0000000000
0000000000
FFFF01FFC0
FFFF01FFC0
FFFF01FFC0
FFFF01FFC0
3FF8007F00
1FF0003E00
1FF0003E00
1FF0001E00
0FF0001C00
0FF0001C00
0FF0001C00
0FF0001C00
0FF0001C00
0FF0001C00
0FF0001C00
0FF0001C00
0FF0001C00
0FF0001C00
0FF0001C00
0FF0001C00
0FF0001C00
0FF0001C00
0FF0001C00
0FF0001C00
0FF0001C00
0FF0001C00
0FF0001C00
0FF0001C00
0FF0003C00
0FF8003C00
0FF8003C00
0FF8003C00
07FC007800
07FE00F800
03FF87F000
01FFFFE000
00FFFFC000
003FFF0000
0000600000
ENDCHAR
STARTCHAR 00DD
ENCODING 221
SWIDTH 630 0
DWIDTH 35 0
BBX 33 49 1 0
BITMAP
00000FE000
00001FC000
00001F8000
00003F0000
00003E0000
00007C0000
0000780000
0000F80000
0000000000
0000000000
0000000000
FFFF01FF80
FFFF01FF80
FFFF01FF80
FFFF01FF80
3FFC007E00
1FFC007C00
0FFC007800
0FFC007800
07FE007000
07FE00F000
03FE00E000
03FF01E000
01FF01C000
01FF83C000
00FF838000
00FFC78000
007FC78000
007FE70000
003FEF0000
003FEE0000
001FFE0000
001FFC0000
000FFC0000
000FF80000
0007F80000
0007F80000
0007F80000
0007F80000
0007F80000
0007F80000
0007F80000
0007F80000
000FF80000
000FFC0000
007FFF0000
01FFFFC000
01FFFFC000
01FFFFC000
ENDCHAR
STARTCHAR 00DE
ENCODING 222
SWIDTH 630 0
DWIDTH 35 0
BBX 31 38 2 0
BITMAP
FFFF8000
FFFF8000
FFFF8000
7FFF8000
1FFC0000
0FF80000
0FF80000
0FF80000
0FFFFF00
0FFFFFE0
0FFFFFF0
0FF83FF8
0FF807FC
0FF803FE
0FF803FE
0FF801FE
0FF801FE
0FF801FE
0FF801FE
0FF801FE
0FF801FE
0FF801FE
0FF801FE
0FF803FC
0FF803FC
0FF80FF8
0FF9FFF0
0FF9FFE0
0FF9FF80
0FF8F800
0FF80000
0FF80000
0FF80000
0FFC0000
3FFF0000
7FFFC000
FFFFE000
FFFFE000
ENDCHAR
STARTCHAR 00DF
ENCODING 223
SWIDTH 684 0
DWIDTH 38 0
BBX 34 40 2 0
BITMAP
0003F80000
001FFF8000
007FFFC000
00FFFFE000
01FC1FF000
03F807F800
03F003F800
07F003F800
07F003F800
0FF003F800
0FF003F000
0FF003F000
0FF007E000
0FF00FC000
0FF01F0000
FFF07E0000
FFF0FC0000
FFF0FC0000
FFF1FE0000
0FF1FE0000
0FF1FF8000
0FF1FFE000
0FF1FFF000
0FF0FFFC00
0FF0FFFE00
0FF07FFF00
0FF03FFF80
0FF00FFF80
0FF003FFC0
0FF001FFC0
0FF0007FC0
0FF1E03FC0
0FF1E03FC0
0FF1F03FC0
0FF1F03F80
1FF1F03F80
3FF1F87F00
FFF1FFFE00
FFF1FFFC00
FFF07FF000
ENDCHAR
STARTCHAR 00E0
ENCODING 224
SWIDTH 540 0
DWIDTH 30 0
BBX 26 41 4 -1
BITMAP
07800000
3FC00000
1FC00000
0FC00000
07E00000
03E00000
01F00000
01F00000
00F80000
00780000
00000000
00000000
00000000
00000000
003F8000
01FFE000
03FFF000
0FFFF800
1E1FF800
3E07F800
7E07FC00
FE07FC00
FE03FC00
FE03FC00
0003FC00
001FFC00
007FFC00
01FBFC00
0FE3FC00
3FC3FC00
7F03FC00
FF03FC00
FF03FC00
FF03FC00
FF03FE00
FF03FF80
FFCFFFC0
7FFFFFC0
7FFBFFC0
1FE1FE00
00004000
ENDCHAR
STARTCHAR 00E1
ENCODING 225
SWIDTH 540 0
DWIDTH 30 0
BBX 26 41 4 -1
BITMAP
000FE000
001FC000
001F8000
003F0000
003F0000
003E0000
007C0000
007C0000
00F80000
00F00000
00100000
00000000
00000000
00000000
003F8000
01FFE000
03FFF000
0FFFF800
1E1FF800
3E07F800
7E07FC00
FE07FC00
FE03FC00
FE03FC00
0003FC00
001FFC00
007FFC00
01FBFC00
0FE3FC00
3FC3FC00
7F03FC00
FF03FC00
FF03FC00
FF03FC00
FF03FE00
FF03FF80
FFCFFFC0
7FFFFFC0
7FFBFFC0
1FE1FE00
00004000
ENDCHAR
STARTCHAR 00E2
ENCODING 226
SWIDTH 540 0
DWIDTH 30 0
BBX 26 41 4 -1
BITMAP
00380000
007C0000
00FE0000
01FE0000
07FF0000
0FFF8000
1FDFC000
3F0FE000
FC03F000
7801F800
60007000
00000000
00000000
00000000
003F8000
01FFE000
03FFF000
0FFFF800
1E1FF800
3E07F800
7E07FC00
FE07FC00
FE03FC00
FE03FC00
0003FC00
001FFC00
007FFC00
01FBFC00
0FE3FC00
3FC3FC00
7F03FC00
FF03FC00
FF03FC00
FF03FC00
FF03FE00
FF03FF80
FFCFFFC0
7FFFFFC0
7FFBFFC0
1FE1FE00
00004000
ENDCHAR
STARTCHAR 00E3
ENCODING 227
SWIDTH 540 0
DWIDTH 30 0
BBX 26 39 4 -1
BITMAP
07000000
1FE03000
3FF8F800
7FFFF000
FFFFE000
F0FFC000
C03F8000
000E0000
00000000
00000000
00000000
00000000
003F8000
01FFE000
03FFF000
0FFFF800
1E1FF800
3E07F800
7E07FC00
FE07FC00
FE03FC00
FE03FC00
0003FC00
001FFC00
007FFC00
01FBFC00
0FE3FC00
3FC3FC00
7F03FC00
FF03FC00
FF03FC00
FF03FC00
FF03FE00
FF03FF80
FFCFFFC0
7FFFFFC0
7FFBFFC0
1FE1FE00
00004000
ENDCHAR
STARTCHAR 00E4
ENCODING 228
SWIDTH 540 0
DWIDTH 30 0
BBX 26 38 4 -1
BITMAP
1800C000
7E07F000
FF07F000
FF0FF800
FF0FF800
FF0FF800
FF07F000
7E03E000
00000000
00000000
00000000
003F8000
01FFE000
03FFF000
0FFFF800
1E1FF800
3E07F800
7E07FC00
FE07FC00
FE03FC00
FE03FC00
0003FC00
001FFC00
007FFC00
01FBFC00
0FE3FC00
3FC3FC00
7F03FC00
FF03FC00
FF03FC00
FF03FC00
FF03FE00
FF03FF80
FFCFFFC0
7FFFFFC0
7FFBFFC0
1FE1FE00
00004000
ENDCHAR
STARTCHAR 00E5
ENCODING 229
SWIDTH 540 0
DWIDTH 30 0
BBX 26 41 4 -1
BITMAP
00F80000
03FE0000
07FF0000
0F8F8000
0F0F8000
0F0F8000
0F0F8000
0F8F0000
0FFF0000
07FE0000
01F80000
00000000
00000000
00000000
003F8000
01FFE000
03FFF000
0FFFF800
1E1FF800
3E07F800
7E07FC00
FE07FC00
FE03FC00
FE03FC00
0003FC00
001FFC00
007FFC00
01FBFC00
0FE3FC00
3FC3FC00
7F03FC00
FF03FC00
FF03FC00
FF03FC00
FF03FE00
FF03FF80
FFCFFFC0
7FFFFFC0
7FFBFFC0
1FE1FE00
00004000
ENDCHAR
STARTCHAR 00E6
ENCODING 230
SWIDTH 720 0
DWIDTH 40 0
BBX 36 26 2 0
BITMAP
01FE01FC00
1FFF87FF00
3FFFDFFF80
3FDFFFBFC0
3F07FE0FE0
3F03FE0FE0
3E03FC07E0
3E03FC07F0
3E03FC07F0
0203FC07F0
0003FC07F0
003FFFFFF0
03FFFFFFF0
0FFFFFFFE0
1FF3FC0000
3F83FC0000
7F03FC0000
FE03FE0000
FE03FE0000
FE07FE0000
FE07FF0020
FF0FFF80F0
FFFF7FFFF0
7FFE3FFFE0
3FFC1FFFC0
1FF007FF00
ENDCHAR
STARTCHAR 00E7
ENCODING 231
SWIDTH 450 0
DWIDTH 25 0
BBX 23 39 2 -13
BITMAP
007F80
03FFF0
07FFFC
0FF7FC
1FC1FC
3F80FC
3F807C
7F007C
7F007C
FF0078
FF0000
FF0000
FF0000
FF0000
FF0000
FF0000
FF0000
FF8000
7F8000
7FC000
3FE004
3FF01C
1FFFFE
0FFFFC
07FFF8
00FFE0
001E00
001C00
003800
007F00
007F80
003FC0
000FC0
0007C0
0007C0
0007C0
000F80
007F00
007E00
ENDCHAR
STARTCHAR 00E8
ENCODING 232
SWIDTH 504 0
DWIDTH 28 0
BBX 24 41 2 -1
BITMAP
00F000
07F000
03F800
01F800
01F800
00FC00
007C00
003E00
003E00
001F00
000000
000000
000000
000000
007F80
03FFE0
07FFF8
0FFFFC
1FC1FC
3F80FE
7F80FE
7F00FF
7F007F
FF007F
FF007F
FFFFFF
FFFFFF
FFFFFF
FFFFFE
FF0000
FF0000
FF8000
7F8000
7FC000
7FE003
3FF00F
1FFFFF
0FFFFE
07FFFC
01FFE0
000E00
ENDCHAR
STARTCHAR 00E9
ENCODING 233
SWIDTH 504 0
DWIDTH 28 0
BBX 24 41 2 -1
BITMAP
0003F8
0003F0
0007F0
0007E0
0007C0
000F80
000F80
001F00
001E00
003E00
000000
000000
000000
000000
007F80
03FFE0
07FFF8
0FFFFC
1FC1FC
3F80FE
7F80FE
7F00FF
7F007F
FF007F
FF007F
FFFFFF
FFFFFF
FFFFFF
FFFFFE
FF0000
FF0000
FF8000
7F8000
7FC000
7FE003
3FF00F
1FFFFF
0FFFFE
07FFFC
01FFE0
000E00
ENDCHAR
STARTCHAR 00EA
ENCODING 234
SWIDTH 504 0
DWIDTH 28 0
BBX 24 41 2 -1
BITMAP
000600
001F00
003F80
007FC0
00FFE0
01FFF0
03F7F8
0FE1FC
1F80FE
1E003E
0C001C
000000
000000
000000
007F80
03FFE0
07FFF8
0FFFFC
1FC1FC
3F80FE
7F80FE
7F00FF
7F007F
FF007F
FF007F
FFFFFF
FFFFFF
FFFFFF
FFFFFE
FF0000
FF0000
FF8000
7F8000
7FC000
7FE003
3FF00F
1FFFFF
0FFFFE
07FFFC
01FFE0
000E00
ENDCHAR
STARTCHAR 00EB
ENCODING 235
SWIDTH 504 0
DWIDTH 28 0
BBX 24 38 2 -1
BITMAP
020030
1FC0FC
1FC1FE
3FE1FE
3FE1FE
3FC1FE
1FC1FE
0F80FC
000000
000000
000000
007F80
03FFE0
07FFF8
0FFFFC
1FC1FC
3F80FE
7F80FE
7F00FF
7F007F
FF007F
FF007F
FFFFFF
FFFFFF
FFFFFF
FFFFFE
FF0000
FF0000
FF8000
7F8000
7FC000
7FE003
3FF00F
1FFFFF
0FFFFE
07FFFC
01FFE0
000E00
ENDCHAR
STARTCHAR 00EC
ENCODING 236
SWIDTH 342 0
DWIDTH 19 0
BBX 17 40 1 0
BITMAP
0F0000
FF0000
7F0000
3F8000
1F8000
0F8000
07C000
03C000
03E000
01E000
000000
000000
000000
000000
003000
03F800
7FF800
7FF800
7FF800
1FF800
07F800
07F800
07F800
07F800
07F800
07F800
07F800
07F800
07F800
07F800
07F800
07F800
07F800
07F800
07F800
0FFC00
1FFE00
7FFF80
7FFF80
7FFF80
ENDCHAR
STARTCHAR 00ED
ENCODING 237
SWIDTH 342 0
DWIDTH 19 0
BBX 16 40 2 0
BITMAP
007F
00FE
00FC
00FC
01F8
01F0
01E0
03E0
03C0
07C0
0080
0000
0000
0000
0060
07F0
FFF0
FFF0
FFF0
3FF0
0FF0
0FF0
0FF0
0FF0
0FF0
0FF0
0FF0
0FF0
0FF0
0FF0
0FF0
0FF0
0FF0
0FF0
0FF0
1FF8
3FFC
FFFF
FFFF
FFFF
ENDCHAR
STARTCHAR 00EE
ENCODING 238
SWIDTH 342 0
DWIDTH 19 0
BBX 17 40 1 0
BITMAP
006000
03E000
07F000
07F800
0FF800
1FFC00
3EFE00
7C7F00
F83F00
F01F80
600E00
000000
000000
000000
003000
03F800
7FF800
7FF800
7FF800
1FF800
07F800
07F800
07F800
07F800
07F800
07F800
07F800
07F800
07F800
07F800
07F800
07F800
07F800
07F800
07F800
0FFC00
1FFE00
7FFF80
7FFF80
7FFF80
ENDCHAR
STARTCHAR 00EF
ENCODING 239
SWIDTH 342 0
DWIDTH 19 0
BBX 19 37 0 0
BITMAP
080200
7E0FC0
FF1FE0
FF1FE0
FF3FE0
FF1FE0
7F1FE0
3E0FC0
000000
000000
000000
001800
01FC00
3FFC00
3FFC00
3FFC00
0FFC00
03FC00
03FC00
03FC00
03FC00
03FC00
03FC00
03FC00
03FC00
03FC00
03FC00
03FC00
03FC00
03FC00
03FC00
03FC00
07FE00
0FFF00
3FFFC0
3FFFC0
3FFFC0
ENDCHAR
STARTCHAR 00F0
ENCODING 240
SWIDTH 558 0
DWIDTH 31 0
BBX 27 40 2 0
BITMAP
000C0000
03FE0000
07FF8080
07FFC380
07FFEF80
00FFFFC0
003FFF00
001FFC00
001FFE00
007FFE00
00FFFF00
00F8FF00
00E0FF80
00007F80
001E7FC0
01FFFFC0
07FFFFC0
0FFFFFE0
1FE07FE0
3FC01FE0
3F801FE0
7F801FE0
7F001FE0
FF001FE0
FF001FE0
FF001FE0
FF001FE0
FF001FE0
FF001FE0
FF001FE0
FF001FE0
FF001FE0
7F801FC0
7F803FC0
7FC03F80
3FC07F80
1FF0FF00
0FFFFE00
07FFF800
01FFE000
ENDCHAR
STARTCHAR 00F1
ENCODING 241
SWIDTH 648 0
DWIDTH 36 0
BBX 33 38 2 0
BITMAP
000C000000
007F80C000
00FFE3E000
01FFFFC000
03FFFF8000
03C3FF8000
0300FF0000
0000180000
0000000000
0000000000
0000000000
0000000000
00601C0000
07F0FFC000
FFF3FFE000
FFF7FFF000
FFFFFFF000
3FFE1FF800
1FF00FF800
0FF007F800
0FF007FC00
0FF007FC00
0FF003FC00
0FF003FC00
0FF003FC00
0FF003FC00
0FF003FC00
0FF003FC00
0FF003F800
0FF003F800
0FF003FC00
0FF007FC00
0FF007FC00
1FF807FC00
3FFC0FFE00
FFFE3FFF80
FFFE3FFF80
FFFF3FFF80
ENDCHAR
STARTCHAR 00F2
ENCODING 242
SWIDTH 558 0
DWIDTH 31 0
BBX 28 41 2 -1
BITMAP
00780000
03F80000
01FC0000
01FC0000
00FC0000
007E0000
003E0000
001F0000
001F0000
000F8000
00000000
00000000
00000000
00000000
003FC000
01FFF800
07FFFE00
0FFBFF00
1FC0FF80
3FC07FC0
3F803FC0
7F803FE0
7F001FE0
FF001FE0
FF001FF0
FF001FF0
FF000FF0
FF000FF0
FF000FF0
FF000FF0
FF800FE0
FF801FE0
7F801FE0
7FC01FC0
3FC03FC0
3FE03F80
1FF0FF00
0FFFFE00
07FFFC00
00FFF000
00060000
ENDCHAR
STARTCHAR 00F3
ENCODING 243
SWIDTH 558 0
DWIDTH 31 0
BBX 28 41 2 -1
BITMAP
0001FC00
0001F800
0003F800
0003F000
0003E000
0007C000
0007C000
000F8000
000F0000
001F0000
00000000
00000000
00000000
00000000
003FC000
01FFF800
07FFFE00
0FFBFF00
1FC0FF80
3FC07FC0
3F803FC0
7F803FE0
7F001FE0
FF001FE0
FF001FF0
FF001FF0
FF000FF0
FF000FF0
FF000FF0
FF000FF0
FF800FE0
FF801FE0
7F801FE0
7FC01FC0
3FC03FC0
3FE03F80
1FF0FF00
0FFFFE00
07FFFC00
00FFF000
00060000
ENDCHAR
STARTCHAR 00F4
ENCODING 244
SWIDTH 558 0
DWIDTH 31 0
BBX 28 41 2 -1
BITMAP
00030000
000F8000
001FC000
003FE000
007FF000
00FFF800
03FBFC00
07E0FE00
0FC07F00
0F001F00
06000E00
00000000
00000000
00000000
003FC000
01FFF800
07FFFE00
0FFBFF00
1FC0FF80
3FC07FC0
3F803FC0
7F803FE0
7F001FE0
FF001FE0
FF001FF0
FF001FF0
FF000FF0
FF000FF0
FF000FF0
FF000FF0
FF800FE0
FF801FE0
7F801FE0
7FC01FC0
3FC03FC0
3FE03F80
1FF0FF00
0FFFFE00
07FFFC00
00FFF000
00060000
ENDCHAR
STARTCHAR 00F5
ENCODING 245
SWIDTH 558 0
DWIDTH 31 0
BBX 28 39 2 -1
BITMAP
00600000
03FC0700
07FF0F00
0FFFFE00
1FFFFE00
1E1FFC00
0C07F800
0000C000
00000000
00000000
00000000
00000000
003FC000
01FFF800
07FFFE00
0FFBFF00
1FC0FF80
3FC07FC0
3F803FC0
7F803FE0
7F001FE0
FF001FE0
FF001FF0
FF001FF0
FF000FF0
FF000FF0
FF000FF0
FF000FF0
FF800FE0
FF801FE0
7F801FE0
7FC01FC0
3FC03FC0
3FE03F80
1FF0FF00
0FFFFE00
07FFFC00
00FFF000
00060000
ENDCHAR
STARTCHAR 00F6
ENCODING 246
SWIDTH 558 0
DWIDTH 31 0
BBX 28 38 2 -1
BITMAP
01001800
0FE07E00
0FE0FF00
1FF0FF00
1FF0FF00
1FE0FF00
0FE0FF00
07C07E00
00000000
00000000
00000000
003FC000
01FFF800
07FFFE00
0FFBFF00
1FC0FF80
3FC07FC0
3F803FC0
7F803FE0
7F001FE0
FF001FE0
FF001FF0
FF001FF0
FF000FF0
FF000FF0
FF000FF0
FF000FF0
FF800FE0
FF801FE0
7F801FE0
7FC01FC0
3FC03FC0
3FE03F80
1FF0FF00
0FFFFE00
07FFFC00
00FFF000
00060000
ENDCHAR
STARTCHAR 00F7
ENCODING 247
SWIDTH 540 0
DWIDTH 30 0
BBX 26 26 2 2
BITMAP
000C0000
003F0000
003F8000
003F8000
003F8000
003F8000
003F0000
000E0000
00000000
00000000
00000000
7FFFFFC0
FFFFFFC0
FFFFFFC0
FFFFFFC0
00000000
00000000
00000000
00000000
001E0000
003F0000
003F8000
003F8000
003F8000
003F8000
001F0000
ENDCHAR
STARTCHAR 00F8
ENCODING 248
SWIDTH 558 0
DWIDTH 31 0
BBX 29 29 1 -2
BITMAP
00000078
001FE0F8
00FFFDF0
03FFFFE0
07FDFFC0
0FE07FC0
1FE03FE0
1FC03FE0
3FC07FF0
3F80FFF0
7F81FFF0
7F81FFF8
7F83EFF8
7F87C7F8
7F8F87F8
7F9F07F8
7FBE07F8
7FFC07F0
7FFC0FF0
3FF80FF0
3FF00FE0
1FE01FE0
1FF01FC0
0FF87F80
1FFFFF00
3FFFFE00
7CFFF800
FC030000
78000000
ENDCHAR
STARTCHAR 00F9
ENCODING 249
SWIDTH 594 0
DWIDTH 33 0
BBX 31 40 1 -1
BITMAP
001E0000
01FE0000
00FE0000
007F0000
003F0000
001F8000
000F8000
00078000
0007C000
0003C000
00000000
00000000
00000000
00000000
00400060
0FE03FF0
FFE0FFF0
FFE0FFF0
FFE0FFF0
3FE01FF0
1FE00FF0
1FE00FF0
1FE00FF0
1FE00FF0
1FE00FF0
1FE00FF0
1FE00FF0
1FE00FF0
1FE00FF0
1FE00FF0
1FE00FF0
1FE00FF0
1FF00FF0
0FF00FF0
0FF80FF8
0FFC0FFE
0FFFFFFE
07FFFFFE
03FFEFFE
01FF0F00
ENDCHAR
STARTCHAR 00FA
ENCODING 250
SWIDTH 594 0
DWIDTH 33 0
BBX 31 40 1 -1
BITMAP
00007F00
0000FE00
0000FC00
0000FC00
0001F800
0001F000
0001F000
0003E000
0003C000
0007C000
00008000
00000000
00000000
00000000
00400060
0FE03FF0
FFE0FFF0
FFE0FFF0
FFE0FFF0
3FE01FF0
1FE00FF0
1FE00FF0
1FE00FF0
1FE00FF0
1FE00FF0
1FE00FF0
1FE00FF0
1FE00FF0
1FE00FF0
1FE00FF0
1FE00FF0
1FE00FF0
1FF00FF0
0FF00FF0
0FF80FF8
0FFC0FFE
0FFFFFFE
07FFFFFE
03FFEFFE
01FF0F00
ENDCHAR
STARTCHAR 00FB
ENCODING 251
SWIDTH 594 0
DWIDTH 33 0
BBX 31 40 1 -1
BITMAP
0001C000
0003E000
0007F000
000FF800
001FFC00
003FFE00
00FEFF00
01F83F80
03F01FC0
03C007C0
01800380
00000000
00000000
00000000
00400060
0FE03FF0
FFE0FFF0
FFE0FFF0
FFE0FFF0
3FE01FF0
1FE00FF0
1FE00FF0
1FE00FF0
1FE00FF0
1FE00FF0
1FE00FF0
1FE00FF0
1FE00FF0
1FE00FF0
1FE00FF0
1FE00FF0
1FE00FF0
1FF00FF0
0FF00FF0
0FF80FF8
0FFC0FFE
0FFFFFFE
07FFFFFE
03FFEFFE
01FF0F00
ENDCHAR
STARTCHAR 00FC
ENCODING 252
SWIDTH 594 0
DWIDTH 33 0
BBX 31 37 1 -1
BITMAP
00400400
03F01F80
07F83FC0
07F83FC0
07FC3FC0
07F83FC0
03F83FC0
01F01F80
00000000
00000000
00000000
00400060
0FE03FF0
FFE0FFF0
FFE0FFF0
FFE0FFF0
3FE01FF0
1FE00FF0
1FE00FF0
1FE00FF0
1FE00FF0
1FE00FF0
1FE00FF0
1FE00FF0
1FE00FF0
1FE00FF0
1FE00FF0
1FE00FF0
1FE00FF0
1FF00FF0
0FF00FF0
0FF80FF8
0FFC0FFE
0FFFFFFE
07FFFFFE
03FFEFFE
01FF0F00
ENDCHAR
STARTCHAR 00FD
ENCODING 253
SWIDTH 558 0
DWIDTH 31 0
BBX 29 54 1 -14
BITMAP
00001F80
00003F00
00007F00
00007E00
00007C00
0000F800
0000F800
0001F000
0001E000
0001E000
00000000
00000000
00000000
00000000
F83F3C38
FFFF1FF8
FFFE1FF8
FFFE1FF8
3FF807E0
1FF003C0
1FF003C0
0FF80780
0FF80780
07FC0780
07FC0F00
03FE0F00
03FE0E00
01FE1E00
01FF1C00
00FF3C00
00FFBC00
007FB800
007FF800
003FF000
003FF000
003FE000
001FE000
001FE000
000FC000
000FC000
00078000
00078000
00078000
000F0000
000F0000
001E0000
003E0000
7FFC0000
7FFC0000
7FF80000
7FF00000
7FF00000
3FE00000
0F000000
ENDCHAR
STARTCHAR 00FE
ENCODING 254
SWIDTH 612 0
DWIDTH 34 0
BBX 31 54 2 -14
BITMAP
00600000
07E00000
FFF00000
FFF00000
FFF00000
3FF00000
1FF00000
0FF00000
0FF00000
0FF00000
0FF00000
0FF00000
0FF00000
0FF00000
0FF07E00
0FF1FFC0
0FF7FFE0
0FEFFFF0
0FFFFFF8
0FFE0FFC
0FFC07FC
0FF803FC
0FF003FE
0FF003FE
0FF003FE
0FF001FE
0FF001FE
0FF001FE
0FF001FE
0FF003FC
0FF003FC
0FF003FC
0FF003F8
0FF007F8
0FF007F0
0FF00FE0
0FF81FC0
0FFFFF80
0FFFFF00
0FFFFC00
0FF18000
0FF00000
0FF00000
0FF00000
0FF00000
0FF00000
0FF00000
1FF00000
1FF80000
3FFC0000
FFFF8000
FFFF8000
FFFF8000
F81F8000
ENDCHAR
STARTCHAR 00FF
ENCODING 255
SWIDTH 558 0
DWIDTH 31 0
BBX 29 51 1 -14
BITMAP
00300300
01FC0FC0
01FC1FE0
03FE1FE0
03FE1FE0
03FE1FE0
01FC1FE0
00F80FC0
00000000
00000000
00000000
F83F3C38
FFFF1FF8
FFFE1FF8
FFFE1FF8
3FF807E0
1FF003C0
1FF003C0
0FF80780
0FF80780
07FC0780
07FC0F00
03FE0F00
03FE0E00
01FE1E00
01FF1C00
00FF3C00
00FFBC00
007FB800
007FF800
003FF000
003FF000
003FE000
001FE000
001FE000
000FC000
000FC000
00078000
00078000
00078000
000F0000
000F0000
001E0000
003E0000
7FFC0000
7FFC0000
7FF80000
7FF00000
7FF00000
3FE00000
0F000000
ENDCHAR
STARTCHAR 0100
ENCODING 256
SWIDTH 702 0
DWIDTH 39 0
BBX 38 45 1 0
BITMAP
00FFFFF800
00FFFFF000
00FFFFF000
0000000000
0000000000
0000000000
0000000000
0000F00000
0000F00000
0000F80000
0001F80000
0001FC0000
0003FC0000
0003FE0000
0003FE0000
0007FF0000
0007FF0000
000FFF0000
000EFF8000
000EFF8000
001E7FC000
001C7FC000
003C3FE000
00383FE000
00381FF000
00781FF000
00701FF000
00F00FF800
00F00FF800
00E007FC00
01E007FC00
01FFFFFE00
03FFFFFE00
03FFFFFF00
07FF81FF00
078001FF00
070000FF80
0F0000FF80
0F0000FFC0
1F00007FC0
1F00007FE0
7F8001FFF0
FFE003FFF8
FFE003FFF8
FFE003FFFC
ENDCHAR
STARTCHAR 0101
ENCODING 257
SWIDTH 540 0
DWIDTH 30 0
BBX 26 36 4 -1
BITMAP
FFFFF800
FFFFF800
FFFFF000
00000000
00000000
00000000
00000000
00000000
00000000
003F8000
01FFE000
03FFF000
0FFFF800
1E1FF800
3E07F800
7E07FC00
FE07FC00
FE03FC00
FE03FC00
0003FC00
001FFC00
007FFC00
01FBFC00
0FE3FC00
3FC3FC00
7F03FC00
FF03FC00
FF03FC00
FF03FC00
FF03FE00
FF03FF80
FFCFFFC0
7FFFFFC0
7FFBFFC0
1FE1FE00
00004000
ENDCHAR
STARTCHAR 0102
ENCODING 258
SWIDTH 702 0
DWIDTH 39 0
BBX 38 49 1 0
BITMAP
001800C000
007C00E000
007C01E000
007F03E000
003FFFE000
003FFFC000
001FFF8000
000FFF0000
0001F80000
0000000000
0000000000
0000F00000
0000F00000
0000F80000
0001F80000
0001FC0000
0003FC0000
0003FE0000
0003FE0000
0007FF0000
0007FF0000
000FFF0000
000EFF8000
000EFF8000
001E7FC000
001C7FC000
003C3FE000
00383FE000
00381FF000
00781FF000
00701FF000
00F00FF800
00F00FF800
00E007FC00
01E007FC00
01FFFFFE00
03FFFFFE00
03FFFFFF00
07FF81FF00
078001FF00
070000FF80
0F0000FF80
0F0000FFC0
1F00007FC0
1F00007FE0
7F8001FFF0
FFE003FFF8
FFE003FFF8
FFE003FFFC
ENDCHAR
STARTCHAR 0103
ENCODING 259
SWIDTH 540 0
DWIDTH 30 0
BBX 26 40 4 -1
BITMAP
F0007800
F8007800
F800F000
FC01F000
7F87F000
7FFFE000
3FFFE000
3FFFC000
0FFF8000
03FC0000
00000000
00000000
00000000
003F8000
01FFE000
03FFF000
0FFFF800
1E1FF800
3E07F800
7E07FC00
FE07FC00
FE03FC00
FE03FC00
0003FC00
001FFC00
007FFC00
01FBFC00
0FE3FC00
3FC3FC00
7F03FC00
FF03FC00
FF03FC00
FF03FC00
FF03FE00
FF03FF80
FFCFFFC0
7FFFFFC0
7FFBFFC0
1FE1FE00
00004000
ENDCHAR
STARTCHAR 0104
ENCODING 260
SWIDTH 702 0
DWIDTH 39 0
BBX 38 52 1 -14
BITMAP
0000F00000
0000F00000
0000F80000
0001F80000
0001FC0000
0003FC0000
0003FE0000
0003FE0000
0007FF0000
0007FF0000
000FFF0000
000EFF8000
000EFF8000
001E7FC000
001C7FC000
003C3FE000
00383FE000
00381FF000
00781FF000
00701FF000
00F00FF800
00F00FF800
00E007FC00
01E007FC00
01FFFFFE00
03FFFFFE00
03FFFFFF00
07FF81FF00
078001FF00
070000FF80
0F0000FF80
0F0000FFC0
1F00007FC0
1F00007FE0
7F8001FFF0
FFE003FFF8
FFE003FFF8
FFE003FFFC
0000001F00
0000007C00
000000F800
000001F000
000003F000
000007F000
000007F000
000007F800
000007FFC0
000007FFC0
000007FFC0
000003FF80
000001FE00
0000007800
ENDCHAR
STARTCHAR 0105
ENCODING 261
SWIDTH 540 0
DWIDTH 30 0
BBX 26 40 4 -14
BITMAP
003F8000
01FFE000
03FFF000
0FFFF800
1E1FF800
3E07F800
7E07FC00
FE07FC00
FE03FC00
FE03FC00
0003FC00
001FFC00
007FFC00
01FBFC00
0FE3FC00
3FC3FC00
7F03FC00
FF03FC00
FF03FC00
FF03FC00
FF03FE00
FF03FF80
FFCFFFC0
7FFFFFC0
7FFBFFC0
1FE1FE00
0000F000
0003E000
0007E000
000FC000
000FC000
001FC000
001FC000
001FE000
001FFF00
001FFF00
000FFF80
000FFF00
0007F800
0001E000
ENDCHAR
STARTCHAR 0106
ENCODING 262
SWIDTH 630 0
DWIDTH 35 0
BBX 32 50 2 -1
BITMAP
00001FC0
00001F80
00003F80
00003F00
00007E00
00007C00
0000F800
0000F000
00000000
00000000
00000000
0003FF00
001FFFF0
007FFFFC
01FF8FFE
03FC01FE
07F800FE
0FF0007E
1FE0003E
1FE0003C
3FC0003C
3FC0003C
7F80003C
7F800000
7F800000
FF800000
FF800000
FF800000
FF800000
FF800000
FF800000
FF800000
FF800000
FF800000
FF800000
7FC00000
7FC00000
7FC00000
7FE00000
3FE00000
3FF00000
1FF80000
0FFC0002
07FE000E
07FF803F
01FFFFFE
00FFFFF8
003FFFF0
000FFF80
00002000
ENDCHAR
STARTCHAR 0107
ENCODING 263
SWIDTH 450 0
DWIDTH 25 0
BBX 23 41 2 -1
BITMAP
0003F8
0007F0
0007E0
0007E0
0007C0
000F80
000F80
001F00
001E00
003E00
000000
000000
000000
000000
007F80
03FFF0
07FFFC
0FF7FC
1FC1FC
3F80FC
3F807C
7F007C
7F007C
FF0078
FF0000
FF0000
FF0000
FF0000
FF0000
FF0000
FF0000
FF8000
7F8000
7FC000
3FE004
3FF01C
1FFFFE
0FFFFC
07FFF8
01FFE0
000C00
ENDCHAR
STARTCHAR 0108
ENCODING 264
SWIDTH 630 0
DWIDTH 35 0
BBX 32 50 2 -1
BITMAP
00007C00
0000FE00
0003FF00
0007FF80
000FFFC0
003F9FE0
007E07F0
003801E0
00100000
00000000
00000000
0003FF00
001FFFF0
007FFFFC
01FF8FFE
03FC01FE
07F800FE
0FF0007E
1FE0003E
1FE0003C
3FC0003C
3FC0003C
7F80003C
7F800000
7F800000
FF800000
FF800000
FF800000
FF800000
FF800000
FF800000
FF800000
FF800000
FF800000
FF800000
7FC00000
7FC00000
7FC00000
7FE00000
3FE00000
3FF00000
1FF80000
0FFC0002
07FE000E
07FF803F
01FFFFFE
00FFFFF8
003FFFF0
000FFF80
00002000
ENDCHAR
STARTCHAR 0109
ENCODING 265
SWIDTH 450 0
DWIDTH 25 0
BBX 23 41 2 -1
BITMAP
000E00
001F00
003F80
007FC0
00FFE0
01FFF0
07F7F8
0FC1FC
1F80FE
1E003E
0C001C
000000
000000
000000
007F80
03FFF0
07FFFC
0FF7FC
1FC1FC
3F80FC
3F807C
7F007C
7F007C
FF0078
FF0000
FF0000
FF0000
FF0000
FF0000
FF0000
FF0000
FF8000
7F8000
7FC000
3FE004
3FF01C
1FFFFE
0FFFFC
07FFF8
01FFE0
000C00
ENDCHAR
STARTCHAR 010A
ENCODING 266
SWIDTH 630 0
DWIDTH 35 0
BBX 32 49 2 -1
BITMAP
00007800
0001FE00
0003FE00
0003FF00
0003FF00
0003FE00
0001FE00
0000FC00
00000000
00000000
0003FF00
001FFFF0
007FFFFC
01FF8FFE
03FC01FE
07F800FE
0FF0007E
1FE0003E
1FE0003C
3FC0003C
3FC0003C
7F80003C
7F800000
7F800000
FF800000
FF800000
FF800000
FF800000
FF800000
FF800000
FF800000
FF800000
FF800000
FF800000
7FC00000
7FC00000
7FC00000
7FE00000
3FE00000
3FF00000
1FF80000
0FFC0002
07FE000E
07FF803F
01FFFFFE
00FFFFF8
003FFFF0
000FFF80
00002000
ENDCHAR
STARTCHAR 010B
ENCODING 267
SWIDTH 450 0
DWIDTH 25 0
BBX 23 38 2 -1
BITMAP
003E00
007F80
00FF80
00FF80
00FF80
00FF80
007F00
003E00
000000
000000
000000
007F80
03FFF0
07FFFC
0FF7FC
1FC1FC
3F80FC
3F807C
7F007C
7F007C
FF0078
FF0000
FF0000
FF0000
FF0000
FF0000
FF0000
FF0000
FF8000
7F8000
7FC000
3FE004
3FF01C
1FFFFE
0FFFFC
07FFF8
01FFE0
000C00
ENDCHAR
STARTCHAR 010C
ENCODING 268
SWIDTH 630 0
DWIDTH 35 0
BBX 32 50 2 -1
BITMAP
003C00E0
007E01F0
007F87F0
001FFFC0
000FFF80
0007FE00
0003FC00
0001F800
00008000
00000000
00000000
0003FF00
001FFFF0
007FFFFC
01FF8FFE
03FC01FE
07F800FE
0FF0007E
1FE0003E
1FE0003C
3FC0003C
3FC0003C
7F80003C
7F800000
7F800000
FF800000
FF800000
FF800000
FF800000
FF800000
FF800000
FF800000
FF800000
FF800000
FF800000
7FC00000
7FC00000
7FC00000
7FE00000
3FE00000
3FF00000
1FF80000
0FFC0002
07FE000E
07FF803F
01FFFFFE
00FFFFF8
003FFFF0
000FFF80
00002000
ENDCHAR
STARTCHAR 010D
ENCODING 269
SWIDTH 450 0
DWIDTH 25 0
BBX 23 40 2 0
BITMAP
1E001C
1F007E
1FC0FC
0FE3F8
07FFE0
03FFC0
01FF80
00FF00
007E00
003C00
000000
000000
000000
007F80
03FFF0
07FFFC
0FF7FC
1FC1FC
3F80FC
3F807C
7F007C
7F007C
FF0078
FF0000
FF0000
FF0000
FF0000
FF0000
FF0000
FF0000
FF8000
7F8000
7FC000
3FE004
3FF01C
1FFFFE
0FFFFC
07FFF8
01FFE0
000C00
ENDCHAR
STARTCHAR 010E
ENCODING 270
SWIDTH 720 0
DWIDTH 40 0
BBX 37 49 2 0
BITMAP
007001C000
00FC07C000
00FF1FC000
007FFF8000
001FFE0000
000FFC0000
0007F80000
0003E00000
0000000000
0000000000
0000000000
FFFFF00000
FFFFFFC000
FFFFFFF800
7FFFFFFC00
1FF807FF00
0FF801FF80
0FF800FFC0
0FF8007FC0
0FF8003FE0
0FF8003FE0
0FF8001FF0
0FF8001FF0
0FF8001FF0
0FF8000FF0
0FF8000FF8
0FF8000FF8
0FF8000FF8
0FF8000FF8
0FF8000FF8
0FF8000FF8
0FF8000FF8
0FF8000FF8
0FF8000FF8
0FF8000FF0
0FF8000FF0
0FF8000FF0
0FF8001FF0
0FF8001FE0
0FF8001FE0
0FF8003FC0
0FF8003FC0
0FF8007F80
0FF800FF00
0FFC03FE00
3FFF9FF800
7FFFFFF000
FFFFFF8000
FFFFF80000
ENDCHAR
STARTCHAR 010F
ENCODING 271
SWIDTH 738 0
DWIDTH 41 0
BBX 39 41 2 -1
BITMAP
0000004018
000007E1FC
0001FFE3FC
0001FFE3FC
0001FFE3FE
00007FE3FC
00001FE3FC
00001FE0FC
00001FE07C
00001FE07C
00001FE078
00001FE0F8
00001FE0F0
00001FE1E0
001FFFE1E0
00FFFFE0C0
03FFFFE000
07FCFFE000
0FE03FE000
1FC01FE000
3FC01FE000
3F801FE000
7F801FE000
7F001FE000
FF001FE000
FF001FE000
FF001FE000
FF001FE000
FF001FE000
FF001FE000
FF001FE000
FF803FE000
FF803FE000
7F803FE000
7FC07FF000
7FE1FFFC00
3FFFEFFC00
1FFFCFFC00
0FFF8FFC00
03FE0F8000
0030000000
ENDCHAR
STARTCHAR 0110
ENCODING 272
SWIDTH 720 0
DWIDTH 40 0
BBX 37 38 2 0
BITMAP
FFFFF00000
FFFFFFC000
FFFFFFF800
7FFFFFFC00
1FF807FF00
0FF801FF80
0FF800FFC0
0FF8007FC0
0FF8003FE0
0FF8003FE0
0FF8001FF0
0FF8001FF0
0FF8001FF0
0FF8000FF0
0FF8000FF8
0FF8000FF8
0FF8000FF8
FFFFF00FF8
FFFFF00FF8
FFFFF00FF8
FFFFF00FF8
0FF8000FF8
0FF8000FF8
0FF8000FF0
0FF8000FF0
0FF8000FF0
0FF8001FF0
0FF8001FE0
0FF8001FE0
0FF8003FC0
0FF8003FC0
0FF8007F80
0FF800FF00
0FFC03FE00
3FFF9FF800
7FFFFFF000
FFFFFF8000
FFFFF80000
ENDCHAR
STARTCHAR 0111
ENCODING 273
SWIDTH 594 0
DWIDTH 33 0
BBX 30 41 2 -1
BITMAP
00000040
000007E0
0001FFE0
0001FFE0
0001FFE0
00007FE0
00001FE0
00001FE0
0007FFFC
0007FFFC
0007FFFC
00001FE0
00001FE0
00001FE0
001FFFE0
00FFFFE0
03FFFFE0
07FCFFE0
0FE03FE0
1FC01FE0
3FC01FE0
3F801FE0
7F801FE0
7F801FE0
FF001FE0
FF001FE0
FF001FE0
FF001FE0
FF001FE0
FF001FE0
FF801FE0
FF801FE0
FF801FE0
7FC01FE0
7FE01FF0
7FF01FFC
3FFFFFFC
1FFFFFFC
0FFFDFFC
03FF1E00
00300000
ENDCHAR
STARTCHAR 0112
ENCODING 274
SWIDTH 612 0
DWIDTH 34 0
BBX 31 45 2 0
BITMAP
0FFFFF80
0FFFFF80
0FFFFF80
00000000
00000000
00000000
00000000
FFFFFFF0
FFFFFFF0
FFFFFFF0
7FFFFFF0
1FF807F0
0FF801F0
0FF800F8
0FF800F8
0FF80078
0FF80078
0FF80040
0FF80000
0FF80000
0FF80F00
0FF80F00
0FF81E00
0FF81E00
0FF9FE00
0FFFFE00
0FFFFE00
0FFFFE00
0FF83E00
0FF81E00
0FF80F00
0FF80F00
0FF80100
0FF80000
0FF80010
0FF8001E
0FF8003E
0FF8003E
0FF8007C
0FF800FC
0FFC01FC
3FFF9FFC
7FFFFFFC
FFFFFFFC
FFFFFFFC
ENDCHAR
STARTCHAR 0113
ENCODING 275
SWIDTH 504 0
DWIDTH 28 0
BBX 24 36 2 -1
BITMAP
1FFFFE
3FFFFE
3FFFFE
000000
000000
000000
000000
000000
000000
007F80
03FFE0
07FFF8
0FFFFC
1FC1FC
3F80FE
7F80FE
7F00FF
7F007F
FF007F
FF007F
FFFFFF
FFFFFF
FFFFFF
FFFFFE
FF0000
FF0000
FF8000
7F8000
7FC000
7FE003
3FF00F
1FFFFF
0FFFFE
07FFFC
01FFE0
000E00
ENDCHAR
STARTCHAR 0114
ENCODING 276
SWIDTH 612 0
DWIDTH 34 0
BBX 31 49 2 0
BITMAP
00C00C00
07C00F00
03E00F00
03F03F00
03FFFE00
01FFFE00
01FFFC00
007FF800
001F8000
00000000
00000000
FFFFFFF0
FFFFFFF0
FFFFFFF0
7FFFFFF0
1FF807F0
0FF801F0
0FF800F8
0FF800F8
0FF80078
0FF80078
0FF80040
0FF80000
0FF80000
0FF80F00
0FF80F00
0FF81E00
0FF81E00
0FF9FE00
0FFFFE00
0FFFFE00
0FFFFE00
0FF83E00
0FF81E00
0FF80F00
0FF80F00
0FF80100
0FF80000
0FF80010
0FF8001E
0FF8003E
0FF8003E
0FF8007C
0FF800FC
0FFC01FC
3FFF9FFC
7FFFFFFC
FFFFFFFC
FFFFFFFC
ENDCHAR
STARTCHAR 0115
ENCODING 277
SWIDTH 504 0
DWIDTH 28 0
BBX 24 40 2 -1
BITMAP
3E000E
3E001E
3F001E
1F803E
1FE1FC
1FFFFC
0FFFF8
07FFF0
03FFE0
007F80
000000
000000
000000
007F80
03FFE0
07FFF8
0FFFFC
1FC1FC
3F80FE
7F80FE
7F00FF
7F007F
FF007F
FF007F
FFFFFF
FFFFFF
FFFFFF
FFFFFE
FF0000
FF0000
FF8000
7F8000
7FC000
7FE003
3FF00F
1FFFFF
0FFFFE
07FFFC
01FFE0
000E00
ENDCHAR
STARTCHAR 0116
ENCODING 278
SWIDTH 612 0
DWIDTH 34 0
BBX 31 48 2 0
BITMAP
00078000
001FE000
003FE000
003FE000
003FE000
003FE000
001FE000
000F8000
00000000
00000000
FFFFFFF0
FFFFFFF0
FFFFFFF0
7FFFFFF0
1FF807F0
0FF801F0
0FF800F8
0FF800F8
0FF80078
0FF80078
0FF80040
0FF80000
0FF80000
0FF80F00
0FF80F00
0FF81E00
0FF81E00
0FF9FE00
0FFFFE00
0FFFFE00
0FFFFE00
0FF83E00
0FF81E00
0FF80F00
0FF80F00
0FF80100
0FF80000
0FF80010
0FF8001E
0FF8003E
0FF8003E
0FF8007C
0FF800FC
0FFC01FC
3FFF9FFC
7FFFFFFC
FFFFFFFC
FFFFFFFC
ENDCHAR
STARTCHAR 0117
ENCODING 279
SWIDTH 504 0
DWIDTH 28 0
BBX 24 38 2 -1
BITMAP
003E00
007F80
00FF80
00FF80
00FF80
00FF80
007F80
003E00
000000
000000
000000
007F80
03FFE0
07FFF8
0FFFFC
1FC1FC
3F80FE
7F80FE
7F00FF
7F007F
FF007F
FF007F
FFFFFF
FFFFFF
FFFFFF
FFFFFE
FF0000
FF0000
FF8000
7F8000
7FC000
7FE003
3FF00F
1FFFFF
0FFFFE
07FFFC
01FFE0
000E00
ENDCHAR
STARTCHAR 0118
ENCODING 280
SWIDTH 612 0
DWIDTH 34 0
BBX 31 52 2 -14
BITMAP
FFFFFFF0
FFFFFFF0
FFFFFFF0
7FFFFFF0
1FF807F0
0FF801F0
0FF800F8
0FF800F8
0FF80078
0FF80078
0FF80040
0FF80000
0FF80000
0FF80F00
0FF80F00
0FF81E00
0FF81E00
0FF9FE00
0FFFFE00
0FFFFE00
0FFFFE00
0FF83E00
0FF81E00
0FF80F00
0FF80F00
0FF80100
0FF80000
0FF80010
0FF8001E
0FF8003E
0FF8003E
0FF8007C
0FF800FC
0FFC01FC
3FFF9FFC
7FFFFFFC
FFFFFFFC
FFFFFFFC
00000F80
00003E00
00007C00
0000FC00
0001F800
0001F800
0003F800
0003FC00
0003FFE0
0003FFF0
0001FFF0
0001FFE0
0000FF00
00003C00
ENDCHAR
STARTCHAR 0119
ENCODING 281
SWIDTH 504 0
DWIDTH 28 0
BBX 24 40 2 -14
BITMAP
007F80
03FFE0
07FFF8
0FFFFC
1FC1FC
3F80FE
7F80FE
7F00FF
7F007F
FF007F
FF007F
FFFFFF
FFFFFF
FFFFFF
FFFFFE
FF0000
FF0000
FF8000
7F8000
7FC000
7FE003
3FF00F
1FFFFF
0FFFFE
07FFFC
01FFF0
000FE0
0007C0
000FC0
001F80
001F80
003F80
003F80
003FC0
003FFE
003FFE
001FFF
001FFE
000FF0
0001C0
ENDCHAR
STARTCHAR 011A
ENCODING 282
SWIDTH 612 0
DWIDTH 34 0
BBX 31 49 2 0
BITMAP
03C00E00
07E03F00
07F8FE00
01FFFC00
00FFF000
007FE000
003FC000
001F8000
00080000
00000000
00000000
FFFFFFF0
FFFFFFF0
FFFFFFF0
7FFFFFF0
1FF807F0
0FF801F0
0FF800F8
0FF800F8
0FF80078
0FF80078
0FF80040
0FF80000
0FF80000
0FF80F00
0FF80F00
0FF81E00
0FF81E00
0FF9FE00
0FFFFE00
0FFFFE00
0FFFFE00
0FF83E00
0FF81E00
0FF80F00
0FF80F00
0FF80100
0FF80000
0FF80010
0FF8001E
0FF8003E
0FF8003E
0FF8007C
0FF800FC
0FFC01FC
3FFF9FFC
7FFFFFFC
FFFFFFFC
FFFFFFFC
ENDCHAR
STARTCHAR 011B
ENCODING 283
SWIDTH 504 0
DWIDTH 28 0
BBX 24 40 2 0
BITMAP
1E001C
1F007E
1FC0FC
0FF3F8
07FFF0
03FFC0
01FF80
00FF00
007E00
003E00
000000
000000
000000
007F80
03FFE0
07FFF8
0FFFFC
1FC1FC
3F80FE
7F80FE
7F00FF
7F007F
FF007F
FF007F
FFFFFF
FFFFFF
FFFFFF
FFFFFE
FF0000
FF0000
FF8000
7F8000
7FC000
7FE003
3FF00F
1FFFFF
0FFFFE
07FFFC
01FFE0
000E00
ENDCHAR
STARTCHAR 011C
ENCODING 284
SWIDTH 702 0
DWIDTH 39 0
BBX 35 50 2 -1
BITMAP
00007C0000
0000FE0000
0001FF0000
0003FF8000
000FFFC000
001FCFF000
003F03F800
003C01F000
0000004000
0000000000
0000000000
0003FFC000
001FFFFC00
007FFFFF00
01FF87FF80
03FE007F00
07F8003F00
0FF0003F00
1FE0001F00
1FE0001F00
3FC0000F00
3FC0000F00
7FC0000F00
7F80000000
7F80000000
FF80000000
FF80000000
FF80000000
FF80000000
FF80000000
FF80000000
FF8007FFE0
FF8007FFE0
FF8007FFE0
FF8000FF80
FF80007F80
7FC0007F80
7FC0007F80
7FC0007F80
3FE0007F80
3FE0007F80
1FF0007F80
0FF8007F80
0FFC007F80
07FE007F80
03FF81FF80
00FFFFFE00
003FFFF800
000FFFE000
0000300000
ENDCHAR
STARTCHAR 011D
ENCODING 285
SWIDTH 540 0
DWIDTH 30 0
BBX 27 54 2 -14
BITMAP
000E0000
003E0000
007F0000
00FF8000
01FFC000
03FFE000
07F7F000
0FC3F800
3F00FC00
3E007E00
18001800
00000000
00000000
00000000
00FF0000
07FFFFE0
1FFFFFE0
3FC3FFE0
3F81FC20
7F80FE00
7F00FF00
7F00FF00
FF00FF00
FF00FF00
FF00FF00
7F80FF00
7F80FF00
7FC0FE00
3FE3FC00
1FFFF800
0FFFF000
0FFFC000
1F000000
3E000000
3F000000
7FF80000
7FFFFE00
7FFFFF00
7FFFFF80
3FFFFFC0
1FFFFFC0
1FFFFFC0
3EFFFFC0
7E003FC0
FC001FC0
FC001FC0
FC001F80
FC001F80
FE003F00
FF00FE00
7FFFFC00
7FFFF000
1FFFC000
03FC0000
ENDCHAR
STARTCHAR 011E
ENCODING 286
SWIDTH 702 0
DWIDTH 39 0
BBX 35 50 2 -1
BITMAP
000C006000
003E007000
003E00F000
003F81F000
001FFFF000
001FFFE000
000FFFC000
0007FF8000
0000FC0000
0000000000
0000000000
0003FFC000
001FFFFC00
007FFFFF00
01FF87FF80
03FE007F00
07F8003F00
0FF0003F00
1FE0001F00
1FE0001F00
3FC0000F00
3FC0000F00
7FC0000F00
7F80000000
7F80000000
FF80000000
FF80000000
FF80000000
FF80000000
FF80000000
FF80000000
FF8007FFE0
FF8007FFE0
FF8007FFE0
FF8000FF80
FF80007F80
7FC0007F80
7FC0007F80
7FC0007F80
3FE0007F80
3FE0007F80
1FF0007F80
0FF8007F80
0FFC007F80
07FE007F80
03FF81FF80
00FFFFFE00
003FFFF800
000FFFE000
0000300000
ENDCHAR
STARTCHAR 011F
ENCODING 287
SWIDTH 540 0
DWIDTH 30 0
BBX 27 53 2 -14
BITMAP
3C001C00
3C001C00
3E003C00
3F007C00
3FE1FC00
1FFFF800
1FFFF800
0FFFF000
03FFC000
00FF0000
00000000
00000000
00000000
00FF0000
07FFFFE0
1FFFFFE0
3FC3FFE0
3F81FC20
7F80FE00
7F00FF00
7F00FF00
FF00FF00
FF00FF00
FF00FF00
7F80FF00
7F80FF00
7FC0FE00
3FE3FC00
1FFFF800
0FFFF000
0FFFC000
1F000000
3E000000
3F000000
7FF80000
7FFFFE00
7FFFFF00
7FFFFF80
3FFFFFC0
1FFFFFC0
1FFFFFC0
3EFFFFC0
7E003FC0
FC001FC0
FC001FC0
FC001F80
FC001F80
FE003F00
FF00FE00
7FFFFC00
7FFFF000
1FFFC000
03FC0000
ENDCHAR
STARTCHAR 0120
ENCODING 288
SWIDTH 702 0
DWIDTH 39 0
BBX 35 49 2 -1
BITMAP
00007C0000
0000FE0000
0001FF0000
0001FF0000
0003FF0000
0001FF0000
0001FE0000
0000FC0000
0000000000
0000000000
0003FFC000
001FFFFC00
007FFFFF00
01FF87FF80
03FE007F00
07F8003F00
0FF0003F00
1FE0001F00
1FE0001F00
3FC0000F00
3FC0000F00
7FC0000F00
7F80000000
7F80000000
FF80000000
FF80000000
FF80000000
FF80000000
FF80000000
FF80000000
FF8007FFE0
FF8007FFE0
FF8007FFE0
FF8000FF80
FF80007F80
7FC0007F80
7FC0007F80
7FC0007F80
3FE0007F80
3FE0007F80
1FF0007F80
0FF8007F80
0FFC007F80
07FE007F80
03FF81FF80
00FFFFFE00
003FFFF800
000FFFE000
0000300000
ENDCHAR
STARTCHAR 0121
ENCODING 289
SWIDTH 540 0
DWIDTH 30 0
BBX 27 51 2 -14
BITMAP
007E0000
00FF0000
00FF8000
01FF8000
01FF8000
00FF0000
00FF0000
003C0000
00000000
00000000
00000000
00FF0000
07FFFFE0
1FFFFFE0
3FC3FFE0
3F81FC20
7F80FE00
7F00FF00
7F00FF00
FF00FF00
FF00FF00
FF00FF00
7F80FF00
7F80FF00
7FC0FE00
3FE3FC00
1FFFF800
0FFFF000
0FFFC000
1F000000
3E000000
3F000000
7FF80000
7FFFFE00
7FFFFF00
7FFFFF80
3FFFFFC0
1FFFFFC0
1FFFFFC0
3EFFFFC0
7E003FC0
FC001FC0
FC001FC0
FC001F80
FC001F80
FE003F00
FF00FE00
7FFFFC00
7FFFF000
1FFFC000
03FC0000
ENDCHAR
STARTCHAR 0122
ENCODING 290
SWIDTH 702 0
DWIDTH 39 0
BBX 35 55 2 -17
BITMAP
0003FFC000
001FFFFC00
007FFFFF00
01FF87FF80
03FE007F00
07F8003F00
0FF0003F00
1FE0001F00
1FE0001F00
3FC0000F00
3FC0000F00
7FC0000F00
7F80000000
7F80000000
FF80000000
FF80000000
FF80000000
FF80000000
FF80000000
FF80000000
FF8007FFE0
FF8007FFE0
FF8007FFE0
FF8000FF80
FF80007F80
7FC0007F80
7FC0007F80
7FC0007F80
3FE0007F80
3FE0007F80
1FF0007F80
0FF8007F80
0FFC007F80
07FE007F80
03FF81FF80
00FFFFFE00
003FFFF800
000FFFE000
0000300000
0000000000
0000040000
00003E0000
0001FE0000
0001FF0000
0001FF0000
0001FE0000
0000FE0000
00007E0000
00003E0000
00007C0000
00007C0000
0000F80000
0001F00000
0001E00000
0000400000
ENDCHAR
STARTCHAR 0123
ENCODING 291
SWIDTH 540 0
DWIDTH 30 0
BBX 27 54 2 -14
BITMAP
000E0000
003E0000
003C0000
007C0000
00FC0000
00FC0000
00FF0000
01FF0000
01FF0000
00FF0000
00FF0000
00600000
00000000
00000000
00FF0000
07FFFFE0
1FFFFFE0
3FC3FFE0
3F81FC20
7F80FE00
7F00FF00
7F00FF00
FF00FF00
FF00FF00
FF00FF00
7F80FF00
7F80FF00
7FC0FE00
3FE3FC00
1FFFF800
0FFFF000
0FFFC000
1F000000
3E000000
3F000000
7FF80000
7FFFFE00
7FFFFF00
7FFFFF80
3FFFFFC0
1FFFFFC0
1FFFFFC0
3EFFFFC0
7E003FC0
FC001FC0
FC001FC0
FC001F80
FC001F80
FE003F00
FF00FE00
7FFFFC00
7FFFF000
1FFFC000
03FC0000
ENDCHAR
STARTCHAR 0124
ENCODING 292
SWIDTH 774 0
DWIDTH 43 0
BBX 39 49 2 0
BITMAP
00003C0000
00007E0000
0001FF0000
0003FFC000
000FFFE000
001FCFF000
003F03F800
001C00F000
0000000000
0000000000
0000000000
FFFF83FFFE
FFFF83FFFE
FFFF83FFFE
7FFF81FFFE
1FFC007FF0
0FF8003FE0
0FF8003FE0
0FF8003FE0
0FF8003FE0
0FF8003FE0
0FF8003FE0
0FF8003FE0
0FF8003FE0
0FF8003FE0
0FF8003FE0
0FF8003FE0
0FF8003FE0
0FFFFFFFE0
0FFFFFFFE0
0FFFFFFFE0
0FFFFE3FE0
0FF8003FE0
0FF8003FE0
0FF8003FE0
0FF8003FE0
0FF8003FE0
0FF8003FE0
0FF8003FE0
0FF8003FE0
0FF8003FE0
0FF8003FE0
0FF8003FE0
0FF8003FE0
0FF8003FF0
3FFE00FFF8
7FFF81FFFE
FFFF83FFFE
FFFF83FFFE
ENDCHAR
STARTCHAR 0125
ENCODING 293
SWIDTH 648 0
DWIDTH 36 0
BBX 32 49 2 0
BITMAP
00078000
000FE000
003FF000
007FF800
00FFFC00
03F9FE00
07E07F00
03801E00
01000000
00600000
07E00000
FFF00000
FFF00000
FFF00000
3FF00000
1FF00000
1FF00000
0FF00000
0FF00000
0FF00000
0FF00000
0FF00000
0FF00000
0FF03C00
0FF1FF80
0FF3FFE0
0FFFFFF0
0FFFFFF0
0FFF3FF0
0FF00FF8
0FF007F8
0FF007F8
0FF007F8
0FF007F8
0FF007F8
0FF007F8
0FF007F8
0FF007F8
0FF007F8
0FF007F8
0FF007F8
0FF007F8
0FF007F8
1FF007F8
1FF007FC
3FFC1FFE
FFFE3FFF
FFFE3FFF
FFFE3FFF
ENDCHAR
STARTCHAR 0126
ENCODING 294
SWIDTH 774 0
DWIDTH 43 0
BBX 39 38 2 0
BITMAP
FFFF83FFFE
FFFF83FFFE
FFFF83FFFE
7FFF81FFFE
1FFC007FF0
0FF8003FE0
0FF8003FE0
0FF8003FE0
0FF8003FE0
0FF8003FE0
7FFFFFFFFE
7FFFFFFFFC
7FFFFFFFFC
0FF8003FE0
0FF8003FE0
0FF8003FE0
0FF8003FE0
0FFFFFFFE0
0FFFFFFFE0
0FFFFFFFE0
0FFFFE3FE0
0FF8003FE0
0FF8003FE0
0FF8003FE0
0FF8003FE0
0FF8003FE0
0FF8003FE0
0FF8003FE0
0FF8003FE0
0FF8003FE0
0FF8003FE0
0FF8003FE0
0FF8003FE0
0FF8003FF0
3FFE00FFF8
7FFF81FFFE
FFFF83FFFE
FFFF83FFFE
ENDCHAR
STARTCHAR 0127
ENCODING 295
SWIDTH 648 0
DWIDTH 36 0
BBX 34 40 0 0
BITMAP
0018000000
01F8000000
3FFC000000
3FFC000000
3FFC000000
0FFC000000
07FC000000
07FC000000
03FC000000
7FFFE00000
FFFFE00000
FFFFE00000
FFFFC00000
03FC000000
03FC0F0000
03FC7FE000
03FCFFF800
03FFFFFC00
03FFFFFC00
03FFCFFC00
03FC03FE00
03FC01FE00
03FC01FE00
03FC01FE00
03FC01FE00
03FC01FE00
03FC01FE00
03FC01FE00
03FC01FE00
03FC01FE00
03FC01FE00
03FC01FE00
03FC01FE00
03FC01FE00
07FC01FE00
07FC01FF00
0FFF07FF80
3FFF8FFFC0
3FFF8FFFC0
3FFF8FFFC0
ENDCHAR
STARTCHAR 0128
ENCODING 296
SWIDTH 378 0
DWIDTH 21 0
BBX 18 48 2 0
BITMAP
0F0100
3FC380
7FFFC0
FFFF80
FFFF80
F3FF00
C0FE00
001000
000000
000000
FFFF80
FFFF80
FFFF80
7FFF80
1FFC00
0FF800
0FF800
0FF800
0FF800
0FF800
0FF800
0FF800
0FF800
0FF800
0FF800
0FF800
0FF800
0FF800
0FF800
0FF800
0FF800
0FF800
0FF800
0FF800
0FF800
0FF800
0FF800
0FF800
0FF800
0FF800
0FF800
0FF800
0FF800
0FF800
3FFE00
7FFF80
FFFF80
FFFF80
ENDCHAR
STARTCHAR 0129
ENCODING 297
SWIDTH 342 0
DWIDTH 19 0
BBX 19 37 0 0
BITMAP
0FC040
1FE0E0
3FFFE0
7FFFE0
7FFFC0
FFFF80
F07F80
403E00
000000
000000
000000
001800
01FC00
3FFC00
3FFC00
3FFC00
0FFC00
03FC00
03FC00
03FC00
03FC00
03FC00
03FC00
03FC00
03FC00
03FC00
03FC00
03FC00
03FC00
03FC00
03FC00
03FC00
07FE00
0FFF00
3FFFC0
3FFFC0
3FFFC0
ENDCHAR
STARTCHAR 012A
ENCODING 298
SWIDTH 378 0
DWIDTH 21 0
BBX 17 45 2 0
BITMAP
FFFF80
FFFF80
FFFF80
000000
000000
000000
000000
FFFF80
FFFF80
FFFF80
7FFF80
1FFC00
0FF800
0FF800
0FF800
0FF800
0FF800
0FF800
0FF800
0FF800
0FF800
0FF800
0FF800
0FF800
0FF800
0FF800
0FF800
0FF800
0FF800
0FF800
0FF800
0FF800
0FF800
0FF800
0FF800
0FF800
0FF800
0FF800
0FF800
0FF800
0FF800
3FFE00
7FFF80
FFFF80
FFFF80
ENDCHAR
STARTCHAR 012B
ENCODING 299
SWIDTH 342 0
DWIDTH 19 0
BBX 16 35 2 0
BITMAP
FFFE
FFFE
FFFE
FC00
0000
0000
0000
0000
0000
0060
07F0
FFF0
FFF0
FFF0
3FF0
0FF0
0FF0
0FF0
0FF0
0FF0
0FF0
0FF0
0FF0
0FF0
0FF0
0FF0
0FF0
0FF0
0FF0
0FF0
1FF8
3FFC
FFFF
FFFF
FFFF
ENDCHAR
STARTCHAR 012C
ENCODING 300
SWIDTH 378 0
DWIDTH 21 0
BBX 17 48 2 0
BITMAP
F00380
F00380
F80780
FE1F80
7FFF00
7FFF00
3FFE00
0FF800
000000
000000
FFFF80
FFFF80
FFFF80
7FFF80
1FFC00
0FF800
0FF800
0FF800
0FF800
0FF800
0FF800
0FF800
0FF800
0FF800
0FF800
0FF800
0FF800
0FF800
0FF800
0FF800
0FF800
0FF800
0FF800
0FF800
0FF800
0FF800
0FF800
0FF800
0FF800
0FF800
0FF800
0FF800
0FF800
0FF800
3FFE00
7FFF80
FFFF80
FFFF80
ENDCHAR
STARTCHAR 012D
ENCODING 301
SWIDTH 342 0
DWIDTH 19 0
BBX 19 39 0 0
BITMAP
F801E0
F801C0
7C03C0
7C07C0
7F0FC0
7FFFC0
3FFF80
1FFF00
0FFE00
03F800
000000
000000
000000
001800
01FC00
3FFC00
3FFC00
3FFC00
0FFC00
03FC00
03FC00
03FC00
03FC00
03FC00
03FC00
03FC00
03FC00
03FC00
03FC00
03FC00
03FC00
03FC00
03FC00
03FC00
07FE00
0FFF00
3FFFC0
3FFFC0
3FFFC0
ENDCHAR
STARTCHAR 012E
ENCODING 302
SWIDTH 378 0
DWIDTH 21 0
BBX 17 52 2 -14
BITMAP
FFFF80
FFFF80
FFFF80
7FFF80
1FFC00
0FF800
0FF800
0FF800
0FF800
0FF800
0FF800
0FF800
0FF800
0FF800
0FF800
0FF800
0FF800
0FF800
0FF800
0FF800
0FF800
0FF800
0FF800
0FF800
0FF800
0FF800
0FF800
0FF800
0FF800
0FF800
0FF800
0FF800
0FF800
0FF800
3FFE00
7FFF80
FFFF80
FFFF80
01E000
07C000
0F8000
1F0000
3F0000
3F0000
7F0000
7F8000
7FFC00
7FFE00
3FFE00
3FFC00
1FE000
078000
ENDCHAR
STARTCHAR 012F
ENCODING 303
SWIDTH 342 0
DWIDTH 19 0
BBX 16 52 2 -14
BITMAP
0FE0
1FF0
1FF0
1FF0
1FF0
1FF0
0FE0
0300
0000
0000
0000
0000
0060
07F0
FFF0
FFF0
FFF0
3FF0
0FF0
0FF0
0FF0
0FF0
0FF0
0FF0
0FF0
0FF0
0FF0
0FF0
0FF0
0FF0
0FF0
0FF0
0FF0
1FF8
3FFC
FFFF
FFFF
FFFF
03E0
0F80
1F00
3F00
3F00
7F00
7F00
7F80
7FFC
7FFC
7FFC
3FF8
1FE0
0780
ENDCHAR
STARTCHAR 0130
ENCODING 304
SWIDTH 378 0
DWIDTH 21 0
BBX 17 48 2 0
BITMAP
03E000
07F000
0FF800
0FF800
0FF800
0FF800
07F800
03E000
000000
000000
FFFF80
FFFF80
FFFF80
7FFF80
1FFC00
0FF800
0FF800
0FF800
0FF800
0FF800
0FF800
0FF800
0FF800
0FF800
0FF800
0FF800
0FF800
0FF800
0FF800
0FF800
0FF800
0FF800
0FF800
0FF800
0FF800
0FF800
0FF800
0FF800
0FF800
0FF800
0FF800
0FF800
0FF800
0FF800
3FFE00
7FFF80
FFFF80
FFFF80
ENDCHAR
STARTCHAR 0131
ENCODING 305
SWIDTH 342 0
DWIDTH 19 0
BBX 16 26 2 0
BITMAP
0060
07F0
FFF0
FFF0
FFF0
3FF0
0FF0
0FF0
0FF0
0FF0
0FF0
0FF0
0FF0
0FF0
0FF0
0FF0
0FF0
0FF0
0FF0
0FF0
0FF0
1FF8
3FFC
FFFF
FFFF
FFFF
ENDCHAR
STARTCHAR 0132
ENCODING 306
SWIDTH 684 0
DWIDTH 38 0
BBX 34 52 2 -14
BITMAP
FFFFBFFFC0
FFFFBFFFC0
FFFFBFFFC0
7FFFBFFFC0
1FFC07FE00
0FF803FE00
0FF803FE00
0FF803FC00
0FF803FC00
0FF803FC00
0FF803FC00
0FF803FC00
0FF803FC00
0FF803FC00
0FF803FC00
0FF803FC00
0FF803FC00
0FF803FC00
0FF803FC00
0FF803FC00
0FF803FC00
0FF803FC00
0FF803FC00
0FF803FC00
0FF803FC00
0FF803FC00
0FF803FC00
0FF803FC00
0FF803FC00
0FF803FC00
0FF803FC00
0FF803FC00
0FF803FC00
0FF803FC00
3FFE03FC00
7FFF83FC00
FFFF83FC00
FFFF83FC00
000003FC00
000003FC00
000003F800
000007F800
000007F000
000007F000
00000FE000
00001FE000
00001FC000
00003F8000
00007E0000
0000FC0000
0000F00000
0000400000
ENDCHAR
STARTCHAR 0133
ENCODING 307
SWIDTH 594 0
DWIDTH 33 0
BBX 28 52 2 -14
BITMAP
0FE00FE0
1FF01FF0
1FF01FF0
1FF01FF0
1FF01FF0
1FF01FF0
0FE00FE0
03000300
00000000
00000000
00000000
00000000
00600060
07F007F0
FFF0FFF0
FFF0FFF0
FFF0FFF0
3FF03FF0
0FF01FF0
0FF00FF0
0FF00FF0
0FF00FF0
0FF00FF0
0FF00FF0
0FF00FF0
0FF00FF0
0FF00FF0
0FF00FF0
0FF00FF0
0FF00FF0
0FF00FF0
0FF00FF0
0FF00FF0
1FF80FF0
3FFC0FF0
FFFF0FF0
FFFF0FF0
FFFF0FF0
00000FE0
00000FE0
00000FE0
00001FC0
00001FC0
00001F80
00003F80
00007F00
00007E00
0000FC00
0001F800
0001F000
0001E000
00008000
ENDCHAR
STARTCHAR 0134
ENCODING 308
SWIDTH 360 0
DWIDTH 20 0
BBX 18 63 0 -14
BITMAP
007000
01F800
03FC00
07FE00
0FFF00
1FFF00
3F3F80
3E0FC0
380780
000200
000000
3FFFC0
3FFFC0
3FFFC0
3FFFC0
07FE00
07FE00
03FC00
03FC00
03FC00
03FC00
03FC00
03FC00
03FC00
03FC00
03FC00
03FC00
03FC00
03FC00
03FC00
03FC00
03FC00
03FC00
03FC00
03FC00
03FC00
03FC00
03FC00
03FC00
03FC00
03FC00
03FC00
03FC00
03FC00
03FC00
03FC00
03FC00
03FC00
03FC00
03F800
07F800
07F800
07F800
07F000
0FF000
0FE000
1FC000
3F8000
7F0000
FE0000
FC0000
F00000
400000
ENDCHAR
STARTCHAR 0135
ENCODING 309
SWIDTH 306 0
DWIDTH 17 0
BBX 17 54 1 -14
BITMAP
00C000
03E000
07F000
0FF000
0FF800
1FFC00
3EFE00
7C7E00
F83F00
F01F80
600E00
000000
000000
000000
003000
03F800
7FF800
7FF800
7FF800
1FF800
0FF800
07F800
07F800
07F800
07F800
07F800
07F800
07F800
07F800
07F800
07F800
07F800
07F800
07F800
07F800
07F800
07F800
07F800
07F800
07F800
07F000
07F000
07F000
0FE000
0FE000
0FC000
1FC000
3F8000
3F0000
7E0000
FC0000
F80000
F00000
400000
ENDCHAR
STARTCHAR 0136
ENCODING 310
SWIDTH 720 0
DWIDTH 40 0
BBX 37 54 2 -17
BITMAP
FFFF83FFE0
FFFF83FFE0
FFFF83FFE0
7FFF83FFE0
1FFC00FF00
0FF800FC00
0FF801F800
0FF801F000
0FF803E000
0FF807C000
0FF80F8000
0FF81F0000
0FF83E0000
0FF87C0000
0FF8F80000
0FF9F00000
0FFBF00000
0FFFF80000
0FFFFC0000
0FFFFC0000
0FFFFE0000
0FFBFF0000
0FFBFF8000
0FF9FFC000
0FF8FFC000
0FF87FE000
0FF83FF000
0FF83FF000
0FF81FF800
0FF80FFC00
0FF807FE00
0FF807FE00
0FF803FF00
0FF803FFC0
3FFE01FFF0
7FFF80FFF8
FFFF80FFF8
FFFF807FF8
0000000000
0000000000
0000080000
00007C0000
0003FC0000
0003FC0000
0003FC0000
0007FC0000
0001FC0000
0000FC0000
0000FC0000
0000F80000
0000F80000
0001F00000
0003E00000
0003C00000
ENDCHAR
STARTCHAR 0137
ENCODING 311
SWIDTH 594 0
DWIDTH 33 0
BBX 32 56 2 -17
BITMAP
00600000
07E00000
FFF00000
FFF00000
FFF00000
3FF00000
1FF00000
0FF00000
0FF00000
0FF00000
0FF00000
0FF00000
0FF00000
0FF00000
0FF0380E
0FF03FFE
0FF03FFC
0FF03FFC
0FF00FE0
0FF01F80
0FF01F00
0FF03E00
0FF07C00
0FF0F000
0FF3F000
0FF7F000
0FFFF800
0FF7FC00
0FF7FE00
0FF3FF00
0FF1FF00
0FF0FF80
0FF07FC0
0FF07FE0
1FF03FF0
1FF01FF8
3FF80FFE
FFFE07FF
FFFE07FF
FFFE03FE
00000000
00000000
00008000
0007C000
001FE000
003FE000
003FE000
003FE000
001FE000
0007E000
0007C000
0007C000
00078000
000F0000
001F0000
003C0000
ENDCHAR
STARTCHAR 0138
ENCODING 312
SWIDTH 612 0
DWIDTH 34 0
BBX 31 26 2 -1
BITMAP
0060F838
07F07FF8
FFF07FF8
FFF07FF8
FFF01FC0
3FF03F00
0FF07E00
0FF0FC00
0FF1F000
0FF3E000
0FF7C000
0FFFE000
0FFFF000
0FFFF800
0FFFFC00
0FF7FE00
0FF3FF00
0FF1FF80
0FF0FF80
0FF0FFC0
0FF07FE0
1FF03FF0
3FFC1FFC
FFFE0FFE
FFFE0FFE
FFFE07FE
ENDCHAR
STARTCHAR 0139
ENCODING 313
SWIDTH 594 0
DWIDTH 33 0
BBX 30 49 2 0
BITMAP
007F0000
007E0000
00FC0000
00FC0000
01F80000
01F00000
03E00000
03C00000
00000000
00000000
00000000
FFFF8000
FFFF8000
FFFF8000
7FFF8000
1FFC0000
0FF80000
0FF80000
0FF80000
0FF80000
0FF80000
0FF80000
0FF80000
0FF80000
0FF80000
0FF80000
0FF80000
0FF80000
0FF80000
0FF80000
0FF80000
0FF80000
0FF80000
0FF80000
0FF80000
0FF80000
0FF80000
0FF80000
0FF80020
0FF8003C
0FF8003C
0FF8007C
0FF8007C
0FF800FC
0FFC01FC
3FFF9FF8
7FFFFFF8
FFFFFFF8
FFFFFFF8
ENDCHAR
STARTCHAR 013A
ENCODING 314
SWIDTH 324 0
DWIDTH 18 0
BBX 15 51 2 0
BITMAP
0078
00FE
01F8
01F8
03F0
03E0
07C0
0780
0000
0000
0000
0060
07E0
FFF0
FFF0
FFF0
3FF0
1FF0
0FF0
0FF0
0FF0
0FF0
0FF0
0FF0
0FF0
0FF0
0FF0
0FF0
0FF0
0FF0
0FF0
0FF0
0FF0
0FF0
0FF0
0FF0
0FF0
0FF0
0FF0
0FF0
0FF0
0FF0
0FF0
0FF0
0FF0
1FF0
1FF0
3FF8
FFFE
FFFE
FFFE
ENDCHAR
STARTCHAR 013B
ENCODING 315
SWIDTH 594 0
DWIDTH 33 0
BBX 30 55 2 -17
BITMAP
FFFF8000
FFFF8000
FFFF8000
7FFF8000
1FFC0000
0FF80000
0FF80000
0FF80000
0FF80000
0FF80000
0FF80000
0FF80000
0FF80000
0FF80000
0FF80000
0FF80000
0FF80000
0FF80000
0FF80000
0FF80000
0FF80000
0FF80000
0FF80000
0FF80000
0FF80000
0FF80000
0FF80000
0FF80020
0FF8003C
0FF8003C
0FF8007C
0FF8007C
0FF800FC
0FFC01FC
3FFF9FF8
7FFFFFF8
FFFFFFF8
FFFFFFF8
00000000
00000000
0000C000
0003E000
001FE000
001FE000
003FE000
003FE000
000FE000
0007E000
0007C000
0007C000
00078000
000F8000
001F0000
003E0000
00080000
ENDCHAR
STARTCHAR 013C
ENCODING 316
SWIDTH 324 0
DWIDTH 18 0
BBX 15 57 2 -17
BITMAP
0060
07E0
FFF0
FFF0
FFF0
3FF0
1FF0
0FF0
0FF0
0FF0
0FF0
0FF0
0FF0
0FF0
0FF0
0FF0
0FF0
0FF0
0FF0
0FF0
0FF0
0FF0
0FF0
0FF0
0FF0
0FF0
0FF0
0FF0
0FF0
0FF0
0FF0
0FF0
0FF0
0FF0
1FF0
1FF0
3FF8
FFFE
FFFE
FFFE
0000
0000
0040
03E0
1FF0
1FF0
1FF0
1FF0
0FF0
07E0
03E0
03C0
07C0
0F80
0F00
1E00
0400
ENDCHAR
STARTCHAR 013D
ENCODING 317
SWIDTH 594 0
DWIDTH 33 0
BBX 30 40 2 0
BITMAP
00000038
000003FC
FFFF83FC
FFFF87FC
FFFF87FC
7FFF87FC
1FFC07FC
0FF800FC
0FF800FC
0FF800F8
0FF800F8
0FF800F0
0FF800F0
0FF801E0
0FF803C0
0FF80180
0FF80000
0FF80000
0FF80000
0FF80000
0FF80000
0FF80000
0FF80000
0FF80000
0FF80000
0FF80000
0FF80000
0FF80000
0FF80000
0FF80020
0FF8003C
0FF8003C
0FF8007C
0FF8007C
0FF800FC
0FFC01FC
3FFF9FF8
7FFFFFF8
FFFFFFF8
FFFFFFF8
ENDCHAR
STARTCHAR 013E
ENCODING 318
SWIDTH 486 0
DWIDTH 27 0
BBX 24 40 2 0
BITMAP
00600E
07E0FE
FFF1FF
FFF1FF
FFF1FF
3FF1FF
1FF1FF
0FF03F
0FF03E
0FF03E
0FF03E
0FF03C
0FF07C
0FF078
0FF0F0
0FF060
0FF000
0FF000
0FF000
0FF000
0FF000
0FF000
0FF000
0FF000
0FF000
0FF000
0FF000
0FF000
0FF000
0FF000
0FF000
0FF000
0FF000
0FF000
1FF000
1FF000
3FF800
FFFE00
FFFE00
FFFE00
ENDCHAR
STARTCHAR 013F
ENCODING 319
SWIDTH 594 0
DWIDTH 33 0
BBX 30 38 2 0
BITMAP
FFFF8000
FFFF8000
FFFF8000
7FFF8000
1FFC0000
0FF80000
0FF80000
0FF80000
0FF80000
0FF80000
0FF80000
0FF80000
0FF80000
0FF80000
0FF80040
0FF801F0
0FF803F8
0FF803F8
0FF803F8
0FF803F8
0FF801F0
0FF80000
0FF80000
0FF80000
0FF80000
0FF80000
0FF80000
0FF80020
0FF8003C
0FF8003C
0FF8007C
0FF8007C
0FF800FC
0FFC01FC
3FFF9FF8
7FFFFFF8
FFFFFFF8
FFFFFFF8
ENDCHAR
STARTCHAR 0140
ENCODING 320
SWIDTH 324 0
DWIDTH 18 0
BBX 21 40 2 0
BITMAP
006000
07E000
FFF000
FFF000
FFF000
3FF000
1FF000
0FF000
0FF000
0FF000
0FF000
0FF000
0FF000
0FF000
0FF000
0FF000
0FF000
0FF1E0
0FF3F0
0FF3F8
0FF3F8
0FF3F8
0FF3F0
0FF1E0
0FF000
0FF000
0FF000
0FF000
0FF000
0FF000
0FF000
0FF000
0FF000
0FF000
1FF000
1FF000
3FF800
FFFE00
FFFE00
FFFE00
ENDCHAR
STARTCHAR 0141
ENCODING 321
SWIDTH 594 0
DWIDTH 33 0
BBX 31 38 1 0
BITMAP
7FFFC000
7FFFC000
7FFFC000
3FFFC000
0FFE0000
07FC0000
07FC0000
07FC0000
07FC0000
07FC0000
07FC0000
07FC0000
07FC0000
07FC6000
07FDE000
07FFE000
07FFE000
07FFC000
07FF0000
07FE0000
0FFC0000
1FFC0000
7FFC0000
FFFC0000
FFFC0000
77FC0000
47FC0000
07FC0010
07FC001E
07FC001E
07FC003E
07FC003E
07FC007E
07FE00FE
1FFFCFFC
3FFFFFFC
7FFFFFFC
7FFFFFFC
ENDCHAR
STARTCHAR 0142
ENCODING 322
SWIDTH 324 0
DWIDTH 18 0
BBX 19 40 0 0
BITMAP
001800
01F800
3FFC00
3FFC00
3FFC00
0FFC00
07FC00
03FC00
03FC00
03FC00
03FC00
03FC00
03FC00
03FC00
03FC00
03FC60
03FDE0
03FFE0
03FFE0
03FF80
03FF00
07FC00
0FFC00
3FFC00
7FFC00
FFFC00
FBFC00
73FC00
43FC00
03FC00
03FC00
03FC00
03FC00
03FC00
07FC00
07FC00
0FFE00
3FFF80
3FFF80
3FFF80
ENDCHAR
STARTCHAR 0143
ENCODING 323
SWIDTH 720 0
DWIDTH 40 0
BBX 36 49 2 0
BITMAP
00001FC000
00003F8000
00003F0000
00007E0000
00007C0000
00007C0000
0000F80000
0000F00000
0000000000
0000000000
0000000000
FFE000FFF0
FFF000FFF0
FFF0007FF0
FFF8007FF0
1FFC000FC0
0FFE000F80
0FFE000780
0FFF000780
0FFF800780
0FFFC00780
0FFFC00780
0F7FE00780
0F7FF00780
0F3FF80780
0F1FF80780
0F0FFC0780
0F0FFE0780
0F07FF0780
0F03FF0780
0F01FF8780
0F01FFC780
0F00FFE780
0F007FE780
0F003FF780
0F003FFF80
0F001FFF80
0F000FFF80
0F0007FF80
0F0007FF80
0F0003FF80
0F0001FF80
0F0000FF80
0F8000FF80
1F80007F80
7FE0003F80
FFF0001F80
FFF0001F80
FFF0000F80
ENDCHAR
STARTCHAR 0144
ENCODING 324
SWIDTH 648 0
DWIDTH 36 0
BBX 33 40 2 0
BITMAP
00003F8000
00007F0000
00007E0000
00007E0000
0000FC0000
0000F80000
0000F00000
0001F00000
0001E00000
0003C00000
0000400000
0000000000
0000000000
0000000000
00601C0000
07F0FFC000
FFF3FFE000
FFF7FFF000
FFFFFFF000
3FFE1FF800
1FF00FF800
0FF007F800
0FF007FC00
0FF007FC00
0FF003FC00
0FF003FC00
0FF003FC00
0FF003FC00
0FF003FC00
0FF003FC00
0FF003F800
0FF003F800
0FF003FC00
0FF007FC00
0FF007FC00
1FF807FC00
3FFC0FFE00
FFFE3FFF80
FFFE3FFF80
FFFF3FFF80
ENDCHAR
STARTCHAR 0145
ENCODING 325
SWIDTH 720 0
DWIDTH 40 0
BBX 36 54 2 -17
BITMAP
FFE000FFF0
FFF000FFF0
FFF0007FF0
FFF8007FF0
1FFC000FC0
0FFE000F80
0FFE000780
0FFF000780
0FFF800780
0FFFC00780
0FFFC00780
0F7FE00780
0F7FF00780
0F3FF80780
0F1FF80780
0F0FFC0780
0F0FFE0780
0F07FF0780
0F03FF0780
0F01FF8780
0F01FFC780
0F00FFE780
0F007FE780
0F003FF780
0F003FFF80
0F001FFF80
0F000FFF80
0F0007FF80
0F0007FF80
0F0003FF80
0F0001FF80
0F0000FF80
0F8000FF80
1F80007F80
7FE0003F80
FFF0001F80
FFF0001F80
FFF0000F80
0000000000
0000000000
0000040000
00003E0000
0000FF0000
0001FF0000
0001FF0000
0001FF0000
0000FF0000
00003F0000
00003E0000
00003E0000
00003C0000
0000780000
0000F80000
0001E00000
ENDCHAR
STARTCHAR 0146
ENCODING 326
SWIDTH 648 0
DWIDTH 36 0
BBX 33 43 2 -17
BITMAP
00601C0000
07F0FFC000
FFF3FFE000
FFF7FFF000
FFFFFFF000
3FFE1FF800
1FF00FF800
0FF007F800
0FF007FC00
0FF007FC00
0FF003FC00
0FF003FC00
0FF003FC00
0FF003FC00
0FF003FC00
0FF003FC00
0FF003F800
0FF003F800
0FF003FC00
0FF007FC00
0FF007FC00
1FF807FC00
3FFC0FFE00
FFFE3FFF80
FFFE3FFF80
FFFF3FFF80
0000000000
0000000000
0000200000
0001F00000
000FF80000
000FF80000
000FF80000
000FF80000
0007F80000
0001F00000
0001F00000
0001F00000
0003E00000
0007C00000
0007800000
000F000000
0002000000
ENDCHAR
STARTCHAR 0147
ENCODING 327
SWIDTH 720 0
DWIDTH 40 0
BBX 36 49 2 0
BITMAP
003800E000
007E03E000
007F8FE000
003FFFC000
000FFF0000
0007FE0000
0003F80000
0001F00000
0000000000
0000000000
0000000000
FFE000FFF0
FFF000FFF0
FFF0007FF0
FFF8007FF0
1FFC000FC0
0FFE000F80
0FFE000780
0FFF000780
0FFF800780
0FFFC00780
0FFFC00780
0F7FE00780
0F7FF00780
0F3FF80780
0F1FF80780
0F0FFC0780
0F0FFE0780
0F07FF0780
0F03FF0780
0F01FF8780
0F01FFC780
0F00FFE780
0F007FE780
0F003FF780
0F003FFF80
0F001FFF80
0F000FFF80
0F0007FF80
0F0007FF80
0F0003FF80
0F0001FF80
0F0000FF80
0F8000FF80
1F80007F80
7FE0003F80
FFF0001F80
FFF0001F80
FFF0000F80
ENDCHAR
STARTCHAR 0148
ENCODING 328
SWIDTH 648 0
DWIDTH 36 0
BBX 33 39 2 1
BITMAP
01C001C000
03F007E000
01FC1FC000
00FE3F0000
007FFE0000
003FFC0000
001FF80000
000FF00000
0007E00000
0003C00000
0000000000
0000000000
0000000000
00601C0000
07F0FFC000
FFF3FFE000
FFF7FFF000
FFFFFFF000
3FFE1FF800
1FF00FF800
0FF007F800
0FF007FC00
0FF007FC00
0FF003FC00
0FF003FC00
0FF003FC00
0FF003FC00
0FF003FC00
0FF003FC00
0FF003F800
0FF003F800
0FF003FC00
0FF007FC00
0FF007FC00
1FF807FC00
3FFC0FFE00
FFFE3FFF80
FFFE3FFF80
FFFF3FFF80
ENDCHAR
STARTCHAR 0149
ENCODING 329
SWIDTH 846 0
DWIDTH 47 0
BBX 41 40 4 0
BITMAP
060000000000
FF0000000000
FF8000000000
FF8000000000
FF8000000000
FF8000000000
FF8000000000
3F0000000000
1F0000000000
1F0000000000
1E0000000000
1E0000000000
3C0000000000
7C0000000000
7800201E0000
F007F0FFC000
E07FF1FFE000
00FFF7FFF000
00FFFFFFF800
001FFF1FF800
000FF007FC00
000FF007FC00
000FF003FC00
000FF003FC00
000FF003FC00
000FF003FC00
000FF003FC00
000FF003FC00
000FF003FC00
000FF003FC00
000FF003FC00
000FF003FC00
000FF003FC00
000FF003FC00
000FF803FC00
000FF807FE00
003FFC0FFE00
00FFFF1FFF80
00FFFF3FFF80
00FFFF3FFF80
ENDCHAR
STARTCHAR 014A
ENCODING 330
SWIDTH 684 0
DWIDTH 38 0
BBX 34 52 2 -14
BITMAP
00300FE000
07F87FF800
7FF8FFFE00
7FF9FFFF00
FFFBFFFF00
1FFFE3FF80
0FF700FF80
0FFE007FC0
0FFE007FC0
0FFC007FC0
0FFC003FC0
0FF8003FC0
0FF8003FC0
0FF8003FC0
0FF8003FC0
0FF8003FC0
0FF8003FC0
0FF8003FC0
0FF8003FC0
0FF8003FC0
0FF8003FC0
0FF8003FC0
0FF8003FC0
0FF8003FC0
0FF8003FC0
0FF8003FC0
0FF8003FC0
0FF8003FC0
0FF8003FC0
0FF8003FC0
0FF8003FC0
0FF8003FC0
0FF8003FC0
0FFC003FC0
3FFE003FC0
7FFF803FC0
FFFF803FC0
FFFF803FC0
0000003F80
0000003F80
0000003F80
0000007F00
0000007F00
0000007F00
000000FE00
0000FFFE00
0000FFFC00
0000FFF800
0000FFF000
0000FFE000
00007FC000
00001F0000
ENDCHAR
STARTCHAR 014B
ENCODING 331
SWIDTH 630 0
DWIDTH 35 0
BBX 30 40 2 -14
BITMAP
00601E00
07F0FFC0
FFF3FFE0
FFF7FFF0
FFFFFFF0
3FFF3FF8
1FFE0FF8
0FFC07F8
0FF807FC
0FF807FC
0FF003FC
0FF003FC
0FF003FC
0FF003FC
0FF003FC
0FF003FC
0FF003FC
0FF003FC
0FF003FC
0FF003FC
0FF003FC
1FF803FC
3FFC03F8
FFFE03F8
FFFE03F8
FFFF03F8
000003F8
000003F8
000007F0
000007F0
000007F0
000007E0
00000FE0
000FFFC0
001FFF80
001FFF80
001FFF00
001FFE00
000FF800
0001E000
ENDCHAR
STARTCHAR 014C
ENCODING 332
SWIDTH 738 0
DWIDTH 41 0
BBX 38 46 2 -1
BITMAP
00FFFFF800
00FFFFF800
00FFFFF800
0000000000
0000000000
0000000000
0000000000
0003FF0000
001FFFE000
007FFFF800
01FF9FFC00
03FC03FF00
07F801FF80
0FF000FFC0
1FE0007FC0
1FC0003FE0
3FC0003FE0
3FC0001FF0
7F80001FF0
7F80000FF8
7F80000FF8
FF80000FF8
FF80000FF8
FF800007F8
FF800007FC
FF800007FC
FF800007FC
FF800007F8
FF800007F8
FF800007F8
FF800007F8
7F80000FF8
7FC0000FF8
7FC0000FF0
7FC0000FF0
3FE0001FE0
3FE0001FE0
1FF0001FC0
0FF8003FC0
07FC007F80
07FE00FF00
01FF83FE00
00FFFFF800
003FFFF000
000FFF8000
0000300000
ENDCHAR
STARTCHAR 014D
ENCODING 333
SWIDTH 558 0
DWIDTH 31 0
BBX 28 36 2 -1
BITMAP
0FFFFF00
1FFFFF00
1FFFFF00
00000000
00000000
00000000
00000000
00000000
00000000
003FC000
01FFF800
07FFFE00
0FFBFF00
1FC0FF80
3FC07FC0
3F803FC0
7F803FE0
7F001FE0
FF001FE0
FF001FF0
FF001FF0
FF000FF0
FF000FF0
FF000FF0
FF000FF0
FF800FE0
FF801FE0
7F801FE0
7FC01FC0
3FC03FC0
3FE03F80
1FF0FF00
0FFFFE00
07FFFC00
00FFF000
00060000
ENDCHAR
STARTCHAR 014E
ENCODING 334
SWIDTH 738 0
DWIDTH 41 0
BBX 38 50 2 -1
BITMAP
000C00C000
003C00F000
003E00F000
003F03F000
003FFFE000
001FFFE000
000FFFC000
0007FF8000
0000FC0000
0000000000
0000000000
0003FF0000
001FFFE000
007FFFF800
01FF9FFC00
03FC03FF00
07F801FF80
0FF000FFC0
1FE0007FC0
1FC0003FE0
3FC0003FE0
3FC0001FF0
7F80001FF0
7F80000FF8
7F80000FF8
FF80000FF8
FF80000FF8
FF800007F8
FF800007FC
FF800007FC
FF800007FC
FF800007F8
FF800007F8
FF800007F8
FF800007F8
7F80000FF8
7FC0000FF8
7FC0000FF0
7FC0000FF0
3FE0001FE0
3FE0001FE0
1FF0001FC0
0FF8003FC0
07FC007F80
07FE00FF00
01FF83FE00
00FFFFF800
003FFFF000
000FFF8000
0000300000
ENDCHAR
STARTCHAR 014F
ENCODING 335
SWIDTH 558 0
DWIDTH 31 0
BBX 28 40 2 -1
BITMAP
1F000F00
1F000F00
1F800F00
0FC01F00
0FF0FE00
0FFFFE00
07FFFC00
03FFF800
01FFF000
007F8000
00000000
00000000
00000000
003FC000
01FFF800
07FFFE00
0FFBFF00
1FC0FF80
3FC07FC0
3F803FC0
7F803FE0
7F001FE0
FF001FE0
FF001FF0
FF001FF0
FF000FF0
FF000FF0
FF000FF0
FF000FF0
FF800FE0
FF801FE0
7F801FE0
7FC01FC0
3FC03FC0
3FE03F80
1FF0FF00
0FFFFE00
07FFFC00
00FFF000
00060000
ENDCHAR
STARTCHAR 0150
ENCODING 336
SWIDTH 738 0
DWIDTH 41 0
BBX 38 50 2 -1
BITMAP
0003F8FE00
0007F1FC00
0007E1F800
0007C1F000
000FC3F000
000F83E000
001F07C000
000E038000
0000000000
0000000000
0000000000
0003FF0000
001FFFE000
007FFFF800
01FF9FFC00
03FC03FF00
07F801FF80
0FF000FFC0
1FE0007FC0
1FC0003FE0
3FC0003FE0
3FC0001FF0
7F80001FF0
7F80000FF8
7F80000FF8
FF80000FF8
FF80000FF8
FF800007F8
FF800007FC
FF800007FC
FF800007FC
FF800007F8
FF800007F8
FF800007F8
FF800007F8
7F80000FF8
7FC0000FF8
7FC0000FF0
7FC0000FF0
3FE0001FE0
3FE0001FE0
1FF0001FC0
0FF8003FC0
07FC007F80
07FE00FF00
01FF83FE00
00FFFFF800
003FFFF000
000FFF8000
0000300000
ENDCHAR
STARTCHAR 0151
ENCODING 337
SWIDTH 558 0
DWIDTH 31 0
BBX 28 41 2 -1
BITMAP
003F8FE0
007F1FC0
007E1F80
00FC1F00
00FC3F00
00F83E00
01F07C00
01F07C00
03E0F800
03C0F000
00401000
00000000
00000000
00000000
003FC000
01FFF800
07FFFE00
0FFBFF00
1FC0FF80
3FC07FC0
3F803FC0
7F803FE0
7F001FE0
FF001FE0
FF001FF0
FF001FF0
FF000FF0
FF000FF0
FF000FF0
FF000FF0
FF800FE0
FF801FE0
7F801FE0
7FC01FC0
3FC03FC0
3FE03F80
1FF0FF00
0FFFFE00
07FFFC00
00FFF000
00060000
ENDCHAR
STARTCHAR 0152
ENCODING 338
SWIDTH 990 0
DWIDTH 55 0
BBX 52 39 2 -1
BITMAP
0003FFFFFFFF80
003FFFFFFFFF80
00FFFFFFFFFF80
01FFFFFFFFFF80
03FC07FC003F80
07F001FE000F80
0FE000FF000780
1FE000FF8007C0
3FC0007F8007C0
3FC0007FC003C0
3F80003FC00000
7F80003FE00000
7F80003FE00000
7F80001FE07800
FF80001FE07800
FF80001FF07800
FF00001FF0F800
FF00001FF3F800
FF00001FFFF800
FF00001FFFF800
FF80001FFFF800
FF80001FF1F800
FF80001FE0F800
FF80001FE07800
FF80001FE07800
7F80001FE03800
7FC0001FE00000
7FC0003FC00000
3FC0003FC001E0
3FE0003F8001F0
1FE0007F8003E0
1FF0007F0003E0
0FF800FE0007E0
07FC01FC000FE0
03FF07F800FFE0
01FFFFFFFFFFC0
007FFFFFFFFFC0
000FFFFFFFFFC0
00007000000000
ENDCHAR
STARTCHAR 0153
ENCODING 339
SWIDTH 810 0
DWIDTH 45 0
BBX 42 27 2 -1
BITMAP
007F801FC000
01FFF07FF800
07FFFDFFFC00
0FF7FFFFFE00
1FC0FFF07F00
3FC0FFF07F00
7F807FE03F80
7F803FE03F80
7F003FE03FC0
FF003FC03FC0
FF003FC03FC0
FF003FFFFFC0
FF003FFFFFC0
FF001FFFFF80
FF001FFFFF80
FF001FE00000
FF803FE00000
FF803FE00000
7F803FF00000
7F803FF00000
3FC07FF80180
3FE07FFC07C0
1FF0FFFFFFC0
0FFFFDFFFF80
07FFF8FFFE00
01FFE03FF800
000C00010000
ENDCHAR
STARTCHAR 0154
ENCODING 340
SWIDTH 702 0
DWIDTH 39 0
BBX 36 49 2 -1
BITMAP
00007F0000
0000FE0000
0001FC0000
0001F80000
0001F00000
0003E00000
0003C00000
0007C00000
0000000000
0000000000
0000000000
FFFFFE0000
FFFFFFC000
FFFFFFF000
7FFFFFF800
1FF80FFC00
0FF807FE00
0FF803FE00
0FF801FF00
0FF801FF00
0FF801FF00
0FF801FF00
0FF801FF00
0FF801FF00
0FF801FF00
0FF801FE00
0FF803FE00
0FF807FC00
0FF80FF800
0FF87FF000
0FFFFFE000
0FFFFF8000
0FFFFF0000
0FF8FF8000
0FF87FC000
0FF83FE000
0FF81FF000
0FF81FF000
0FF80FF800
0FF80FF800
0FF807FC00
0FF807FC00
0FF803FE00
0FF803FF00
0FF803FF80
3FFE01FFE0
7FFF01FFF0
FFFF00FFF0
FFFF00FFF0
ENDCHAR
STARTCHAR 0155
ENCODING 341
SWIDTH 468 0
DWIDTH 26 0
BBX 23 40 2 0
BITMAP
0003F8
0007F0
0007E0
000FC0
000F80
000F80
001F00
001E00
003E00
003C00
000800
000000
000000
000000
006010
07F0FE
FFF3FE
FFE7FE
FFE7FE
3FEFFE
1FFFFE
0FF83E
0FF03E
0FF03E
0FF020
0FF000
0FF000
0FF000
0FF000
0FF000
0FF000
0FF000
0FF000
0FF000
0FF800
1FF800
3FFF00
FFFFC0
FFFFC0
FFFFC0
ENDCHAR
STARTCHAR 0156
ENCODING 342
SWIDTH 702 0
DWIDTH 39 0
BBX 36 54 2 -17
BITMAP
FFFFFE0000
FFFFFFC000
FFFFFFF000
7FFFFFF800
1FF80FFC00
0FF807FE00
0FF803FE00
0FF801FF00
0FF801FF00
0FF801FF00
0FF801FF00
0FF801FF00
0FF801FF00
0FF801FF00
0FF801FE00
0FF803FE00
0FF807FC00
0FF80FF800
0FF87FF000
0FFFFFE000
0FFFFF8000
0FFFFF0000
0FF8FF8000
0FF87FC000
0FF83FE000
0FF81FF000
0FF81FF000
0FF80FF800
0FF80FF800
0FF807FC00
0FF807FC00
0FF803FE00
0FF803FF00
0FF803FF80
3FFE01FFE0
7FFF01FFF0
FFFF00FFF0
FFFF00FFF0
0000000000
0000000000
0000080000
00007C0000
0001FE0000
0003FE0000
0003FE0000
0003FE0000
0001FE0000
00007E0000
00007C0000
00007C0000
0000F80000
0000F00000
0001E00000
0003C00000
ENDCHAR
STARTCHAR 0157
ENCODING 343
SWIDTH 468 0
DWIDTH 26 0
BBX 23 42 2 -17
BITMAP
006010
07F0FE
FFF3FE
FFE7FE
FFE7FE
3FEFFE
1FFFFE
0FF83E
0FF03E
0FF03E
0FF020
0FF000
0FF000
0FF000
0FF000
0FF000
0FF000
0FF000
0FF000
0FF000
0FF800
1FF800
3FFF00
FFFFC0
FFFFC0
FFFFC0
000000
000000
002000
00F000
07F800
0FF800
0FF800
0FF800
07F800
01F800
01F000
01F000
01E000
03E000
07C000
0F8000
ENDCHAR
STARTCHAR 0158
ENCODING 344
SWIDTH 702 0
DWIDTH 39 0
BBX 36 49 2 -1
BITMAP
00E0030000
03F80F8000
01FC3F8000
00FFFE0000
007FFC0000
003FF00000
001FE00000
000FC00000
0004000000
0000000000
0000000000
FFFFFE0000
FFFFFFC000
FFFFFFF000
7FFFFFF800
1FF80FFC00
0FF807FE00
0FF803FE00
0FF801FF00
0FF801FF00
0FF801FF00
0FF801FF00
0FF801FF00
0FF801FF00
0FF801FF00
0FF801FE00
0FF803FE00
0FF807FC00
0FF80FF800
0FF87FF000
0FFFFFE000
0FFFFF8000
0FFFFF0000
0FF8FF8000
0FF87FC000
0FF83FE000
0FF81FF000
0FF81FF000
0FF80FF800
0FF80FF800
0FF807FC00
0FF807FC00
0FF803FE00
0FF803FF00
0FF803FF80
3FFE01FFE0
7FFF01FFF0
FFFF00FFF0
FFFF00FFF0
ENDCHAR
STARTCHAR 0159
ENCODING 345
SWIDTH 468 0
DWIDTH 26 0
BBX 23 40 2 0
BITMAP
080000
1C0038
3F007C
1F81F8
0FE7F0
07FFE0
03FFC0
01FF80
00FF00
007E00
007C00
000000
000000
000000
006010
07F0FE
FFF3FE
FFE7FE
FFE7FE
3FEFFE
1FFFFE
0FF83E
0FF03E
0FF03E
0FF020
0FF000
0FF000
0FF000
0FF000
0FF000
0FF000
0FF000
0FF000
0FF000
0FF800
1FF800
3FFF00
FFFFC0
FFFFC0
FFFFC0
ENDCHAR
STARTCHAR 015A
ENCODING 346
SWIDTH 558 0
DWIDTH 31 0
BBX 26 50 3 -1
BITMAP
0007F000
0007E000
000FC000
000FC000
001F8000
001F0000
003E0000
003C0000
00000000
00000000
00000000
00FFC000
03FFF800
0FFFFE00
1FF7FE00
3F80FE00
3F007E00
7E007E00
7E003E00
7E003E00
FE003E00
FF001E00
FF800000
FFC00000
7FF00000
7FFC0000
7FFF0000
3FFFC000
1FFFF000
1FFFF800
0FFFFE00
03FFFF00
01FFFF00
007FFF80
000FFF80
0003FFC0
0001FFC0
F8007FC0
F8003FC0
FC003FC0
FC003FC0
FC001FC0
FC003F80
FE003F80
FF007F00
FFC1FE00
FFFFFC00
3FFFF800
07FFE000
00180000
ENDCHAR
STARTCHAR 015B
ENCODING 347
SWIDTH 450 0
DWIDTH 25 0
BBX 22 41 2 -1
BITMAP
000FE0
001FC0
001F80
001F80
003F00
003E00
003C00
007C00
007800
00F800
001000
000000
000000
000000
01FF00
0FFFE0
3FFFF0
3FDFF0
7F03F0
7E03F0
FF01F0
FF01F0
FF80C0
7FE000
7FFC00
7FFF00
3FFFC0
0FFFE0
07FFF0
00FFF8
003FF8
780FFC
F807FC
F803FC
FC03F8
FC07F8
FF0FF8
FFFFF0
FFFFC0
1FFF00
006000
ENDCHAR
STARTCHAR 015C
ENCODING 348
SWIDTH 558 0
DWIDTH 31 0
BBX 26 50 3 -1
BITMAP
001E0000
003F0000
00FFC000
01FFE000
03FFF000
0FE7F800
1F81FC00
0E007800
04000000
00000000
00000000
00FFC000
03FFF800
0FFFFE00
1FF7FE00
3F80FE00
3F007E00
7E007E00
7E003E00
7E003E00
FE003E00
FF001E00
FF800000
FFC00000
7FF00000
7FFC0000
7FFF0000
3FFFC000
1FFFF000
1FFFF800
0FFFFE00
03FFFF00
01FFFF00
007FFF80
000FFF80
0003FFC0
0001FFC0
F8007FC0
F8003FC0
FC003FC0
FC003FC0
FC001FC0
FC003F80
FE003F80
FF007F00
FFC1FE00
FFFFFC00
3FFFF800
07FFE000
00180000
ENDCHAR
STARTCHAR 015D
ENCODING 349
SWIDTH 450 0
DWIDTH 25 0
BBX 22 41 2 -1
BITMAP
001800
007C00
00FE00
01FF00
03FF80
07FFC0
1FDFE0
3F07F0
7E03F8
7800F8
700070
000000
000000
000000
01FF00
0FFFE0
3FFFF0
3FDFF0
7F03F0
7E03F0
FF01F0
FF01F0
FF80C0
7FE000
7FFC00
7FFF00
3FFFC0
0FFFE0
07FFF0
00FFF8
003FF8
780FFC
F807FC
F803FC
FC03F8
FC07F8
FF0FF8
FFFFF0
FFFFC0
1FFF00
006000
ENDCHAR
STARTCHAR 015E
ENCODING 350
SWIDTH 558 0
DWIDTH 31 0
BBX 26 51 3 -13
BITMAP
00FFC000
03FFF800
0FFFFE00
1FF7FE00
3F80FE00
3F007E00
7E007E00
7E003E00
7E003E00
FE003E00
FF001E00
FF800000
FFC00000
7FF00000
7FFC0000
7FFF0000
3FFFC000
1FFFF000
1FFFF800
0FFFFE00
03FFFF00
01FFFF00
007FFF80
000FFF80
0003FFC0
0001FFC0
F8007FC0
F8003FC0
FC003FC0
FC003FC0
FC001FC0
FC003F80
FE003F80
FF007F00
FFC1FE00
FFFFFC00
3FFFF800
07FFE000
001C0000
00380000
00780000
00FE0000
007F0000
007F8000
000F8000
00078000
00078000
000F8000
001F8000
00FF0000
007C0000
ENDCHAR
STARTCHAR 015F
ENCODING 351
SWIDTH 450 0
DWIDTH 25 0
BBX 22 39 2 -13
BITMAP
01FF00
0FFFE0
3FFFF0
3FDFF0
7F03F0
7E03F0
FF01F0
FF01F0
FF80C0
7FE000
7FFC00
7FFF00
3FFFC0
0FFFE0
07FFF0
00FFF8
003FF8
780FFC
F807FC
F803FC
FC03F8
FC07F8
FF0FF8
FFFFF0
FFFFE0
1FFF80
00F000
00E000
01C000
03F800
03FC00
01FE00
007E00
003E00
003E00
003E00
007C00
03F800
03F000
ENDCHAR
STARTCHAR 0160
ENCODING 352
SWIDTH 558 0
DWIDTH 31 0
BBX 26 50 3 -1
BITMAP
0F003800
1F80FC00
1FE3FC00
07FFF000
03FFE000
01FF8000
00FF0000
007E0000
00200000
00000000
00000000
00FFC000
03FFF800
0FFFFE00
1FF7FE00
3F80FE00
3F007E00
7E007E00
7E003E00
7E003E00
FE003E00
FF001E00
FF800000
FFC00000
7FF00000
7FFC0000
7FFF0000
3FFFC000
1FFFF000
1FFFF800
0FFFFE00
03FFFF00
01FFFF00
007FFF80
000FFF80
0003FFC0
0001FFC0
F8007FC0
F8003FC0
FC003FC0
FC003FC0
FC001FC0
FC003F80
FE003F80
FF007F00
FFC1FE00
FFFFFC00
3FFFF800
07FFE000
00180000
ENDCHAR
STARTCHAR 0161
ENCODING 353
SWIDTH 450 0
DWIDTH 25 0
BBX 22 40 2 0
BITMAP
780070
7C01F8
7F03F0
3F8FC0
1FFF80
0FFF00
07FE00
03FC00
01F800
00F000
000000
000000
000000
01FF00
0FFFE0
3FFFF0
3FDFF0
7F03F0
7E03F0
FF01F0
FF01F0
FF80C0
7FE000
7FFC00
7FFF00
3FFFC0
0FFFE0
07FFF0
00FFF8
003FF8
780FFC
F807FC
F803FC
FC03F8
FC07F8
FF0FF8
FFFFF0
FFFFC0
1FFF00
006000
ENDCHAR
STARTCHAR 0162
ENCODING 354
SWIDTH 648 0
DWIDTH 36 0
BBX 34 51 1 -13
BITMAP
3FFFFFFF80
3FFFFFFF80
7FFFFFFF80
7FFFFFFF80
7F07F81F80
7E07F80F80
7C07F80F80
7C07F807C0
7807F807C0
F807F807C0
3807F80300
0007F80000
0007F80000
0007F80000
0007F80000
0007F80000
0007F80000
0007F80000
0007F80000
0007F80000
0007F80000
0007F80000
0007F80000
0007F80000
0007F80000
0007F80000
0007F80000
0007F80000
0007F80000
0007F80000
0007F80000
0007F80000
0007FC0000
000FFC0000
003FFF0000
00FFFFC000
01FFFFE000
01FFFFE000
0001C00000
0003800000
0007800000
0007E00000
0007F00000
0007F80000
0000F80000
00007C0000
0000780000
0000780000
0001F80000
0007F00000
0007C00000
ENDCHAR
STARTCHAR 0163
ENCODING 355
SWIDTH 360 0
DWIDTH 20 0
BBX 19 47 1 -13
BITMAP
006000
01F000
0FF000
0FF000
0FF000
0FF000
0FF000
0FF000
0FF000
FFFFC0
FFFFC0
FFFFC0
FFFFC0
0FF000
0FF000
0FF000
0FF000
0FF000
0FF000
0FF000
0FF000
0FF000
0FF000
0FF000
0FF000
0FF000
0FF000
0FF000
0FF000
0FF000
0FFDC0
07FFE0
03FFE0
01FF80
007800
00F000
01E000
01F800
01FC00
01FE00
003F00
001F00
001F00
001E00
003E00
01FC00
01F000
ENDCHAR
STARTCHAR 0164
ENCODING 356
SWIDTH 648 0
DWIDTH 36 0
BBX 34 49 1 0
BITMAP
0070018000
00FC07C000
00FF1FC000
007FFF0000
003FFE0000
000FFC0000
0007F00000
0003E00000
0000800000
0000000000
0000000000
3FFFFFFF80
3FFFFFFF80
7FFFFFFF80
7FFFFFFF80
7F07F81F80
7E07F80F80
7C07F80F80
7C07F807C0
7807F807C0
F807F807C0
3807F80300
0007F80000
0007F80000
0007F80000
0007F80000
0007F80000
0007F80000
0007F80000
0007F80000
0007F80000
0007F80000
0007F80000
0007F80000
0007F80000
0007F80000
0007F80000
0007F80000
0007F80000
0007F80000
0007F80000
0007F80000
0007F80000
0007FC0000
000FFC0000
003FFF0000
00FFFFC000
01FFFFE000
01FFFFE000
ENDCHAR
STARTCHAR 0165
ENCODING 357
SWIDTH 522 0
DWIDTH 29 0
BBX 29 41 1 -1
BITMAP
00000060
000007F0
00000FF0
00000FF8
00000FF8
00000FF8
00600FF0
01F003F0
0FF001F0
0FF001F0
0FF001E0
0FF003E0
0FF003C0
0FF00780
0FF00780
FFFFC300
FFFFC000
FFFFC000
FFFFC000
0FF00000
0FF00000
0FF00000
0FF00000
0FF00000
0FF00000
0FF00000
0FF00000
0FF00000
0FF00000
0FF00000
0FF00000
0FF00000
0FF00000
0FF00000
0FF00000
0FF00000
0FFDC000
07FFE000
03FFE000
01FF8000
00100000
ENDCHAR
STARTCHAR 0166
ENCODING 358
SWIDTH 648 0
DWIDTH 36 0
BBX 34 38 1 0
BITMAP
3FFFFFFF80
3FFFFFFF80
7FFFFFFF80
7FFFFFFF80
7F07F81F80
7E07F80F80
7C07F80F80
7C07F807C0
7807F807C0
F807F807C0
3807F80300
0007F80000
0007F80000
0007F80000
0007F80000
0007F80000
0007F80000
01FFFFF000
03FFFFF000
03FFFFF000
03FFFFF000
0007F80000
0007F80000
0007F80000
0007F80000
0007F80000
0007F80000
0007F80000
0007F80000
0007F80000
0007F80000
0007F80000
0007FC0000
000FFC0000
003FFF0000
00FFFFC000
01FFFFE000
01FFFFE000
ENDCHAR
STARTCHAR 0167
ENCODING 359
SWIDTH 360 0
DWIDTH 20 0
BBX 20 35 0 -1
BITMAP
003000
00F800
07F800
07F800
07F800
07F800
07F800
07F800
07F800
7FFFE0
7FFFE0
7FFFE0
7FFFE0
07F800
07F800
07F800
07F800
07F800
07F800
FFFFC0
FFFF80
FFFF80
07F800
07F800
07F800
07F800
07F800
07F800
07F800
07F800
07FEE0
03FFF0
01FFF0
00FFC0
000800
ENDCHAR
STARTCHAR 0168
ENCODING 360
SWIDTH 684 0
DWIDTH 38 0
BBX 34 49 2 -1
BITMAP
0007E01000
001FFC3C00
003FFFF800
007FFFF000
007DFFF000
00703FC000
00200F8000
0000000000
0000000000
0000000000
FFFF01FFC0
FFFF01FFC0
FFFF01FFC0
FFFF01FFC0
3FF8007F00
1FF0003E00
1FF0003E00
1FF0001E00
0FF0001C00
0FF0001C00
0FF0001C00
0FF0001C00
0FF0001C00
0FF0001C00
0FF0001C00
0FF0001C00
0FF0001C00
0FF0001C00
0FF0001C00
0FF0001C00
0FF0001C00
0FF0001C00
0FF0001C00
0FF0001C00
0FF0001C00
0FF0001C00
0FF0001C00
0FF0001C00
0FF0003C00
0FF8003C00
0FF8003C00
0FF8003C00
07FC007800
07FE00F800
03FF87F000
01FFFFE000
00FFFFC000
003FFF0000
0000600000
ENDCHAR
STARTCHAR 0169
ENCODING 361
SWIDTH 594 0
DWIDTH 33 0
BBX 31 38 1 -1
BITMAP
00180000
00FF0180
01FFC3C0
03FFFF80
07FFFF80
0787FF00
0601FE00
00003000
00000000
00000000
00000000
00000000
00400060
0FE03FF0
FFE0FFF0
FFE0FFF0
FFE0FFF0
3FE01FF0
1FE00FF0
1FE00FF0
1FE00FF0
1FE00FF0
1FE00FF0
1FE00FF0
1FE00FF0
1FE00FF0
1FE00FF0
1FE00FF0
1FE00FF0
1FE00FF0
1FF00FF0
0FF00FF0
0FF80FF8
0FFC0FFE
0FFFFFFE
07FFFFFE
03FFEFFE
01FF0F00
ENDCHAR
STARTCHAR 016A
ENCODING 362
SWIDTH 684 0
DWIDTH 38 0
BBX 34 46 2 -1
BITMAP
007FFFFC00
007FFFFC00
007FFFF800
0000000000
0000000000
0000000000
0000000000
FFFF01FFC0
FFFF01FFC0
FFFF01FFC0
FFFF01FFC0
3FF8007F00
1FF0003E00
1FF0003E00
1FF0001E00
0FF0001C00
0FF0001C00
0FF0001C00
0FF0001C00
0FF0001C00
0FF0001C00
0FF0001C00
0FF0001C00
0FF0001C00
0FF0001C00
0FF0001C00
0FF0001C00
0FF0001C00
0FF0001C00
0FF0001C00
0FF0001C00
0FF0001C00
0FF0001C00
0FF0001C00
0FF0001C00
0FF0003C00
0FF8003C00
0FF8003C00
0FF8003C00
07FC007800
07FE00F800
03FF87F000
01FFFFE000
00FFFFC000
003FFF0000
0000600000
ENDCHAR
STARTCHAR 016B
ENCODING 363
SWIDTH 594 0
DWIDTH 33 0
BBX 31 35 1 -1
BITMAP
03FFFFC0
07FFFFC0
07FFFFC0
00000000
00000000
00000000
00000000
00000000
00000000
00400060
0FE03FF0
FFE0FFF0
FFE0FFF0
FFE0FFF0
3FE01FF0
1FE00FF0
1FE00FF0
1FE00FF0
1FE00FF0
1FE00FF0
1FE00FF0
1FE00FF0
1FE00FF0
1FE00FF0
1FE00FF0
1FE00FF0
1FE00FF0
1FF00FF0
0FF00FF0
0FF80FF8
0FFC0FFE
0FFFFFFE
07FFFFFE
03FFEFFE
01FF0F00
ENDCHAR
STARTCHAR 016C
ENCODING 364
SWIDTH 684 0
DWIDTH 38 0
BBX 34 50 2 -1
BITMAP
0004006000
003E007800
003E00F000
003F81F000
001FFFF000
001FFFE000
000FFFC000
0007FF8000
0000FC0000
0000000000
0000000000
FFFF01FFC0
FFFF01FFC0
FFFF01FFC0
FFFF01FFC0
3FF8007F00
1FF0003E00
1FF0003E00
1FF0001E00
0FF0001C00
0FF0001C00
0FF0001C00
0FF0001C00
0FF0001C00
0FF0001C00
0FF0001C00
0FF0001C00
0FF0001C00
0FF0001C00
0FF0001C00
0FF0001C00
0FF0001C00
0FF0001C00
0FF0001C00
0FF0001C00
0FF0001C00
0FF0001C00
0FF0001C00
0FF0001C00
0FF0003C00
0FF8003C00
0FF8003C00
0FF8003C00
07FC007800
07FE00F800
03FF87F000
01FFFFE000
00FFFFC000
003FFF0000
0000600000
ENDCHAR
STARTCHAR 016D
ENCODING 365
SWIDTH 594 0
DWIDTH 33 0
BBX 31 39 1 -1
BITMAP
07C003C0
07C003C0
07E007C0
03F007C0
03FC3F80
03FFFF80
01FFFF00
00FFFE00
007FFC00
000FE000
00000000
00000000
00000000
00400060
0FE03FF0
FFE0FFF0
FFE0FFF0
FFE0FFF0
3FE01FF0
1FE00FF0
1FE00FF0
1FE00FF0
1FE00FF0
1FE00FF0
1FE00FF0
1FE00FF0
1FE00FF0
1FE00FF0
1FE00FF0
1FE00FF0
1FE00FF0
1FF00FF0
0FF00FF0
0FF80FF8
0FFC0FFE
0FFFFFFE
07FFFFFE
03FFEFFE
01FF0F00
ENDCHAR
STARTCHAR 016E
ENCODING 366
SWIDTH 684 0
DWIDTH 38 0
BBX 34 50 2 -1
BITMAP
0000FE0000
0003FF8000
0003C78000
000787C000
000783C000
0007878000
0007C78000
0003FF0000
0000FE0000
0000000000
0000000000
FFFF01FFC0
FFFF01FFC0
FFFF01FFC0
FFFF01FFC0
3FF8007F00
1FF0003E00
1FF0003E00
1FF0001E00
0FF0001C00
0FF0001C00
0FF0001C00
0FF0001C00
0FF0001C00
0FF0001C00
0FF0001C00
0FF0001C00
0FF0001C00
0FF0001C00
0FF0001C00
0FF0001C00
0FF0001C00
0FF0001C00
0FF0001C00
0FF0001C00
0FF0001C00
0FF0001C00
0FF0001C00
0FF0001C00
0FF0003C00
0FF8003C00
0FF8003C00
0FF8003C00
07FC007800
07FE00F800
03FF87F000
01FFFFE000
00FFFFC000
003FFF0000
0000600000
ENDCHAR
STARTCHAR 016F
ENCODING 367
SWIDTH 594 0
DWIDTH 33 0
BBX 31 40 1 -1
BITMAP
0007E000
001FF800
003FFC00
007C7C00
007C3C00
00783C00
007C3C00
007C7C00
003FF800
001FF000
000FE000
00000000
00000000
00000000
00400060
0FE03FF0
FFE0FFF0
FFE0FFF0
FFE0FFF0
3FE01FF0
1FE00FF0
1FE00FF0
1FE00FF0
1FE00FF0
1FE00FF0
1FE00FF0
1FE00FF0
1FE00FF0
1FE00FF0
1FE00FF0
1FE00FF0
1FE00FF0
1FF00FF0
0FF00FF0
0FF80FF8
0FFC0FFE
0FFFFFFE
07FFFFFE
03FFEFFE
01FF0F00
ENDCHAR
STARTCHAR 0170
ENCODING 368
SWIDTH 684 0
DWIDTH 38 0
BBX 34 50 2 -1
BITMAP
0001FC7F00
0003F8FE00
0003F0FC00
0007E1F800
0007C1F000
000F83E000
000F83E000
000F03C000
0000000000
0000000000
0000000000
FFFF01FFC0
FFFF01FFC0
FFFF01FFC0
FFFF01FFC0
3FF8007F00
1FF0003E00
1FF0003E00
1FF0001E00
0FF0001C00
0FF0001C00
0FF0001C00
0FF0001C00
0FF0001C00
0FF0001C00
0FF0001C00
0FF0001C00
0FF0001C00
0FF0001C00
0FF0001C00
0FF0001C00
0FF0001C00
0FF0001C00
0FF0001C00
0FF0001C00
0FF0001C00
0FF0001C00
0FF0001C00
0FF0001C00
0FF0003C00
0FF8003C00
0FF8003C00
0FF8003C00
07FC007800
07FE00F800
03FF87F000
01FFFFE000
00FFFFC000
003FFF0000
0000600000
ENDCHAR
STARTCHAR 0171
ENCODING 369
SWIDTH 594 0
DWIDTH 33 0
BBX 31 40 1 -1
BITMAP
000FE3F8
001FC7F0
001F87E0
003F0FC0
003E0FC0
003E0F80
007C1F00
00781E00
00F83E00
00F03C00
00300C00
00000000
00000000
00000000
00400060
0FE03FF0
FFE0FFF0
FFE0FFF0
FFE0FFF0
3FE01FF0
1FE00FF0
1FE00FF0
1FE00FF0
1FE00FF0
1FE00FF0
1FE00FF0
1FE00FF0
1FE00FF0
1FE00FF0
1FE00FF0
1FE00FF0
1FE00FF0
1FF00FF0
0FF00FF0
0FF80FF8
0FFC0FFE
0FFFFFFE
07FFFFFE
03FFEFFE
01FF0F00
ENDCHAR
STARTCHAR 0172
ENCODING 370
SWIDTH 684 0
DWIDTH 38 0
BBX 34 52 2 -14
BITMAP
FFFF01FFC0
FFFF01FFC0
FFFF01FFC0
FFFF01FFC0
3FF8007F00
1FF0003E00
1FF0003E00
1FF0001E00
0FF0001C00
0FF0001C00
0FF0001C00
0FF0001C00
0FF0001C00
0FF0001C00
0FF0001C00
0FF0001C00
0FF0001C00
0FF0001C00
0FF0001C00
0FF0001C00
0FF0001C00
0FF0001C00
0FF0001C00
0FF0001C00
0FF0001C00
0FF0001C00
0FF0001C00
0FF0001C00
0FF0003C00
0FF8003C00
0FF8003C00
0FF8003C00
07FC007800
07FE00F800
03FF87F000
01FFFFE000
00FFFFC000
003FFF0000
00007E0000
00003C0000
0000FC0000
0001F80000
0001F80000
0001F80000
0003F80000
0003FE0000
0003FFE000
0001FFF000
0001FFF000
0000FFE000
00007F0000
00001C0000
ENDCHAR
STARTCHAR 0173
ENCODING 371
SWIDTH 594 0
DWIDTH 33 0
BBX 31 40 1 -14
BITMAP
00400060
0FE03FF0
FFE0FFF0
FFE0FFF0
FFE0FFF0
3FE01FF0
1FE00FF0
1FE00FF0
1FE00FF0
1FE00FF0
1FE00FF0
1FE00FF0
1FE00FF0
1FE00FF0
1FE00FF0
1FE00FF0
1FE00FF0
1FE00FF0
1FF00FF0
0FF00FF0
0FF80FF8
0FFC0FFE
0FFFFFFE
07FFFFFE
03FFEFFE
01FF0FF8
000003E0
000007C0
00000F80
00001F80
00003F00
00003F00
00003F80
00003FC0
00003FFE
00003FFE
00003FFE
00001FFC
00000FF0
000003C0
ENDCHAR
STARTCHAR 0174
ENCODING 372
SWIDTH 990 0
DWIDTH 55 0
BBX 53 50 1 -1
BITMAP
0000001E000000
0000003F000000
000000FFC00000
000001FFE00000
000003FFF00000
00000FE7F80000
00001F81FC0000
00000E00780000
00000400000000
00000000000000
00000000000000
FFFF001E007FF8
FFFF001E003FF8
FFFF003F003FF8
FFFF003F003FF8
3FF8003F0007E0
1FF0007F8007E0
1FF0007F8007C0
0FF800FF8003C0
0FF800FFC00780
0FF800FFC00780
07FC01FFE00780
07FC01FFE00700
07FC01FFE00F00
03FE03DFF00F00
03FE03DFF00E00
03FE039FF00E00
01FE078FF81E00
01FF078FF81C00
01FF070FFC1C00
00FF0F07FC3C00
00FF8F07FC3800
00FF8E03FE3800
00FF9E03FE7800
007FDE03FE7800
007FDC01FF7000
007FFC01FFF000
003FFC01FFF000
003FF800FFE000
003FF800FFE000
001FF8007FE000
001FF0007FC000
001FF0007FC000
000FF0003FC000
000FE0003FC000
000FE0003F8000
000FC0001F8000
0007C0001F8000
0007C0000F0000
00040000080000
ENDCHAR
STARTCHAR 0175
ENCODING 373
SWIDTH 774 0
DWIDTH 43 0
BBX 42 41 1 -1
BITMAP
000001C00000
000007C00000
00000FE00000
00001FF00000
00003FF80000
00007FFC0000
0000FDFE0000
0003F87F0000
0007E01F8000
0007C00FC000
000300070000
000000000000
000000000000
000000000000
F07C0180E3C0
FFFC0780FFC0
FFFC07C0FFC0
FFFC0FC0FFC0
3FF00FE03F00
1FF00FE01E00
1FF01FF01E00
0FF01FF01C00
0FF03FF03C00
0FF83FF83C00
07F83FF83800
07F87BFC3800
07FC7BFC7800
03FCF3FC7000
03FCF1FE7000
03FEE1FEF000
01FFE1FEE000
01FFC0FFE000
00FFC0FFE000
00FFC07FC000
00FF807FC000
007F807FC000
007F003F8000
007F003F8000
003E001F8000
003E001F0000
002000080000
ENDCHAR
STARTCHAR 0176
ENCODING 374
SWIDTH 630 0
DWIDTH 35 0
BBX 33 49 1 0
BITMAP
00007C0000
0000FE0000
0001FF0000
0007FF8000
000FFFC000
003FDFF000
003F07F800
003C01F000
0000000000
0000000000
0000000000
FFFF01FF80
FFFF01FF80
FFFF01FF80
FFFF01FF80
3FFC007E00
1FFC007C00
0FFC007800
0FFC007800
07FE007000
07FE00F000
03FE00E000
03FF01E000
01FF01C000
01FF83C000
00FF838000
00FFC78000
007FC78000
007FE70000
003FEF0000
003FEE0000
001FFE0000
001FFC0000
000FFC0000
000FF80000
0007F80000
0007F80000
0007F80000
0007F80000
0007F80000
0007F80000
0007F80000
0007F80000
000FF80000
000FFC0000
007FFF0000
01FFFFC000
01FFFFC000
01FFFFC000
ENDCHAR
STARTCHAR 0177
ENCODING 375
SWIDTH 558 0
DWIDTH 31 0
BBX 29 54 1 -14
BITMAP
00006000
0001F000
0003F800
0007FC00
000FFE00
001FFF00
003F7F80
00FE1FC0
01F80FE0
01E003E0
00C001C0
00000000
00000000
00000000
F83F3C38
FFFF1FF8
FFFE1FF8
FFFE1FF8
3FF807E0
1FF003C0
1FF003C0
0FF80780
0FF80780
07FC0780
07FC0F00
03FE0F00
03FE0E00
01FE1E00
01FF1C00
00FF3C00
00FFBC00
007FB800
007FF800
003FF000
003FF000
003FE000
001FE000
001FE000
000FC000
000FC000
00078000
00078000
00078000
000F0000
000F0000
001E0000
003E0000
7FFC0000
7FFC0000
7FF80000
7FF00000
7FF00000
3FE00000
0F000000
ENDCHAR
STARTCHAR 0178
ENCODING 376
SWIDTH 630 0
DWIDTH 35 0
BBX 33 48 1 0
BITMAP
003E01F000
007F03F800
007F87F800
007F87FC00
007F87FC00
007F87F800
003F03F800
000C00E000
0000000000
0000000000
FFFF01FF80
FFFF01FF80
FFFF01FF80
FFFF01FF80
3FFC007E00
1FFC007C00
0FFC007800
0FFC007800
07FE007000
07FE00F000
03FE00E000
03FF01E000
01FF01C000
01FF83C000
00FF838000
00FFC78000
007FC78000
007FE70000
003FEF0000
003FEE0000
001FFE0000
001FFC0000
000FFC0000
000FF80000
0007F80000
0007F80000
0007F80000
0007F80000
0007F80000
0007F80000
0007F80000
0007F80000
000FF80000
000FFC0000
007FFF0000
01FFFFC000
01FFFFC000
01FFFFC000
ENDCHAR
STARTCHAR 0179
ENCODING 377
SWIDTH 594 0
DWIDTH 33 0
BBX 29 49 2 0
BITMAP
0000FE00
0001FC00
0001F800
0001F000
0003E000
0003E000
0007C000
00078000
00000000
00000000
00000000
1FFFFFF0
1FFFFFF0
1FFFFFF0
1FFFFFF0
3F803FF0
3F007FE0
3F007FE0
3E00FFC0
3E00FFC0
3C01FF80
7C01FF80
0003FF00
0003FE00
0007FE00
000FFC00
000FFC00
001FF800
001FF800
003FF000
003FF000
007FE000
007FC000
00FFC000
01FF8000
01FF8000
03FF0000
03FF0000
07FE0040
0FFC00F8
0FFC00F8
1FF800F8
1FF801F8
3FF001F0
7FE003F0
7FE01FF0
FFFFFFF0
FFFFFFF0
7FFFFFF0
ENDCHAR
STARTCHAR 017A
ENCODING 378
SWIDTH 504 0
DWIDTH 28 0
BBX 23 40 3 0
BITMAP
0007F0
000FE0
000FC0
001F80
001F80
001F00
003E00
003C00
007C00
007800
001800
000000
000000
000000
FF01FC
FFFFFC
FFFFFE
FFFFFE
FE07FC
FC0FF8
F81FF8
F81FF0
F83FE0
107FE0
00FFC0
00FF80
01FF00
03FF00
03FE00
07FC00
0FFC18
1FF81E
1FF01E
3FF03E
7FE03E
7FC03E
FF81FE
FFFFFE
FFFFFE
FFFFFE
ENDCHAR
STARTCHAR 017B
ENCODING 379
SWIDTH 594 0
DWIDTH 33 0
BBX 29 48 2 0
BITMAP
0007C000
000FE000
001FF000
001FF000
001FF000
001FF000
001FE000
0007C000
00000000
00000000
1FFFFFF0
1FFFFFF0
1FFFFFF0
1FFFFFF0
3F803FF0
3F007FE0
3F007FE0
3E00FFC0
3E00FFC0
3C01FF80
7C01FF80
0003FF00
0003FE00
0007FE00
000FFC00
000FFC00
001FF800
001FF800
003FF000
003FF000
007FE000
007FC000
00FFC000
01FF8000
01FF8000
03FF0000
03FF0000
07FE0040
0FFC00F8
0FFC00F8
1FF800F8
1FF801F8
3FF001F0
7FE003F0
7FE01FF0
FFFFFFF0
FFFFFFF0
7FFFFFF0
ENDCHAR
STARTCHAR 017C
ENCODING 380
SWIDTH 504 0
DWIDTH 28 0
BBX 23 37 3 0
BITMAP
007C00
01FE00
01FF00
03FF00
03FF00
01FF00
01FE00
007800
000000
000000
000000
FF01FC
FFFFFC
FFFFFE
FFFFFE
FE07FC
FC0FF8
F81FF8
F81FF0
F83FE0
107FE0
00FFC0
00FF80
01FF00
03FF00
03FE00
07FC00
0FFC18
1FF81E
1FF01E
3FF03E
7FE03E
7FC03E
FF81FE
FFFFFE
FFFFFE
FFFFFE
ENDCHAR
STARTCHAR 017D
ENCODING 381
SWIDTH 594 0
DWIDTH 33 0
BBX 29 49 2 0
BITMAP
01C00700
03F01F00
03FC7F00
01FFFE00
007FF800
003FF000
001FC000
000F8000
00000000
00000000
00000000
1FFFFFF0
1FFFFFF0
1FFFFFF0
1FFFFFF0
3F803FF0
3F007FE0
3F007FE0
3E00FFC0
3E00FFC0
3C01FF80
7C01FF80
0003FF00
0003FE00
0007FE00
000FFC00
000FFC00
001FF800
001FF800
003FF000
003FF000
007FE000
007FC000
00FFC000
01FF8000
01FF8000
03FF0000
03FF0000
07FE0040
0FFC00F8
0FFC00F8
1FF800F8
1FF801F8
3FF001F0
7FE003F0
7FE01FF0
FFFFFFF0
FFFFFFF0
7FFFFFF0
ENDCHAR
STARTCHAR 017E
ENCODING 382
SWIDTH 504 0
DWIDTH 28 0
BBX 23 40 3 0
BITMAP
100000
380078
7E00F8
3F03F0
1FCFE0
0FFFC0
07FF80
03FF00
01FE00
00FC00
00F800
000000
000000
000000
FF01FC
FFFFFC
FFFFFE
FFFFFE
FE07FC
FC0FF8
F81FF8
F81FF0
F83FE0
107FE0
00FFC0
00FF80
01FF00
03FF00
03FE00
07FC00
0FFC18
1FF81E
1FF01E
3FF03E
7FE03E
7FC03E
FF81FE
FFFFFE
FFFFFE
FFFFFE
ENDCHAR
STARTCHAR 017F
ENCODING 383
SWIDTH 360 0
DWIDTH 20 0
BBX 24 40 2 0
BITMAP
0003F0
001FFE
007FFF
00FFFF
01F87F
03F83F
03F03F
07F03F
07F03F
0FF010
0FF000
0FF000
0FF000
0FF000
0FF000
FFF000
FFF000
FFF000
FFF000
0FF000
0FF000
0FF000
0FF000
0FF000
0FF000
0FF000
0FF000
0FF000
0FF000
0FF000
0FF000
0FF000
0FF000
0FF000
0FF800
1FF800
3FFF00
FFFFC0
FFFFC0
FFFFC0
ENDCHAR
STARTCHAR 018E
ENCODING 398
SWIDTH 612 0
DWIDTH 34 0
BBX 30 38 2 0
BITMAP
1FFFFFFC
1FFFFFFC
1FFFFFFC
3FFFFFFC
3F803FE0
3F003FE0
3E003FC0
3C003FC0
3C003FC0
3C003FC0
04003FC0
00003FC0
00003FC0
01E03FC0
01E03FC0
01E03FC0
01F03FC0
01FF3FC0
01FFFFC0
01FFFFC0
01FFFFC0
01F83FC0
01F03FC0
01E03FC0
01E03FC0
01403FC0
00003FC0
10003FC0
F0003FC0
F0003FC0
F8003FC0
F8003FC0
FC007FE0
7E007FE0
7FF3FFF0
7FFFFFFC
7FFFFFFC
7FFFFFFC
ENDCHAR
STARTCHAR 018F
ENCODING 399
SWIDTH 666 0
DWIDTH 37 0
BBX 33 38 2 0
BITMAP
00FFF00000
0FFFFE0000
3FFFFF8000
3FF3FFE000
3F803FF000
3F000FF800
3E0007FC00
3E0003FE00
3E0003FE00
3C0001FF00
3C0001FF00
000000FF00
000000FF80
000000FF80
000000FF80
000000FF80
000000FF80
000000FF80
7FFFFFFF80
FFFFFFFF80
FFFFFFFF80
FFFFFFFF80
FF00007F80
FF0000FF80
FF8000FF80
FF8000FF00
7F8000FF00
7F8000FF00
7F8000FE00
3FC001FE00
3FC001FC00
1FC003F800
1FE003F800
0FF007F000
07FC1FE000
03FFFF8000
01FFFF0000
003FF80000
ENDCHAR
STARTCHAR 0192
ENCODING 402
SWIDTH 396 0
DWIDTH 22 0
BBX 39 54 -10 -14
BITMAP
00000007C0
0000007FFE
000001FFFC
000003FFFC
000007F8FC
000007F0F8
00000FE078
00001FE078
00001FE078
00001FE040
00003FC000
00003FC000
00003FC000
00007FC000
00007F8000
0007FFFE00
000FFFFE00
000FFFFC00
0007FFFC00
0000FF8000
0000FF0000
0000FF0000
0000FF0000
0000FF0000
0000FF0000
0000FF0000
0001FE0000
0001FE0000
0001FE0000
0001FE0000
0001FE0000
0001FE0000
0001FC0000
0001FC0000
0003FC0000
0003FC0000
0003FC0000
0003FC0000
0003F80000
0003F80000
0003F80000
0007F80000
0007F00000
0007F00000
0007F00000
3C0FE00000
7C0FE00000
7C0FC00000
7C1F800000
7E3F800000
7FFF000000
7FFE000000
FFF8000000
0FC0000000
ENDCHAR
STARTCHAR 019D
ENCODING 413
SWIDTH 720 0
DWIDTH 40 0
BBX 45 52 -7 -14
BITMAP
007FF0007FF8
007FF8007FF8
007FF8003FF8
007FFC003FF8
000FFE0007E0
0007FF0007C0
0007FF0003C0
0007FF8003C0
0007FFC003C0
0007FFE003C0
0007FFE003C0
0007BFF003C0
0007BFF803C0
00079FFC03C0
00078FFC03C0
000787FE03C0
000787FF03C0
000783FF83C0
000781FF83C0
000780FFC3C0
000780FFE3C0
0007807FF3C0
0007803FF3C0
0007801FFBC0
0007801FFFC0
0007800FFFC0
00078007FFC0
00078003FFC0
00078003FFC0
00078001FFC0
00078000FFC0
000780007FC0
000780007FC0
000780003FC0
000780001FC0
000780000FC0
000780000FC0
0007800007C0
000780000200
000780000000
000700000000
000F00000000
000F00000000
001F00000000
007E00000000
7FFE00000000
FFFC00000000
FFFC00000000
FFF800000000
FFF000000000
7FE000000000
0F0000000000
ENDCHAR
STARTCHAR 01A0
ENCODING 416
SWIDTH 738 0
DWIDTH 41 0
BBX 38 45 2 -1
BITMAP
00000001F0
00000001F8
00000001F8
00000001F8
00000001F8
00000003F0
0003FFDFF0
001FFFFFE0
007FFFFF80
01FF9FFC00
03FC03FF00
07F801FF80
0FF000FFC0
1FE0007FC0
1FC0003FE0
3FC0003FF0
3FC0001FF0
7F80001FF0
7F80000FF8
7F80000FF8
FF80000FF8
FF80000FF8
FF800007F8
FF800007FC
FF800007FC
FF800007FC
FF800007F8
FF800007F8
FF800007F8
FF800007F8
7F80000FF8
7FC0000FF8
7FC0000FF0
7FC0000FF0
3FE0001FE0
3FE0001FE0
1FF0001FC0
0FF8003FC0
07FC007F80
07FE00FF00
01FF83FE00
00FFFFF800
003FFFF000
000FFF8000
0000300000
ENDCHAR
STARTCHAR 01A1
ENCODING 417
SWIDTH 594 0
DWIDTH 33 0
BBX 29 33 2 -1
BITMAP
000000F0
000001F0
000001F8
000001F8
000001F8
000001F0
003FC3F0
01FFFFE0
07FFFFC0
0FFBFF00
1FC0FF80
3FC07FC0
3F803FC0
7F803FE0
7F001FE0
FF001FE0
FF001FF0
FF001FF0
FF000FF0
FF000FF0
FF000FF0
FF000FF0
FF800FE0
FF801FE0
7F801FE0
7FC01FC0
3FC03FC0
3FE03F80
1FF0FF00
0FFFFE00
07FFFC00
00FFF000
00060000
ENDCHAR
STARTCHAR 01AF
ENCODING 431
SWIDTH 756 0
DWIDTH 42 0
BBX 39 45 2 0
BITMAP
000000003E
000000003E
000000003E
000000003E
000000003E
000000007E
FFFF01FFFE
FFFF01FFFC
FFFF01FFF8
FFFF01FFC0
3FF8007F00
1FF0003E00
1FF0003E00
1FF0001E00
0FF0001C00
0FF0001C00
0FF0001C00
0FF0001C00
0FF0001C00
0FF0001C00
0FF0001C00
0FF0001C00
0FF0001C00
0FF0001C00
0FF0001C00
0FF0001C00
0FF0001C00
0FF0001C00
0FF0001C00
0FF0001C00
0FF0001C00
0FF0001C00
0FF0001C00
0FF0001C00
0FF0003C00
0FF8003C00
0FF8003C00
0FF8003C00
07FC007800
07FE00F800
03FF87F000
01FFFFE000
00FFFFC000
003FFF0000
0000600000
ENDCHAR
STARTCHAR 01B0
ENCODING 432
SWIDTH 648 0
DWIDTH 36 0
BBX 33 32 1 -1
BITMAP
0000000F80
0000000F80
0000000F80
0000000F80
0000000F80
0000001F80
0040007F00
0FE01FFE00
FFE0FFFC00
FFE0FFF000
FFE0FFF000
3FE01FF000
1FE00FF000
1FE00FF000
1FE00FF000
1FE00FF000
1FE00FF000
1FE00FF000
1FE00FF000
1FE00FF000
1FE00FF000
1FE00FF000
1FE00FF000
1FE00FF000
1FF00FF000
0FF00FF000
0FF80FF800
0FFC0FFE00
0FFFFFFE00
07FFFFFE00
03FFEFFE00
01FF0F0000
ENDCHAR
STARTCHAR 01B7
ENCODING 439
SWIDTH 594 0
DWIDTH 33 0
BBX 28 39 3 -1
BITMAP
7FFFFFC0
7FFFFFE0
7FFFFFE0
7FFFFFE0
7F007FC0
7E00FFC0
7C00FF80
7C01FF80
F803FF00
F803FE00
F807FE00
000FFC00
001FF800
001FF000
003FF000
007FE000
00FFC000
00FFE000
00FFFE00
007FFF00
001FFFC0
0000FFE0
00007FE0
00003FF0
00001FF0
00001FF0
30000FF0
F0000FF0
F8000FF0
F8000FF0
F8001FF0
FC001FF0
FC003FE0
FE007FC0
FFC3FF80
FFFFFF00
7FFFFE00
0FFFF000
001C0000
ENDCHAR
STARTCHAR 01C4
ENCODING 452
SWIDTH 1332 0
DWIDTH 74 0
BBX 70 49 2 0
BITMAP
000000000000E00300
000000000001F80F80
000000000001FE3F80
000000000000FFFE00
0000000000007FFC00
0000000000001FF800
0000000000000FE000
00000000000007C000
000000000000010000
000000000000000000
000000000000000000
FFFFF000001FFFFFF0
FFFFFFC0001FFFFFF8
FFFFFFF8001FFFFFF8
7FFFFFFC001FFFFFF8
1FF807FF001FC01FF8
0FF801FF801F803FF0
0FF800FFC01F003FF0
0FF8007FC01F007FE0
0FF8003FE01F007FC0
0FF8003FE01E00FFC0
0FF8001FF03E00FF80
0FF8001FF00001FF80
0FF8001FF00003FF00
0FF8000FF00003FF00
0FF8000FF80007FE00
0FF8000FF80007FE00
0FF8000FF8000FFC00
0FF8000FF8000FFC00
0FF8000FF8001FF800
0FF8000FF8001FF000
0FF8000FF8003FF000
0FF8000FF8007FE000
0FF8000FF8007FE000
0FF8000FF000FFC000
0FF8000FF000FFC000
0FF8000FF001FF8000
0FF8001FF003FF0000
0FF8001FE003FF0040
0FF8001FE007FE007C
0FF8003FC007FE007C
0FF8003FC00FFC007C
0FF8007F801FF800F8
0FF800FF001FF801F8
0FFC03FE003FF003F8
3FFF9FF8003FF01FF8
7FFFFFF0007FFFFFF8
FFFFFF80007FFFFFF8
FFFFF800003FFFFFF8
ENDCHAR
STARTCHAR 01C5
ENCODING 453
SWIDTH 1242 0
DWIDTH 69 0
BBX 65 40 2 0
BITMAP
000000000004000800
00000000000E001C00
FFFFF000001F003E00
FFFFFFC0000FC0FC00
FFFFFFF80007F3F800
7FFFFFFC0003FFF000
1FF807FF0001FFE000
0FF801FF8000FFC000
0FF800FFC000FF8000
0FF8007FC0007F0000
0FF8003FE0003E0000
0FF8003FE000000000
0FF8001FF000000000
0FF8001FF000000000
0FF8001FF03FC0FF00
0FF8000FF03FFFFF00
0FF8000FF83FFFFF00
0FF8000FF83FFFFF00
0FF8000FF83F03FF00
0FF8000FF83E03FE00
0FF8000FF83E07FC00
0FF8000FF83E0FFC00
0FF8000FF83C0FF800
0FF8000FF8041FF000
0FF8000FF8003FF000
0FF8000FF0003FE000
0FF8000FF0007FC000
0FF8000FF000FFC000
0FF8001FF001FF8000
0FF8001FE001FF0000
0FF8001FE003FF0700
0FF8003FC007FE0780
0FF8003FC007FC0F80
0FF8007F800FF80F80
0FF800FF001FF80F80
0FFC03FE003FF01F80
3FFF9FF8003FE07F80
7FFFFFF0007FFFFF80
FFFFFF80003FFFFF80
FFFFF800003FFFFF80
ENDCHAR
STARTCHAR 01C6
ENCODING 454
SWIDTH 1116 0
DWIDTH 62 0
BBX 58 41 2 -1
BITMAP
0000004002000400
000007E007000E00
0001FFE00F801F00
0001FFE007E07E00
0001FFE003F9FC00
00007FE001FFF800
00001FE000FFF000
00001FE0007FE000
00001FE0007FC000
00001FE0003F8000
00001FE0001F0000
00001FE000000000
00001FE000000000
00001FE000000000
001FFFE01FE07F80
00FFFFE01FFFFF80
03FFFFE01FFFFF80
07FCFFE01FFFFF80
0FE03FE01F81FF80
1FC01FE01F01FF00
3FC01FE01F03FE00
3F801FE01F07FE00
7F801FE01E07FC00
7F801FE0020FF800
FF001FE0001FF800
FF001FE0001FF000
FF001FE0003FE000
FF001FE0007FE000
FF001FE000FFC000
FF001FE000FF8000
FF801FE001FF8380
FF801FE003FF03C0
FF801FE003FE07C0
7FC01FE007FC07C0
7FE01FF00FFC07C0
7FF01FFC1FF80FC0
3FFFFFFC1FF03FC0
1FFFFFFC3FFFFFC0
0FFFDFFC1FFFFFC0
03FF1E001FFFFFC0
0030000000000000
ENDCHAR
STARTCHAR 01C7
ENCODING 455
SWIDTH 954 0
DWIDTH 53 0
BBX 50 52 2 -14
BITMAP
FFFF80007FFFC0
FFFF80007FFFC0
FFFF80007FFF80
7FFF80007FFF80
1FFC00000FFE00
0FF8000007FC00
0FF8000007FC00
0FF8000007FC00
0FF8000007FC00
0FF8000007FC00
0FF8000007FC00
0FF8000007FC00
0FF8000007FC00
0FF8000007FC00
0FF8000007FC00
0FF8000007FC00
0FF8000007FC00
0FF8000007FC00
0FF8000007FC00
0FF8000007FC00
0FF8000007FC00
0FF8000007FC00
0FF8000007FC00
0FF8000007FC00
0FF8000007FC00
0FF8000007FC00
0FF8000007FC00
0FF8002007FC00
0FF8003C07FC00
0FF8003C07FC00
0FF8007C07FC00
0FF8007C07F800
0FF800FC07F800
0FFC01FC07F800
3FFF9FF807F800
7FFFFFF807F800
FFFFFFF807F800
FFFFFFF807F800
0000000007F800
0000000007F800
0000000007F000
0000000007F000
000000000FF000
000000000FE000
000000001FE000
000000001FC000
000000003F8000
000000007F0000
00000000FE0000
00000001F80000
00000001E00000
00000000800000
ENDCHAR
STARTCHAR 01C8
ENCODING 456
SWIDTH 900 0
DWIDTH 50 0
BBX 46 52 2 -14
BITMAP
FFFF800003F0
FFFF800007F8
FFFF80000FF8
7FFF80000FFC
1FFC00000FF8
0FF800000FF8
0FF8000007F0
0FF8000000C0
0FF800000000
0FF800000000
0FF800000000
0FF800000000
0FF800000010
0FF8000003F8
0FF800003FF8
0FF800007FF8
0FF800007FF8
0FF800000FF8
0FF8000007F8
0FF8000007F8
0FF8000007F8
0FF8000007F8
0FF8000007F8
0FF8000007F8
0FF8000007F8
0FF8000007F8
0FF8000007F8
0FF8002007F8
0FF8003C07F8
0FF8003C07F8
0FF8007C07F8
0FF8007C07F8
0FF800FC07F8
0FFC01FC07F8
3FFF9FF807F8
7FFFFFF807F8
FFFFFFF807F8
FFFFFFF807F8
0000000007F8
0000000007F8
0000000007F0
0000000007F0
000000000FE0
000000000FE0
000000000FC0
000000001FC0
000000003F80
000000007F00
000000007E00
00000000FC00
000000007000
000000002000
ENDCHAR
STARTCHAR 01C9
ENCODING 457
SWIDTH 648 0
DWIDTH 36 0
BBX 31 54 2 -14
BITMAP
00600000
07E00000
FFF001FC
FFF003FC
FFF003FE
3FF003FE
1FF003FE
0FF003FE
0FF001FC
0FF00060
0FF00000
0FF00000
0FF00000
0FF00000
0FF0000C
0FF000FC
0FF01FFE
0FF01FFE
0FF01FFE
0FF007FE
0FF003FE
0FF001FE
0FF001FE
0FF001FE
0FF001FE
0FF001FE
0FF001FE
0FF001FE
0FF001FE
0FF001FE
0FF001FE
0FF001FE
0FF001FE
0FF001FE
1FF001FE
1FF001FE
3FF801FE
FFFE01FE
FFFE01FE
FFFE01FC
000001FC
000001FC
000003FC
000003F8
000003F8
000007F0
000007F0
00000FE0
00000FC0
00001F80
00003F00
00003E00
00003C00
00001000
ENDCHAR
STARTCHAR 01CA
ENCODING 458
SWIDTH 1080 0
DWIDTH 60 0
BBX 56 52 2 -14
BITMAP
FFE000FFF0FFFF
FFF000FFF0FFFF
FFF0007FF0FFFF
FFF8007FF0FFFF
1FFC000FC01FFC
0FFE000F800FF8
0FFE0007800FF8
0FFF0007800FF0
0FFF8007800FF0
0FFFC007800FF0
0FFFC007800FF0
0F7FE007800FF0
0F7FF007800FF0
0F3FF807800FF0
0F1FF807800FF0
0F0FFC07800FF0
0F0FFE07800FF0
0F07FF07800FF0
0F03FF07800FF0
0F01FF87800FF0
0F01FFC7800FF0
0F00FFE7800FF0
0F007FE7800FF0
0F003FF7800FF0
0F003FFF800FF0
0F001FFF800FF0
0F000FFF800FF0
0F0007FF800FF0
0F0007FF800FF0
0F0003FF800FF0
0F0001FF800FF0
0F0000FF800FF0
0F8000FF800FF0
1F80007F800FF0
7FE0003F800FF0
FFF0001F800FF0
FFF0001F800FF0
FFF0000F800FF0
00000000000FF0
00000000000FF0
00000000000FE0
00000000001FE0
00000000001FE0
00000000001FC0
00000000003F80
00000000003F80
00000000007F00
0000000000FE00
0000000001F800
0000000003F000
0000000003C000
00000000010000
ENDCHAR
STARTCHAR 01CB
ENCODING 459
SWIDTH 1026 0
DWIDTH 57 0
BBX 52 52 2 -14
BITMAP
FFE000FFF007E0
FFF000FFF00FF0
FFF0007FF01FF0
FFF8007FF01FF0
1FFC000FC01FF0
0FFE000F801FF0
0FFE0007800FE0
0FFF0007800380
0FFF8007800000
0FFFC007800000
0FFFC007800000
0F7FE007800000
0F7FF007800060
0F3FF8078007F0
0F1FF80780FFF0
0F0FFC0780FFF0
0F0FFE0780FFF0
0F07FF07803FF0
0F03FF07800FF0
0F01FF87800FF0
0F01FFC7800FF0
0F00FFE7800FF0
0F007FE7800FF0
0F003FF7800FF0
0F003FFF800FF0
0F001FFF800FF0
0F000FFF800FF0
0F0007FF800FF0
0F0007FF800FF0
0F0003FF800FF0
0F0001FF800FF0
0F0000FF800FF0
0F8000FF800FF0
1F80007F800FF0
7FE0003F800FF0
FFF0001F800FF0
FFF0001F800FF0
FFF0000F800FF0
00000000000FF0
00000000000FE0
00000000000FE0
00000000000FE0
00000000001FC0
00000000001FC0
00000000003F80
00000000003F00
00000000007F00
0000000000FE00
0000000001FC00
0000000001F800
0000000000E000
00000000004000
ENDCHAR
STARTCHAR 01CC
ENCODING 460
SWIDTH 954 0
DWIDTH 53 0
BBX 49 52 2 -14
BITMAP
00000000007E00
0000000000FF00
0000000001FF80
0000000001FF80
0000000001FF80
0000000000FF00
0000000000FE00
00000000001800
00000000000000
00000000000000
00000000000000
00000000000000
00601C00000300
07F0FFC0007F00
FFF3FFE007FF00
FFF7FFF00FFF00
FFFFFFF00FFF00
3FFE1FF801FF00
1FF00FF800FF00
0FF007F800FF00
0FF007FC00FF00
0FF007FC00FF00
0FF003FC00FF00
0FF003FC00FF00
0FF003FC00FF00
0FF003FC00FF00
0FF003FC00FF00
0FF003FC00FF00
0FF003F800FF00
0FF003F800FF00
0FF003FC00FF00
0FF007FC00FF00
0FF007FC00FF00
1FF807FC00FF00
3FFC0FFE00FF00
FFFE3FFF80FF00
FFFE3FFF80FF00
FFFF3FFF80FF00
0000000000FF00
0000000000FF00
0000000000FE00
0000000000FE00
0000000000FE00
0000000001FC00
0000000001F800
0000000003F800
0000000007F000
0000000007E000
000000000FC000
000000001F8000
000000000F0000
00000000040000
ENDCHAR
STARTCHAR 01CD
ENCODING 461
SWIDTH 702 0
DWIDTH 39 0
BBX 38 49 1 0
BITMAP
003800C000
00FE03E000
007F8FE000
003FFF8000
001FFF0000
000FFC0000
0003F80000
0001F00000
0000000000
0000000000
0000000000
0000F00000
0000F00000
0000F80000
0001F80000
0001FC0000
0003FC0000
0003FE0000
0003FE0000
0007FF0000
0007FF0000
000FFF0000
000EFF8000
000EFF8000
001E7FC000
001C7FC000
003C3FE000
00383FE000
00381FF000
00781FF000
00701FF000
00F00FF800
00F00FF800
00E007FC00
01E007FC00
01FFFFFE00
03FFFFFE00
03FFFFFF00
07FF81FF00
078001FF00
070000FF80
0F0000FF80
0F0000FFC0
1F00007FC0
1F00007FE0
7F8001FFF0
FFE003FFF8
FFE003FFF8
FFE003FFFC
ENDCHAR
STARTCHAR 01CE
ENCODING 462
SWIDTH 540 0
DWIDTH 30 0
BBX 26 40 4 0
BITMAP
7000F000
FC01F000
7E07E000
3F8FC000
1FFF8000
0FFF0000
07FE0000
03FC0000
01F80000
00F00000
00000000
00000000
00000000
003F8000
01FFE000
03FFF000
0FFFF800
1E1FF800
3E07F800
7E07FC00
FE07FC00
FE03FC00
FE03FC00
0003FC00
001FFC00
007FFC00
01FBFC00
0FE3FC00
3FC3FC00
7F03FC00
FF03FC00
FF03FC00
FF03FC00
FF03FE00
FF03FF80
FFCFFFC0
7FFFFFC0
7FFBFFC0
1FE1FE00
00004000
ENDCHAR
STARTCHAR 01CF
ENCODING 463
SWIDTH 378 0
DWIDTH 21 0
BBX 17 49 2 0
BITMAP
100200
7C0700
FE0F80
7FBF00
3FFE00
1FFC00
0FF800
07F000
03E000
010000
000000
FFFF80
FFFF80
FFFF80
7FFF80
1FFC00
0FF800
0FF800
0FF800
0FF800
0FF800
0FF800
0FF800
0FF800
0FF800
0FF800
0FF800
0FF800
0FF800
0FF800
0FF800
0FF800
0FF800
0FF800
0FF800
0FF800
0FF800
0FF800
0FF800
0FF800
0FF800
0FF800
0FF800
0FF800
0FF800
3FFE00
7FFF80
FFFF80
FFFF80
ENDCHAR
STARTCHAR 01D0
ENCODING 464
SWIDTH 342 0
DWIDTH 19 0
BBX 17 40 1 0
BITMAP
000200
780700
FC0F80
7E1F00
3F3E00
3FFE00
1FFC00
0FF800
07F000
07E000
03C000
000000
000000
000000
003000
03F800
7FF800
7FF800
7FF800
1FF800
07F800
07F800
07F800
07F800
07F800
07F800
07F800
07F800
07F800
07F800
07F800
07F800
07F800
07F800
07F800
0FFC00
1FFE00
7FFF80
7FFF80
7FFF80
ENDCHAR
STARTCHAR 01D1
ENCODING 465
SWIDTH 738 0
DWIDTH 41 0
BBX 38 50 2 -1
BITMAP
003C00E000
007E03F000
007F8FE000
001FFFC000
000FFF0000
0007FE0000
0003FC0000
0001F80000
0000800000
0000000000
0000000000
0003FF0000
001FFFE000
007FFFF800
01FF9FFC00
03FC03FF00
07F801FF80
0FF000FFC0
1FE0007FC0
1FC0003FE0
3FC0003FE0
3FC0001FF0
7F80001FF0
7F80000FF8
7F80000FF8
FF80000FF8
FF80000FF8
FF800007F8
FF800007FC
FF800007FC
FF800007FC
FF800007F8
FF800007F8
FF800007F8
FF800007F8
7F80000FF8
7FC0000FF8
7FC0000FF0
7FC0000FF0
3FE0001FE0
3FE0001FE0
1FF0001FC0
0FF8003FC0
07FC007F80
07FE00FF00
01FF83FE00
00FFFFF800
003FFFF000
000FFF8000
0000300000
ENDCHAR
STARTCHAR 01D2
ENCODING 466
SWIDTH 558 0
DWIDTH 31 0
BBX 28 40 2 0
BITMAP
0F000E00
0F803F00
0FE07E00
07F1FC00
03FFF800
01FFE000
00FFC000
007F8000
003F0000
001F0000
00000000
00000000
00000000
003FC000
01FFF800
07FFFE00
0FFBFF00
1FC0FF80
3FC07FC0
3F803FC0
7F803FE0
7F001FE0
FF001FE0
FF001FF0
FF001FF0
FF000FF0
FF000FF0
FF000FF0
FF000FF0
FF800FE0
FF801FE0
7F801FE0
7FC01FC0
3FC03FC0
3FE03F80
1FF0FF00
0FFFFE00
07FFFC00
00FFF000
00060000
ENDCHAR
STARTCHAR 01D3
ENCODING 467
SWIDTH 684 0
DWIDTH 38 0
BBX 34 50 2 -1
BITMAP
001C006000
003F01F000
003FC7F000
001FFFC000
000FFF8000
0003FF0000
0001FC0000
0000F80000
0000200000
0000000000
0000000000
FFFF01FFC0
FFFF01FFC0
FFFF01FFC0
FFFF01FFC0
3FF8007F00
1FF0003E00
1FF0003E00
1FF0001E00
0FF0001C00
0FF0001C00
0FF0001C00
0FF0001C00
0FF0001C00
0FF0001C00
0FF0001C00
0FF0001C00
0FF0001C00
0FF0001C00
0FF0001C00
0FF0001C00
0FF0001C00
0FF0001C00
0FF0001C00
0FF0001C00
0FF0001C00
0FF0001C00
0FF0001C00
0FF0001C00
0FF0003C00
0FF8003C00
0FF8003C00
0FF8003C00
07FC007800
07FE00F800
03FF87F000
01FFFFE000
00FFFFC000
003FFF0000
0000600000
ENDCHAR
STARTCHAR 01D4
ENCODING 468
SWIDTH 594 0
DWIDTH 33 0
BBX 31 39 1 0
BITMAP
03C00380
03E00FC0
03F81F80
01FC7F00
00FFFC00
007FF800
003FF000
001FE000
000FC000
00078000
00000000
00000000
00000000
00400060
0FE03FF0
FFE0FFF0
FFE0FFF0
FFE0FFF0
3FE01FF0
1FE00FF0
1FE00FF0
1FE00FF0
1FE00FF0
1FE00FF0
1FE00FF0
1FE00FF0
1FE00FF0
1FE00FF0
1FE00FF0
1FE00FF0
1FE00FF0
1FF00FF0
0FF00FF0
0FF80FF8
0FFC0FFE
0FFFFFFE
07FFFFFE
03FFEFFE
01FF0F00
ENDCHAR
STARTCHAR 01D5
ENCODING 469
SWIDTH 684 0
DWIDTH 38 0
BBX 34 56 2 -1
BITMAP
007FFFFC00
007FFFFC00
007FFFF800
0000000000
0000000000
0000000000
0000000000
001F01F000
003F83F800
007F87FC00
007F87FC00
007F87FC00
007F83FC00
003F03F800
001C00E000
0000000000
0000000000
FFFF01FFC0
FFFF01FFC0
FFFF01FFC0
FFFF01FFC0
3FF8007F00
1FF0003E00
1FF0003E00
1FF0001E00
0FF0001C00
0FF0001C00
0FF0001C00
0FF0001C00
0FF0001C00
0FF0001C00
0FF0001C00
0FF0001C00
0FF0001C00
0FF0001C00
0FF0001C00
0FF0001C00
0FF0001C00
0FF0001C00
0FF0001C00
0FF0001C00
0FF0001C00
0FF0001C00
0FF0001C00
0FF0001C00
0FF0003C00
0FF8003C00
0FF8003C00
0FF8003C00
07FC007800
07FE00F800
03FF87F000
01FFFFE000
00FFFFC000
003FFF0000
0000600000
ENDCHAR
STARTCHAR 01D6
ENCODING 470
SWIDTH 594 0
DWIDTH 33 0
BBX 31 43 1 -1
BITMAP
07FFFFC0
07FFFFC0
07FFFFC0
06000000
00000000
00000000
00000000
01F01F00
03F83F80
07F83FC0
07FC3FC0
07FC3FC0
07F83FC0
03F81F80
01E00F00
00000000
00000000
00400060
0FE03FF0
FFE0FFF0
FFE0FFF0
FFE0FFF0
3FE01FF0
1FE00FF0
1FE00FF0
1FE00FF0
1FE00FF0
1FE00FF0
1FE00FF0
1FE00FF0
1FE00FF0
1FE00FF0
1FE00FF0
1FE00FF0
1FE00FF0
1FF00FF0
0FF00FF0
0FF80FF8
0FFC0FFE
0FFFFFFE
07FFFFFE
03FFEFFE
01FF0F00
ENDCHAR
STARTCHAR 01D7
ENCODING 471
SWIDTH 684 0
DWIDTH 38 0
BBX 34 60 2 -1
BITMAP
0000010000
00001FC000
00001F8000
00001F0000
00003F0000
00003E0000
00007C0000
0000780000
0000000000
0000000000
0000000000
001F01F000
003F83F800
007F87FC00
007F87FC00
007F87FC00
007F83FC00
003F03F800
001C00E000
0000000000
0000000000
FFFF01FFC0
FFFF01FFC0
FFFF01FFC0
FFFF01FFC0
3FF8007F00
1FF0003E00
1FF0003E00
1FF0001E00
0FF0001C00
0FF0001C00
0FF0001C00
0FF0001C00
0FF0001C00
0FF0001C00
0FF0001C00
0FF0001C00
0FF0001C00
0FF0001C00
0FF0001C00
0FF0001C00
0FF0001C00
0FF0001C00
0FF0001C00
0FF0001C00
0FF0001C00
0FF0001C00
0FF0001C00
0FF0001C00
0FF0003C00
0FF8003C00
0FF8003C00
0FF8003C00
07FC007800
07FE00F800
03FF87F000
01FFFFE000
00FFFFC000
003FFF0000
0000600000
ENDCHAR
STARTCHAR 01D8
ENCODING 472
SWIDTH 594 0
DWIDTH 33 0
BBX 31 46 1 -1
BITMAP
0000FE00
0001FC00
0001F800
0003F000
0003E000
0007C000
0007C000
00038000
00000000
00000000
01F01F00
03F83F80
07F83FC0
07FC3FC0
07FC3FC0
07F83FC0
03F81F80
01E00F00
00000000
00000000
00400060
0FE03FF0
FFE0FFF0
FFE0FFF0
FFE0FFF0
3FE01FF0
1FE00FF0
1FE00FF0
1FE00FF0
1FE00FF0
1FE00FF0
1FE00FF0
1FE00FF0
1FE00FF0
1FE00FF0
1FE00FF0
1FE00FF0
1FE00FF0
1FF00FF0
0FF00FF0
0FF80FF8
0FFC0FFE
0FFFFFFE
07FFFFFE
03FFEFFE
01FF0F00
ENDCHAR
STARTCHAR 01D9
ENCODING 473
SWIDTH 684 0
DWIDTH 38 0
BBX 34 60 2 -1
BITMAP
0008006000
003E00F000
007F83F000
001FEFE000
000FFFC000
0007FF0000
0003FE0000
0001F80000
0000F00000
0000000000
0000000000
001F01F000
003F83F800
007F87FC00
007F87FC00
007F87FC00
007F83FC00
003F03F800
001C00E000
0000000000
0000000000
FFFF01FFC0
FFFF01FFC0
FFFF01FFC0
FFFF01FFC0
3FF8007F00
1FF0003E00
1FF0003E00
1FF0001E00
0FF0001C00
0FF0001C00
0FF0001C00
0FF0001C00
0FF0001C00
0FF0001C00
0FF0001C00
0FF0001C00
0FF0001C00
0FF0001C00
0FF0001C00
0FF0001C00
0FF0001C00
0FF0001C00
0FF0001C00
0FF0001C00
0FF0001C00
0FF0001C00
0FF0001C00
0FF0001C00
0FF0003C00
0FF8003C00
0FF8003C00
0FF8003C00
07FC007800
07FE00F800
03FF87F000
01FFFFE000
00FFFFC000
003FFF0000
0000600000
ENDCHAR
STARTCHAR 01DA
ENCODING 474
SWIDTH 594 0
DWIDTH 33 0
BBX 31 47 1 -1
BITMAP
00C00200
03E00F00
03F83F80
01FEFE00
00FFFC00
007FF800
001FE000
000FC000
00078000
00000000
00000000
01F01F00
03F83F80
07F83FC0
07FC3FC0
07FC3FC0
07F83FC0
03F81F80
01E00F00
00000000
00000000
00400060
0FE03FF0
FFE0FFF0
FFE0FFF0
FFE0FFF0
3FE01FF0
1FE00FF0
1FE00FF0
1FE00FF0
1FE00FF0
1FE00FF0
1FE00FF0
1FE00FF0
1FE00FF0
1FE00FF0
1FE00FF0
1FE00FF0
1FE00FF0
1FF00FF0
0FF00FF0
0FF80FF8
0FFC0FFE
0FFFFFFE
07FFFFFE
03FFEFFE
01FF0F00
ENDCHAR
STARTCHAR 01DB
ENCODING 475
SWIDTH 684 0
DWIDTH 38 0
BBX 34 59 2 -1
BITMAP
0007E00000
0007F00000
0003F00000
0001F00000
0000F80000
00007C0000
00007C0000
0000200000
0000000000
0000000000
001F01F000
003F83F800
007F87FC00
007F87FC00
007F87FC00
007F83FC00
003F03F800
001C00E000
0000000000
0000000000
FFFF01FFC0
FFFF01FFC0
FFFF01FFC0
FFFF01FFC0
3FF8007F00
1FF0003E00
1FF0003E00
1FF0001E00
0FF0001C00
0FF0001C00
0FF0001C00
0FF0001C00
0FF0001C00
0FF0001C00
0FF0001C00
0FF0001C00
0FF0001C00
0FF0001C00
0FF0001C00
0FF0001C00
0FF0001C00
0FF0001C00
0FF0001C00
0FF0001C00
0FF0001C00
0FF0001C00
0FF0001C00
0FF0001C00
0FF0003C00
0FF8003C00
0FF8003C00
0FF8003C00
07FC007800
07FE00F800
03FF87F000
01FFFFE000
00FFFFC000
003FFF0000
0000600000
ENDCHAR
STARTCHAR 01DC
ENCODING 476
SWIDTH 594 0
DWIDTH 33 0
BBX 31 46 1 -1
BITMAP
007E0000
007F0000
003F0000
001F8000
000F8000
0007C000
0007C000
00038000
00000000
00000000
01F01F00
03F83F80
07F83FC0
07FC3FC0
07FC3FC0
07F83FC0
03F81F80
01E00F00
00000000
00000000
00400060
0FE03FF0
FFE0FFF0
FFE0FFF0
FFE0FFF0
3FE01FF0
1FE00FF0
1FE00FF0
1FE00FF0
1FE00FF0
1FE00FF0
1FE00FF0
1FE00FF0
1FE00FF0
1FE00FF0
1FE00FF0
1FE00FF0
1FE00FF0
1FF00FF0
0FF00FF0
0FF80FF8
0FFC0FFE
0FFFFFFE
07FFFFFE
03FFEFFE
01FF0F00
ENDCHAR
STARTCHAR 01DD
ENCODING 477
SWIDTH 504 0
DWIDTH 28 0
BBX 24 27 2 -1
BITMAP
01FE00
0FFFC0
3FFFF0
7FFFF8
FC1FFC
7007FE
4003FE
0001FE
0001FF
0000FF
0000FF
0000FF
7FFFFF
FFFFFF
FFFFFF
FF00FF
FF00FF
FF00FF
FF00FF
7F00FE
7F01FE
3F81FC
3FC3F8
1FFFF0
0FFFE0
03FF80
001800
ENDCHAR
STARTCHAR 01E4
ENCODING 484
SWIDTH 702 0
DWIDTH 39 0
BBX 37 39 2 -1
BITMAP
0003FFC000
001FFFFC00
007FFFFF00
01FF87FF80
03FE007F00
07F8003F00
0FF0003F00
1FE0001F00
1FE0001F00
3FC0000F00
3FC0000F00
7FC0000F00
7F80000000
7F80000000
FF80000000
FF80000000
FF80000000
FF80000000
FF80000000
FF80000000
FF8007FFE0
FF8007FFE0
FF8007FFE0
FF8001FFC0
FF80007F80
7FC0007F80
7FC0007F80
7FC01FFFF8
3FE03FFFF8
3FE03FFFF8
1FF03FFFF0
0FF8007F80
0FFC007F80
07FE007F80
03FF81FF80
00FFFFFE00
003FFFF800
000FFFE000
0000300000
ENDCHAR
STARTCHAR 01E5
ENCODING 485
SWIDTH 540 0
DWIDTH 30 0
BBX 33 40 -2 -14
BITMAP
000FF00000
007FFFFE00
01FFFFFE00
03FC3FFE00
03F81FC200
07F80FE000
07F00FF000
07F00FF000
0FF00FF000
0FF00FF000
0FF00FF000
07F80FF000
07F80FF000
07FC0FE000
03FE3FC000
01FFFF8000
00FFFF0000
00FFFC0000
01F0000000
03E0000000
03F0000000
07FF800000
07FFFFE000
07FFFFF000
07FFFFF800
03FFFFFC00
01FFFFFC00
01FFFFFC00
03EFFFFC00
07E003FC00
7FFFFFFF80
7FFFFFFF80
FFFFFFFF80
FFFFFFFF80
0FE003F000
0FF00FE000
07FFFFC000
07FFFF0000
01FFFC0000
003FE00000
ENDCHAR
STARTCHAR 01E6
ENCODING 486
SWIDTH 702 0
DWIDTH 39 0
BBX 35 50 2 -1
BITMAP
001C006000
003F01F000
003FC7F000
001FFFC000
000FFF8000
0003FF0000
0001FC0000
0000F80000
0000200000
0000000000
0000000000
0003FFC000
001FFFFC00
007FFFFF00
01FF87FF80
03FE007F00
07F8003F00
0FF0003F00
1FE0001F00
1FE0001F00
3FC0000F00
3FC0000F00
7FC0000F00
7F80000000
7F80000000
FF80000000
FF80000000
FF80000000
FF80000000
FF80000000
FF80000000
FF8007FFE0
FF8007FFE0
FF8007FFE0
FF8000FF80
FF80007F80
7FC0007F80
7FC0007F80
7FC0007F80
3FE0007F80
3FE0007F80
1FF0007F80
0FF8007F80
0FFC007F80
07FE007F80
03FF81FF80
00FFFFFE00
003FFFF800
000FFFE000
0000300000
ENDCHAR
STARTCHAR 01E7
ENCODING 487
SWIDTH 540 0
DWIDTH 30 0
BBX 27 54 2 -14
BITMAP
08000000
1C003800
3F007C00
1F81F800
0FE7F000
07FFE000
03FFC000
01FF8000
00FF0000
007E0000
007C0000
00000000
00000000
00000000
00FF0000
07FFFFE0
1FFFFFE0
3FC3FFE0
3F81FC20
7F80FE00
7F00FF00
7F00FF00
FF00FF00
FF00FF00
FF00FF00
7F80FF00
7F80FF00
7FC0FE00
3FE3FC00
1FFFF800
0FFFF000
0FFFC000
1F000000
3E000000
3F000000
7FF80000
7FFFFE00
7FFFFF00
7FFFFF80
3FFFFFC0
1FFFFFC0
1FFFFFC0
3EFFFFC0
7E003FC0
FC001FC0
FC001FC0
FC001F80
FC001F80
FE003F00
FF00FE00
7FFFFC00
7FFFF000
1FFFC000
03FC0000
ENDCHAR
STARTCHAR 01E8
ENCODING 488
SWIDTH 720 0
DWIDTH 40 0
BBX 37 49 2 0
BITMAP
003C00E000
007E03F000
007F8FF000
001FFFC000
000FFF8000
0007FE0000
0003FC0000
0001F80000
0000800000
0000000000
0000000000
FFFF83FFE0
FFFF83FFE0
FFFF83FFE0
7FFF83FFE0
1FFC00FF00
0FF800FC00
0FF801F800
0FF801F000
0FF803E000
0FF807C000
0FF80F8000
0FF81F0000
0FF83E0000
0FF87C0000
0FF8F80000
0FF9F00000
0FFBF00000
0FFFF80000
0FFFFC0000
0FFFFC0000
0FFFFE0000
0FFBFF0000
0FFBFF8000
0FF9FFC000
0FF8FFC000
0FF87FE000
0FF83FF000
0FF83FF000
0FF81FF800
0FF80FFC00
0FF807FE00
0FF807FE00
0FF803FF00
0FF803FFC0
3FFE01FFF0
7FFF80FFF8
FFFF80FFF8
FFFF807FF8
ENDCHAR
STARTCHAR 01E9
ENCODING 489
SWIDTH 594 0
DWIDTH 33 0
BBX 32 49 2 0
BITMAP
01C00600
03F01F00
03FC7F00
01FFFC00
00FFF800
003FF000
001FC000
000F8000
00020000
00600000
07E00000
FFF00000
FFF00000
FFF00000
3FF00000
1FF00000
0FF00000
0FF00000
0FF00000
0FF00000
0FF00000
0FF00000
0FF00000
0FF0380E
0FF03FFE
0FF03FFC
0FF03FFC
0FF00FE0
0FF01F80
0FF01F00
0FF03E00
0FF07C00
0FF0F000
0FF3F000
0FF7F000
0FFFF800
0FF7FC00
0FF7FE00
0FF3FF00
0FF1FF00
0FF0FF80
0FF07FC0
0FF07FE0
1FF03FF0
1FF01FF8
3FF80FFE
FFFE07FF
FFFE07FF
FFFE03FE
ENDCHAR
STARTCHAR 01EA
ENCODING 490
SWIDTH 738 0
DWIDTH 41 0
BBX 38 52 2 -14
BITMAP
0003FF0000
001FFFE000
007FFFF800
01FF9FFC00
03FC03FF00
07F801FF80
0FF000FFC0
1FE0007FC0
1FC0003FE0
3FC0003FE0
3FC0001FF0
7F80001FF0
7F80000FF8
7F80000FF8
FF80000FF8
FF80000FF8
FF800007F8
FF800007FC
FF800007FC
FF800007FC
FF800007FC
FF800007F8
FF800007F8
FF800007F8
7F80000FF8
7FC0000FF8
7FC0000FF0
7FC0000FF0
3FE0001FE0
3FE0001FE0
1FF0001FC0
0FF8003FC0
07FC007F80
07FE00FF00
01FF83FE00
00FFFFF800
003FFFF000
000FFFC000
00003F0000
00003E0000
00007E0000
00007C0000
0000FC0000
0000FC0000
0001FC0000
0001FE0000
0001FFF000
0001FFF800
0000FFF800
0000FFF000
00007FC000
00001F0000
ENDCHAR
STARTCHAR 01EB
ENCODING 491
SWIDTH 558 0
DWIDTH 31 0
BBX 28 40 2 -14
BITMAP
003FC000
01FFF800
07FFFE00
0FFBFF00
1FC0FF80
3FC07FC0
3F803FC0
7F803FE0
7F001FE0
FF001FE0
FF001FF0
FF001FF0
FF000FF0
FF000FF0
FF000FF0
FF000FF0
FF800FE0
FF801FE0
7F801FE0
7FC01FC0
3FC03FC0
3FE03F80
1FF0FF00
0FFFFE00
07FFFC00
01FFF000
000F8000
003E0000
00FC0000
01F80000
01F80000
03F80000
03F80000
03FC0000
03FFE000
03FFE000
03FFE000
01FFC000
00FF0000
003C0000
ENDCHAR
STARTCHAR 01EE
ENCODING 494
SWIDTH 594 0
DWIDTH 33 0
BBX 28 50 3 -1
BITMAP
07001C00
0FC07C00
0FF1FC00
07FFF800
01FFE000
00FFC000
007F0000
003E0000
00000000
00000000
00000000
7FFFFFC0
7FFFFFE0
7FFFFFE0
7FFFFFE0
7F007FC0
7E00FFC0
7C00FF80
7C01FF80
F803FF00
F803FE00
F807FE00
000FFC00
001FF800
001FF000
003FF000
007FE000
00FFC000
00FFE000
00FFFE00
007FFF00
001FFFC0
0000FFE0
00007FE0
00003FF0
00001FF0
00001FF0
30000FF0
F0000FF0
F8000FF0
F8000FF0
F8001FF0
FC001FF0
FC003FE0
FE007FC0
FFC3FF80
FFFFFF00
7FFFFE00
0FFFF000
001C0000
ENDCHAR
STARTCHAR 01EF
ENCODING 495
SWIDTH 504 0
DWIDTH 28 0
BBX 24 53 3 -13
BITMAP
380078
7E00F8
3F03F0
1FC7E0
0FFFC0
07FF80
03FF00
01FE00
00FC00
007800
000000
000000
000000
FF01FC
FFFFFC
FFFFFE
FFFFFE
FE07FC
FC07FC
F80FF8
F81FF0
F81FF0
103FE0
003FE0
007FC0
00FF80
00FF80
01FF00
01FE00
03FE00
07FF00
07FFE0
07FFF0
07FFFC
000FFC
0003FE
0003FE
0001FF
0001FF
0000FF
0000FF
0000FF
0000FF
F001FE
F001FE
F001FE
F803FC
FC07F8
FE0FF8
FFFFF0
FFFFC0
7FFF00
07F000
ENDCHAR
STARTCHAR 01F1
ENCODING 497
SWIDTH 1332 0
DWIDTH 74 0
BBX 70 38 2 0
BITMAP
FFFFF000001FFFFFF0
FFFFFFC0001FFFFFF8
FFFFFFF8001FFFFFF8
7FFFFFFC001FFFFFF8
1FF807FF001FC01FF8
0FF801FF801F803FF0
0FF800FFC01F003FF0
0FF8007FC01F007FE0
0FF8003FE01F007FC0
0FF8003FE01E00FFC0
0FF8001FF03E00FF80
0FF8001FF00001FF80
0FF8001FF00003FF00
0FF8000FF00003FF00
0FF8000FF80007FE00
0FF8000FF80007FE00
0FF8000FF8000FFC00
0FF8000FF8000FFC00
0FF8000FF8001FF800
0FF8000FF8001FF000
0FF8000FF8003FF000
0FF8000FF8007FE000
0FF8000FF8007FE000
0FF8000FF000FFC000
0FF8000FF000FFC000
0FF8000FF001FF8000
0FF8001FF003FF0000
0FF8001FE003FF0040
0FF8001FE007FE007C
0FF8003FC007FE007C
0FF8003FC00FFC007C
0FF8007F801FF800F8
0FF800FF001FF801F8
0FFC03FE003FF003F8
3FFF9FF8003FF01FF8
7FFFFFF0007FFFFFF8
FFFFFF80007FFFFFF8
FFFFF800003FFFFFF8
ENDCHAR
STARTCHAR 01F2
ENCODING 498
SWIDTH 1242 0
DWIDTH 69 0
BBX 65 38 2 0
BITMAP
FFFFF0000000000000
FFFFFFC00000000000
FFFFFFF80000000000
7FFFFFFC0000000000
1FF807FF0000000000
0FF801FF8000000000
0FF800FFC000000000
0FF8007FC000000000
0FF8003FE000000000
0FF8003FE000000000
0FF8001FF000000000
0FF8001FF000000000
0FF8001FF03FC0FF00
0FF8000FF03FFFFF00
0FF8000FF83FFFFF00
0FF8000FF83FFFFF00
0FF8000FF83F03FF00
0FF8000FF83E03FE00
0FF8000FF83E07FC00
0FF8000FF83E0FFC00
0FF8000FF83C0FF800
0FF8000FF8041FF000
0FF8000FF8003FF000
0FF8000FF0003FE000
0FF8000FF0007FC000
0FF8000FF000FFC000
0FF8001FF001FF8000
0FF8001FE001FF0000
0FF8001FE003FF0700
0FF8003FC007FE0780
0FF8003FC007FC0F80
0FF8007F800FF80F80
0FF800FF001FF80F80
0FFC03FE003FF01F80
3FFF9FF8003FE07F80
7FFFFFF0007FFFFF80
FFFFFF80003FFFFF80
FFFFF800003FFFFF80
ENDCHAR
STARTCHAR 01F3
ENCODING 499
SWIDTH 1116 0
DWIDTH 62 0
BBX 58 41 2 -1
BITMAP
0000004000000000
000007E000000000
0001FFE000000000
0001FFE000000000
0001FFE000000000
00007FE000000000
00001FE000000000
00001FE000000000
00001FE000000000
00001FE000000000
00001FE000000000
00001FE000000000
00001FE000000000
00001FE000000000
001FFFE01FE07F80
00FFFFE01FFFFF80
03FFFFE01FFFFF80
07FCFFE01FFFFF80
0FE03FE01F81FF80
1FC01FE01F01FF00
3FC01FE01F03FE00
3F801FE01F07FE00
7F801FE01E07FC00
7F801FE0020FF800
FF001FE0001FF800
FF001FE0001FF000
FF001FE0003FE000
FF001FE0007FE000
FF001FE000FFC000
FF001FE000FF8000
FF801FE001FF8380
FF801FE003FF03C0
FF801FE003FE07C0
7FC01FE007FC07C0
7FE01FF00FFC07C0
7FF01FFC1FF80FC0
3FFFFFFC1FF03FC0
1FFFFFFC3FFFFFC0
0FFFDFFC1FFFFFC0
03FF1E001FFFFFC0
0030000000000000
ENDCHAR
STARTCHAR 01FA
ENCODING 506
SWIDTH 702 0
DWIDTH 39 0
BBX 38 61 1 0
BITMAP
0000060000
00003F8000
00003F0000
00007E0000
00007C0000
0000FC0000
0000F80000
0001F00000
0000200000
0000000000
0000000000
0000000000
0001FC0000
0007FF0000
000F0F0000
000F0F0000
000F0F0000
000F0F0000
000F8F0000
0007FE0000
0001F80000
0000000000
0000000000
0000F00000
0000F00000
0000F80000
0001F80000
0001FC0000
0003FC0000
0003FE0000
0003FE0000
0007FF0000
0007FF0000
000FFF0000
000EFF8000
000EFF8000
001E7FC000
001C7FC000
003C3FE000
00383FE000
00381FF000
00781FF000
00701FF000
00F00FF800
00F00FF800
00E007FC00
01E007FC00
01FFFFFE00
03FFFFFE00
03FFFFFF00
07FF81FF00
078001FF00
070000FF80
0F0000FF80
0F0000FFC0
1F00007FC0
1F00007FE0
7F8001FFF0
FFE003FFF8
FFE003FFF8
FFE003FFFC
ENDCHAR
STARTCHAR 01FB
ENCODING 507
SWIDTH 540 0
DWIDTH 30 0
BBX 26 50 4 -1
BITMAP
00020000
003F8000
003F0000
007E0000
007E0000
007C0000
00F80000
00F00000
00600000
00000000
00000000
00000000
01FC0000
07FF0000
078F0000
0F0F8000
0F0F8000
0F0F0000
0F8F0000
07FE0000
01FC0000
00000000
00000000
003F8000
01FFE000
03FFF000
0FFFF800
1E1FF800
3E07F800
7E07FC00
FE07FC00
FE03FC00
FE03FC00
0003FC00
001FFC00
007FFC00
01FBFC00
0FE3FC00
3FC3FC00
7F03FC00
FF03FC00
FF03FC00
FF03FC00
FF03FE00
FF03FF80
FFCFFFC0
7FFFFFC0
7FFBFFC0
1FE1FE00
00004000
ENDCHAR
STARTCHAR 01FC
ENCODING 508
SWIDTH 954 0
DWIDTH 53 0
BBX 51 49 1 0
BITMAP
00000007F00000
00000007F00000
0000000FE00000
0000000FC00000
0000000F800000
0000001F000000
0000001E000000
0000003E000000
00000000000000
00000000000000
00000000000000
0000FFFFFFFF00
0000FFFFFFFF00
0000FFFFFFFF00
0000FFFFFFFF00
00001FFF807F00
00001F7F803F00
00001E7F801F00
00001E7F800F00
00003C7F800F00
00003C7F800F80
0000787F800000
0000787F800000
0000F07F800000
0001F07F800000
0001E07F81E000
0003C07F81E000
0003C07F81E000
0007807F81E000
0007807F87E000
000FFFFFFFE000
001FFFFFFFE000
001FFFFFFFE000
003C007F83E000
003C007F81E000
0078007F81E000
0078007F81E000
00F0007F806000
01E0007F800000
01E0007F8003C0
03C0007F8003E0
03C0007F8007C0
07C000FF8007C0
0F8000FF800FC0
1FC000FFC01FC0
3FE003FFF1FF80
FFF007FFFFFF80
FFF007FFFFFF80
FFF007FFFFFF80
ENDCHAR
STARTCHAR 01FD
ENCODING 509
SWIDTH 720 0
DWIDTH 40 0
BBX 36 40 2 0
BITMAP
00000FE000
00000FC000
00001FC000
00001F8000
00001F0000
00003E0000
00003E0000
00007C0000
0000780000
0000F80000
0000000000
0000000000
0000000000
0000000000
01FE01FC00
1FFF87FF00
3FFFDFFF80
3FDFFFBFC0
3F07FE0FE0
3F03FE0FE0
3E03FC07E0
3E03FC07F0
3E03FC07F0
0203FC07F0
0003FC07F0
003FFFFFF0
03FFFFFFF0
0FFFFFFFE0
1FF3FC0000
3F83FC0000
7F03FC0000
FE03FE0000
FE03FE0000
FE07FE0000
FE07FF0020
FF0FFF80F0
FFFF7FFFF0
7FFE3FFFE0
3FFC1FFFC0
1FF007FF00
ENDCHAR
STARTCHAR 01FE
ENCODING 510
SWIDTH 738 0
DWIDTH 41 0
BBX 38 50 2 -2
BITMAP
00001FC000
00001F8000
00003F0000
00003F0000
00007E0000
00007C0000
0000F80000
0000F00000
0000000000
0000000000
00000000E0
0003FF01F0
001FFFE3F0
007FFFFBE0
01FF9FFFC0
03FC03FF80
07F801FF80
0FF000FFC0
1FE0007FC0
1FC0007FE0
3FC000FFF0
3FC001FFF0
7F8003FFF0
7F8003EFF8
7F8007CFF8
FF800F8FF8
FF801F0FF8
FF803F07F8
FF803E07FC
FF807C07FC
FF80F807FC
FF81F807F8
FF81F007F8
FF83E007F8
FF87C007F8
7F8F800FF8
7FCF800FF8
7FDF000FF0
7FFE000FF0
3FFC001FE0
3FFC001FE0
1FF8001FC0
0FF8003FC0
07F8007F80
07FE00FF00
0FFF83FE00
1FFFFFF800
1F3FFFF000
3E0FFF8000
7C00300000
ENDCHAR
STARTCHAR 01FF
ENCODING 511
SWIDTH 558 0
DWIDTH 31 0
BBX 29 42 1 -2
BITMAP
0000FE00
0000FC00
0001FC00
0001F800
0001F000
0003E000
0003E000
0007C000
00078000
000F8000
00000000
00000000
00000000
00000078
001FE0F8
00FFFDF0
03FFFFE0
07FDFFC0
0FE07FC0
1FE03FE0
1FC03FE0
3FC07FF0
3F80FFF0
7F81FFF0
7F81FFF8
7F83EFF8
7F87C7F8
7F8F87F8
7F9F07F8
7FBE07F8
7FFC07F0
7FFC0FF0
3FF80FF0
3FF00FE0
1FE01FE0
1FF01FC0
0FF87F80
1FFFFF00
3FFFFE00
7CFFF800
FC030000
78000000
ENDCHAR
STARTCHAR 0200
ENCODING 512
SWIDTH 702 0
DWIDTH 39 0
BBX 38 48 1 0
BITMAP
00F83C0000
03F8FE0000
01FC7E0000
00FC3F0000
007E1F0000
003E0F8000
001F078000
000F07C000
0000000000
0000000000
0000F00000
0000F00000
0000F80000
0001F80000
0001FC0000
0003FC0000
0003FE0000
0003FE0000
0007FF0000
0007FF0000
000FFF0000
000EFF8000
000EFF8000
001E7FC000
001C7FC000
003C3FE000
00383FE000
00381FF000
00781FF000
00701FF000
00F00FF800
00F00FF800
00E007FC00
01E007FC00
01FFFFFE00
03FFFFFE00
03FFFFFF00
07FF81FF00
078001FF00
070000FF80
0F0000FF80
0F0000FFC0
1F00007FC0
1F00007FE0
7F8001FFF0
FFE003FFF8
FFE003FFF8
FFE003FFFC
ENDCHAR
STARTCHAR 0201
ENCODING 513
SWIDTH 540 0
DWIDTH 30 0
BBX 27 41 3 -1
BITMAP
3E0F8000
FE3F8000
7E1F8000
7F0FC000
3F0FC000
1F07C000
0F83E000
0781E000
07C1F000
03C0F000
00000000
00000000
00000000
00000000
001FC000
00FFF000
01FFF800
07FFFC00
0F0FFC00
1F03FC00
3F03FE00
7F03FE00
7F01FE00
7F01FE00
0001FE00
000FFE00
003FFE00
00FDFE00
07F1FE00
1FE1FE00
3F81FE00
7F81FE00
7F81FE00
7F81FE00
7F81FF00
7F81FFC0
7FE7FFE0
3FFFFFE0
3FFDFFE0
0FF0FF00
00002000
ENDCHAR
STARTCHAR 0202
ENCODING 514
SWIDTH 702 0
DWIDTH 39 0
BBX 38 49 1 0
BITMAP
0000F00000
0007FF0000
001FFF8000
003FFFC000
003FFFE000
007E0FE000
007803E000
007801E000
003801C000
0000000000
0000000000
0000F00000
0000F00000
0000F80000
0001F80000
0001FC0000
0003FC0000
0003FE0000
0003FE0000
0007FF0000
0007FF0000
000FFF0000
000EFF8000
000EFF8000
001E7FC000
001C7FC000
003C3FE000
00383FE000
00381FF000
00781FF000
00701FF000
00F00FF800
00F00FF800
00E007FC00
01E007FC00
01FFFFFE00
03FFFFFE00
03FFFFFF00
07FF81FF00
078001FF00
070000FF80
0F0000FF80
0F0000FFC0
1F00007FC0
1F00007FE0
7F8001FFF0
FFE003FFF8
FFE003FFF8
FFE003FFFC
ENDCHAR
STARTCHAR 0203
ENCODING 515
SWIDTH 540 0
DWIDTH 30 0
BBX 26 40 4 -1
BITMAP
07FF0000
1FFF8000
3FFFC000
7FFFE000
7FFFF000
FC07F000
F801F000
F000F800
F000F800
E000F000
00000000
00000000
00000000
003F8000
01FFE000
03FFF000
0FFFF800
1E1FF800
3E07F800
7E07FC00
FE07FC00
FE03FC00
FE03FC00
0003FC00
001FFC00
007FFC00
01FBFC00
0FE3FC00
3FC3FC00
7F03FC00
FF03FC00
FF03FC00
FF03FC00
FF03FE00
FF03FF80
FFCFFFC0
7FFFFFC0
7FFBFFC0
1FE1FE00
00004000
ENDCHAR
STARTCHAR 0204
ENCODING 516
SWIDTH 612 0
DWIDTH 34 0
BBX 31 48 2 0
BITMAP
0783E000
1FC7E000
0FC3F000
07E1F000
03E0F800
01F0F800
01F07C00
00F83C00
00000000
00000000
FFFFFFF0
FFFFFFF0
FFFFFFF0
7FFFFFF0
1FF807F0
0FF801F0
0FF800F8
0FF800F8
0FF80078
0FF80078
0FF80040
0FF80000
0FF80000
0FF80F00
0FF80F00
0FF81E00
0FF81E00
0FF9FE00
0FFFFE00
0FFFFE00
0FFFFE00
0FF83E00
0FF81E00
0FF80F00
0FF80F00
0FF80100
0FF80000
0FF80010
0FF8001E
0FF8003E
0FF8003E
0FF8007C
0FF800FC
0FFC01FC
3FFF9FFC
7FFFFFFC
FFFFFFFC
FFFFFFFC
ENDCHAR
STARTCHAR 0205
ENCODING 517
SWIDTH 504 0
DWIDTH 28 0
BBX 24 41 2 -1
BITMAP
0F03C0
7F1FC0
3F8FE0
1F87E0
0F83F0
07C1F0
07C1F0
03E0F8
01E078
01F07C
000000
000000
000000
000000
007F80
03FFE0
07FFF8
0FFFFC
1FC1FC
3F80FE
7F80FE
7F00FF
7F007F
FF007F
FF007F
FFFFFF
FFFFFF
FFFFFF
FFFFFE
FF0000
FF0000
FF8000
7F8000
7FC000
7FE003
3FF00F
1FFFFF
0FFFFE
07FFFC
01FFE0
000E00
ENDCHAR
STARTCHAR 0206
ENCODING 518
SWIDTH 612 0
DWIDTH 34 0
BBX 31 49 2 0
BITMAP
00078000
007FF000
00FFFC00
01FFFE00
03FFFE00
03F07F00
03C01F00
03801F00
03800E00
00000000
00000000
FFFFFFF0
FFFFFFF0
FFFFFFF0
7FFFFFF0
1FF807F0
0FF801F0
0FF800F8
0FF800F8
0FF80078
0FF80078
0FF80040
0FF80000
0FF80000
0FF80F00
0FF80F00
0FF81E00
0FF81E00
0FF9FE00
0FFFFE00
0FFFFE00
0FFFFE00
0FF83E00
0FF81E00
0FF80F00
0FF80F00
0FF80100
0FF80000
0FF80010
0FF8001E
0FF8003E
0FF8003E
0FF8007C
0FF800FC
0FFC01FC
3FFF9FFC
7FFFFFFC
FFFFFFFC
FFFFFFFC
ENDCHAR
STARTCHAR 0207
ENCODING 519
SWIDTH 504 0
DWIDTH 28 0
BBX 24 40 2 -1
BITMAP
01FFC0
03FFF0
07FFF8
0FFFFC
1FFFFC
1F80FE
1E007E
3E003E
3C001E
3C001E
000000
000000
000000
007F80
03FFE0
07FFF8
0FFFFC
1FC1FC
3F80FE
7F80FE
7F00FF
7F007F
FF007F
FF007F
FFFFFF
FFFFFF
FFFFFF
FFFFFE
FF0000
FF0000
FF8000
7F8000
7FC000
7FE003
3FF00F
1FFFFF
0FFFFE
07FFFC
01FFE0
000E00
ENDCHAR
STARTCHAR 0208
ENCODING 520
SWIDTH 378 0
DWIDTH 21 0
BBX 19 48 0 0
BITMAP
7C1E00
FC7F00
7E3F00
7E1F00
3F0F80
1F0F80
0F87C0
0783C0
000000
000000
3FFFE0
3FFFE0
3FFFE0
1FFFE0
07FF00
03FE00
03FE00
03FE00
03FE00
03FE00
03FE00
03FE00
03FE00
03FE00
03FE00
03FE00
03FE00
03FE00
03FE00
03FE00
03FE00
03FE00
03FE00
03FE00
03FE00
03FE00
03FE00
03FE00
03FE00
03FE00
03FE00
03FE00
03FE00
03FE00
0FFF80
1FFFE0
3FFFE0
3FFFE0
ENDCHAR
STARTCHAR 0209
ENCODING 521
SWIDTH 342 0
DWIDTH 19 0
BBX 20 40 -2 0
BITMAP
1C0F00
FE3F00
7E3F00
3E1F00
1F0F80
1F0F80
0F07C0
0783C0
0783C0
03C1E0
000000
000000
000000
000000
000600
007F00
0FFF00
0FFF00
0FFF00
03FF00
00FF00
00FF00
00FF00
00FF00
00FF00
00FF00
00FF00
00FF00
00FF00
00FF00
00FF00
00FF00
00FF00
00FF00
00FF00
01FF80
03FFC0
0FFFF0
0FFFF0
0FFFF0
ENDCHAR
STARTCHAR 020A
ENCODING 522
SWIDTH 378 0
DWIDTH 21 0
BBX 17 48 2 0
BITMAP
0FF800
3FFE00
7FFF00
7FFF00
FC3F80
F00F80
E00780
E00780
000000
000000
FFFF80
FFFF80
FFFF80
7FFF80
1FFC00
0FF800
0FF800
0FF800
0FF800
0FF800
0FF800
0FF800
0FF800
0FF800
0FF800
0FF800
0FF800
0FF800
0FF800
0FF800
0FF800
0FF800
0FF800
0FF800
0FF800
0FF800
0FF800
0FF800
0FF800
0FF800
0FF800
0FF800
0FF800
0FF800
3FFE00
7FFF80
FFFF80
FFFF80
ENDCHAR
STARTCHAR 020B
ENCODING 523
SWIDTH 342 0
DWIDTH 19 0
BBX 19 39 0 0
BITMAP
07FC00
1FFF00
3FFF80
3FFF80
7FFFC0
7C0FC0
7807C0
7003C0
F003E0
F003C0
000000
000000
000000
001800
01FC00
3FFC00
3FFC00
3FFC00
0FFC00
03FC00
03FC00
03FC00
03FC00
03FC00
03FC00
03FC00
03FC00
03FC00
03FC00
03FC00
03FC00
03FC00
03FC00
03FC00
07FE00
0FFF00
3FFFC0
3FFFC0
3FFFC0
ENDCHAR
STARTCHAR 020C
ENCODING 524
SWIDTH 738 0
DWIDTH 41 0
BBX 38 49 2 -1
BITMAP
00783E0000
01FC7E0000
00FC3F0000
007E1F0000
003E0F8000
001F0F8000
001F07C000
000F83C000
0000000000
0000000000
0003FF0000
001FFFE000
007FFFF800
01FF9FFC00
03FC03FF00
07F801FF80
0FF000FFC0
1FE0007FC0
1FC0003FE0
3FC0003FE0
3FC0001FF0
7F80001FF0
7F80000FF8
7F80000FF8
FF80000FF8
FF80000FF8
FF800007F8
FF800007FC
FF800007FC
FF800007FC
FF800007F8
FF800007F8
FF800007F8
FF800007F8
7F80000FF8
7FC0000FF8
7FC0000FF0
7FC0000FF0
3FE0001FE0
3FE0001FE0
1FF0001FC0
0FF8003FC0
07FC007F80
07FE00FF00
01FF83FE00
00FFFFF800
003FFFF000
000FFF8000
0000300000
ENDCHAR
STARTCHAR 020D
ENCODING 525
SWIDTH 558 0
DWIDTH 31 0
BBX 28 41 2 -1
BITMAP
0F81E000
3F8FE000
1FC7F000
0FC3F000
07C1F000
07E0F800
03E0F800
01F07C00
00F03C00
00F83E00
00000000
00000000
00000000
00000000
003FC000
01FFF800
07FFFE00
0FFBFF00
1FC0FF80
3FC07FC0
3F803FC0
7F803FE0
7F001FE0
FF001FE0
FF001FF0
FF001FF0
FF000FF0
FF000FF0
FF000FF0
FF000FF0
FF800FE0
FF801FE0
7F801FE0
7FC01FC0
3FC03FC0
3FE03F80
1FF0FF00
0FFFFE00
07FFFC00
00FFF000
00060000
ENDCHAR
STARTCHAR 020E
ENCODING 526
SWIDTH 738 0
DWIDTH 41 0
BBX 38 50 2 -1
BITMAP
0000780000
0007FF0000
000FFFC000
001FFFE000
003FFFE000
003F07F000
003C01F000
003C01F000
001800E000
0000000000
0000000000
0003FF0000
001FFFE000
007FFFF800
01FF9FFC00
03FC03FF00
07F801FF80
0FF000FFC0
1FE0007FC0
1FC0003FE0
3FC0003FE0
3FC0001FF0
7F80001FF0
7F80000FF8
7F80000FF8
FF80000FF8
FF80000FF8
FF800007F8
FF800007FC
FF800007FC
FF800007FC
FF800007F8
FF800007F8
FF800007F8
FF800007F8
7F80000FF8
7FC0000FF8
7FC0000FF0
7FC0000FF0
3FE0001FE0
3FE0001FE0
1FF0001FC0
0FF8003FC0
07FC007F80
07FE00FF00
01FF83FE00
00FFFFF800
003FFFF000
000FFF8000
0000300000
ENDCHAR
STARTCHAR 020F
ENCODING 527
SWIDTH 558 0
DWIDTH 31 0
BBX 28 40 2 -1
BITMAP
00FFE000
01FFF800
03FFFC00
07FFFE00
0FFFFE00
0FC07F00
0F003F00
1E001F00
1E000F00
1E000F00
00000000
00000000
00000000
003FC000
01FFF800
07FFFE00
0FFBFF00
1FC0FF80
3FC07FC0
3F803FC0
7F803FE0
7F001FE0
FF001FE0
FF001FF0
FF001FF0
FF000FF0
FF000FF0
FF000FF0
FF000FF0
FF800FE0
FF801FE0
7F801FE0
7FC01FC0
3FC03FC0
3FE03F80
1FF0FF00
0FFFFE00
07FFFC00
00FFF000
00060000
ENDCHAR
STARTCHAR 0210
ENCODING 528
SWIDTH 702 0
DWIDTH 39 0
BBX 36 48 2 -1
BITMAP
03C0F00000
0FE3F80000
07E1F80000
03F0FC0000
01F07C0000
00F83E0000
00783E0000
007C1F0000
0000000000
0000000000
FFFFFE0000
FFFFFFC000
FFFFFFF000
7FFFFFF800
1FF80FFC00
0FF807FE00
0FF803FE00
0FF801FF00
0FF801FF00
0FF801FF00
0FF801FF00
0FF801FF00
0FF801FF00
0FF801FF00
0FF801FE00
0FF803FE00
0FF807FC00
0FF80FF800
0FF87FF000
0FFFFFE000
0FFFFF8000
0FFFFF0000
0FF8FF8000
0FF87FC000
0FF83FE000
0FF81FF000
0FF81FF000
0FF80FF800
0FF80FF800
0FF807FC00
0FF807FC00
0FF803FE00
0FF803FF00
0FF803FF80
3FFE01FFE0
7FFF01FFF0
FFFF00FFF0
FFFF00FFF0
ENDCHAR
STARTCHAR 0211
ENCODING 529
SWIDTH 468 0
DWIDTH 26 0
BBX 23 40 2 0
BITMAP
1E0780
FF1FC0
7F0FC0
3F0FC0
1F87E0
0F83E0
07C1F0
07C1F0
03E0F8
01E078
000000
000000
000000
000000
006010
07F0FE
FFF3FE
FFE7FE
FFE7FE
3FEFFE
1FFFFE
0FF83E
0FF03E
0FF03E
0FF020
0FF000
0FF000
0FF000
0FF000
0FF000
0FF000
0FF000
0FF000
0FF000
0FF800
1FF800
3FFF00
FFFFC0
FFFFC0
FFFFC0
ENDCHAR
STARTCHAR 0212
ENCODING 530
SWIDTH 702 0
DWIDTH 39 0
BBX 36 49 2 -1
BITMAP
0003C00000
003FFC0000
007FFE0000
00FFFF0000
01FFFF0000
01F83F8000
01E00F8000
01E0078000
00C0070000
0000000000
0000000000
FFFFFE0000
FFFFFFC000
FFFFFFF000
7FFFFFF800
1FF80FFC00
0FF807FE00
0FF803FE00
0FF801FF00
0FF801FF00
0FF801FF00
0FF801FF00
0FF801FF00
0FF801FF00
0FF801FF00
0FF801FE00
0FF803FE00
0FF807FC00
0FF80FF800
0FF87FF000
0FFFFFE000
0FFFFF8000
0FFFFF0000
0FF8FF8000
0FF87FC000
0FF83FE000
0FF81FF000
0FF81FF000
0FF80FF800
0FF80FF800
0FF807FC00
0FF807FC00
0FF803FE00
0FF803FF00
0FF803FF80
3FFE01FFE0
7FFF01FFF0
FFFF00FFF0
FFFF00FFF0
ENDCHAR
STARTCHAR 0213
ENCODING 531
SWIDTH 468 0
DWIDTH 26 0
BBX 23 39 2 0
BITMAP
01FF80
07FFE0
0FFFF0
1FFFF8
1FFFFC
3F01FC
3E007C
3C007C
38003C
38003C
000000
000000
000000
006010
07F0FE
FFF3FE
FFE7FE
FFE7FE
3FEFFE
1FFFFE
0FF83E
0FF03E
0FF03E
0FF020
0FF000
0FF000
0FF000
0FF000
0FF000
0FF000
0FF000
0FF000
0FF000
0FF800
1FF800
3FFF00
FFFFC0
FFFFC0
FFFFC0
ENDCHAR
STARTCHAR 0214
ENCODING 532
SWIDTH 684 0
DWIDTH 38 0
BBX 34 49 2 -1
BITMAP
007C1F0000
01FC3F0000
00FE1F0000
007E1F8000
003F0F8000
001F07C000
000F83E000
000781E000
0000000000
0000000000
FFFF01FFC0
FFFF01FFC0
FFFF01FFC0
FFFF01FFC0
3FF8007F00
1FF0003E00
1FF0003E00
1FF0001E00
0FF0001C00
0FF0001C00
0FF0001C00
0FF0001C00
0FF0001C00
0FF0001C00
0FF0001C00
0FF0001C00
0FF0001C00
0FF0001C00
0FF0001C00
0FF0001C00
0FF0001C00
0FF0001C00
0FF0001C00
0FF0001C00
0FF0001C00
0FF0001C00
0FF0001C00
0FF0001C00
0FF0003C00
0FF8003C00
0FF8003C00
0FF8003C00
07FC007800
07FE00F800
03FF87F000
01FFFFE000
00FFFFC000
003FFF0000
0000600000
ENDCHAR
STARTCHAR 0215
ENCODING 533
SWIDTH 594 0
DWIDTH 33 0
BBX 31 40 1 -1
BITMAP
03E07800
0FE3F800
07F1FC00
03F0FC00
01F07C00
01F83E00
00F83E00
007C1F00
003C0F00
003E0F80
00000000
00000000
00000000
00000000
00400060
0FE03FF0
FFE0FFF0
FFE0FFF0
FFE0FFF0
3FE01FF0
1FE00FF0
1FE00FF0
1FE00FF0
1FE00FF0
1FE00FF0
1FE00FF0
1FE00FF0
1FE00FF0
1FE00FF0
1FE00FF0
1FE00FF0
1FE00FF0
1FF00FF0
0FF00FF0
0FF80FF8
0FFC0FFE
0FFFFFFE
07FFFFFE
03FFEFFE
01FF0F00
ENDCHAR
STARTCHAR 0216
ENCODING 534
SWIDTH 684 0
DWIDTH 38 0
BBX 34 50 2 -1
BITMAP
0000380000
0003FF8000
000FFFC000
001FFFE000
001FFFF000
003F07F000
003E01F000
003C00F800
001C00E000
0000000000
0000000000
FFFF01FFC0
FFFF01FFC0
FFFF01FFC0
FFFF01FFC0
3FF8007F00
1FF0003E00
1FF0003E00
1FF0001E00
0FF0001C00
0FF0001C00
0FF0001C00
0FF0001C00
0FF0001C00
0FF0001C00
0FF0001C00
0FF0001C00
0FF0001C00
0FF0001C00
0FF0001C00
0FF0001C00
0FF0001C00
0FF0001C00
0FF0001C00
0FF0001C00
0FF0001C00
0FF0001C00
0FF0001C00
0FF0001C00
0FF0003C00
0FF8003C00
0FF8003C00
0FF8003C00
07FC007800
07FE00F800
03FF87F000
01FFFFE000
00FFFFC000
003FFF0000
0000600000
ENDCHAR
STARTCHAR 0217
ENCODING 535
SWIDTH 594 0
DWIDTH 33 0
BBX 31 39 1 -1
BITMAP
003FF800
007FFE00
01FFFF00
01FFFF80
03FFFF80
03F01F80
07C00FC0
078007C0
078007C0
07800380
00000000
00000000
00000000
00400060
0FE03FF0
FFE0FFF0
FFE0FFF0
FFE0FFF0
3FE01FF0
1FE00FF0
1FE00FF0
1FE00FF0
1FE00FF0
1FE00FF0
1FE00FF0
1FE00FF0
1FE00FF0
1FE00FF0
1FE00FF0
1FE00FF0
1FE00FF0
1FF00FF0
0FF00FF0
0FF80FF8
0FFC0FFE
0FFFFFFE
07FFFFFE
03FFEFFE
01FF0F00
ENDCHAR
STARTCHAR 0218
ENCODING 536
SWIDTH 558 0
DWIDTH 31 0
BBX 26 54 3 -17
BITMAP
00FFC000
03FFF800
0FFFFE00
1FF7FE00
3F80FE00
3F007E00
7E007E00
7E003E00
7E003E00
FE003E00
FF001E00
FF800000
FFC00000
7FF00000
7FFC0000
7FFF0000
3FFFC000
1FFFF000
1FFFF800
0FFFFE00
03FFFF00
01FFFF00
007FFF80
000FFF80
0003FFC0
0001FFC0
F8007FC0
F8003FC0
FC003FC0
FC003FC0
FC001FC0
FC003F80
FE003F80
FF007F00
FFC1FE00
FFFFFC00
3FFFF800
07FFE000
00180000
00000000
00020000
000F8000
007F8000
007F8000
00FF8000
00FF8000
007F8000
001F8000
001F0000
001F0000
001E0000
003E0000
007C0000
00F80000
ENDCHAR
STARTCHAR 0219
ENCODING 537
SWIDTH 450 0
DWIDTH 25 0
BBX 22 42 2 -17
BITMAP
01FF00
0FFFE0
3FFFF0
3FDFF0
7F03F0
7E03F0
FF01F0
FF01F0
FF80C0
7FE000
7FFC00
7FFF00
3FFFC0
0FFFE0
07FFF0
00FFF8
003FF8
780FFC
F807FC
F803FC
FC03F8
FC07F8
FF0FF8
FFFFF0
FFFFC0
1FFF00
006000
000000
000800
007C00
03FE00
03FE00
03FE00
03FE00
01FE00
007C00
007C00
007C00
00F800
00F000
01E000
03C000
ENDCHAR
STARTCHAR 021A
ENCODING 538
SWIDTH 648 0
DWIDTH 36 0
BBX 34 55 1 -17
BITMAP
3FFFFFFF80
3FFFFFFF80
7FFFFFFF80
7FFFFFFF80
7F07F81F80
7E07F80F80
7C07F80F80
7C07F807C0
7807F807C0
F807F807C0
3807F80300
0007F80000
0007F80000
0007F80000
0007F80000
0007F80000
0007F80000
0007F80000
0007F80000
0007F80000
0007F80000
0007F80000
0007F80000
0007F80000
0007F80000
0007F80000
0007F80000
0007F80000
0007F80000
0007F80000
0007F80000
0007F80000
0007FC0000
000FFC0000
003FFF0000
00FFFFC000
01FFFFE000
01FFFFE000
0000000000
0000000000
0000300000
0000F80000
0007F80000
0007F80000
000FF80000
000FF80000
0003F80000
0001F80000
0001F80000
0001F00000
0001E00000
0003E00000
0007C00000
0007800000
0002000000
ENDCHAR
STARTCHAR 021B
ENCODING 539
SWIDTH 360 0
DWIDTH 20 0
BBX 19 51 1 -17
BITMAP
006000
01F000
0FF000
0FF000
0FF000
0FF000
0FF000
0FF000
0FF000
FFFFC0
FFFFC0
FFFFC0
FFFFC0
0FF000
0FF000
0FF000
0FF000
0FF000
0FF000
0FF000
0FF000
0FF000
0FF000
0FF000
0FF000
0FF000
0FF000
0FF000
0FF000
0FF000
0FFDC0
07FFE0
03FFE0
01FF80
001000
000000
000400
003E00
01FE00
01FE00
01FE00
01FE00
00FE00
007E00
007E00
007C00
007C00
00F800
01F000
01E000
004000
ENDCHAR
STARTCHAR 021C
ENCODING 540
SWIDTH 576 0
DWIDTH 32 0
BBX 27 48 3 -10
BITMAP
07FF8000
3FFFF000
FFFFFC00
FF9FFE00
FE03FF00
FC01FF00
FC00FF80
F800FF80
F800FF80
F800FF80
7800FF80
0000FF80
0000FF00
0000FF00
0001FF00
0001FE00
0003FC00
0007F800
000FE000
003FC000
00FF0000
07FFE000
07FFF800
07FFFE00
0707FF00
0001FF80
0000FFC0
00007FC0
00007FC0
00003FE0
00003FE0
00003FE0
00003FE0
00003FE0
00003FE0
00003FC0
00003FC0
00007FC0
00007F80
0000FF80
0001FF00
0003FE00
C007FE00
F83FF800
FFFFF000
FFFFC000
1FFF0000
00C00000
ENDCHAR
STARTCHAR 021D
ENCODING 541
SWIDTH 504 0
DWIDTH 28 0
BBX 24 40 2 -14
BITMAP
01FF00
1FFFE0
7FFFF8
7F9FFC
7E03FC
7E03FE
7C01FE
7C01FE
7C01FE
7801FE
7801FE
0001FC
0003FC
0003F8
0007F0
000FE0
003FC0
01FF00
07FF80
07FFF0
07FFFC
001FFC
0007FE
0003FE
0001FF
0000FF
0000FF
0000FF
0000FF
0000FF
0000FF
0001FE
0001FE
0003FE
4007FC
700FF8
FFFFF0
7FFFE0
3FFF80
03F800
ENDCHAR
STARTCHAR 021E
ENCODING 542
SWIDTH 774 0
DWIDTH 43 0
BBX 39 49 2 0
BITMAP
001C007000
003F01F800
003FC7F000
001FFFE000
0007FF8000
0003FF0000
0001FE0000
0000F80000
0000400000
0000000000
0000000000
FFFF83FFFE
FFFF83FFFE
FFFF83FFFE
7FFF81FFFE
1FFC007FF0
0FF8003FE0
0FF8003FE0
0FF8003FE0
0FF8003FE0
0FF8003FE0
0FF8003FE0
0FF8003FE0
0FF8003FE0
0FF8003FE0
0FF8003FE0
0FF8003FE0
0FF8003FE0
0FFFFFFFE0
0FFFFFFFE0
0FFFFFFFE0
0FFFFE3FE0
0FF8003FE0
0FF8003FE0
0FF8003FE0
0FF8003FE0
0FF8003FE0
0FF8003FE0
0FF8003FE0
0FF8003FE0
0FF8003FE0
0FF8003FE0
0FF8003FE0
0FF8003FE0
0FF8003FF0
3FFE00FFF8
7FFF81FFFE
FFFF83FFFE
FFFF83FFFE
ENDCHAR
STARTCHAR 021F
ENCODING 543
SWIDTH 648 0
DWIDTH 36 0
BBX 32 49 2 0
BITMAP
03C00E00
07E01F00
07F87F00
01FFFC00
00FFF800
007FE000
003FC000
001F8000
00080000
00600000
07E00000
FFF00000
FFF00000
FFF00000
3FF00000
1FF00000
1FF00000
0FF00000
0FF00000
0FF00000
0FF00000
0FF00000
0FF00000
0FF03C00
0FF1FF80
0FF3FFE0
0FFFFFF0
0FFFFFF0
0FFF3FF0
0FF00FF8
0FF007F8
0FF007F8
0FF007F8
0FF007F8
0FF007F8
0FF007F8
0FF007F8
0FF007F8
0FF007F8
0FF007F8
0FF007F8
0FF007F8
0FF007F8
1FF007F8
1FF007FC
3FFC1FFE
FFFE3FFF
FFFE3FFF
FFFE3FFF
ENDCHAR
STARTCHAR 0228
ENCODING 552
SWIDTH 612 0
DWIDTH 34 0
BBX 31 51 2 -13
BITMAP
FFFFFFF0
FFFFFFF0
FFFFFFF0
7FFFFFF0
1FF807F0
0FF801F0
0FF800F8
0FF800F8
0FF80078
0FF80078
0FF80040
0FF80000
0FF80000
0FF80F00
0FF80F00
0FF81E00
0FF81E00
0FF9FE00
0FFFFE00
0FFFFE00
0FFFFE00
0FF83E00
0FF81E00
0FF80F00
0FF80F00
0FF80100
0FF80000
0FF80010
0FF8001E
0FF8003E
0FF8003E
0FF8007C
0FF800FC
0FFC01FC
3FFF9FFC
7FFFFFFC
FFFFFFFC
FFFFFFFC
00038000
00070000
000F0000
001FC000
000FE000
000FF000
0001F000
0000F800
0000F000
0000F000
0003F000
000FE000
000F8000
ENDCHAR
STARTCHAR 0229
ENCODING 553
SWIDTH 504 0
DWIDTH 28 0
BBX 24 39 2 -13
BITMAP
007F80
03FFE0
07FFF8
0FFFFC
1FC1FC
3F80FE
7F80FE
7F00FF
7F007F
FF007F
FF007F
FFFFFF
FFFFFF
FFFFFF
FFFFFE
FF0000
FF0000
FF8000
7F8000
7FC000
3FE003
3FF00F
1FFFFF
0FFFFE
07FFFC
01FFE0
001E00
001C00
003800
007F00
007F80
003FC0
000FC0
0007C0
0007C0
0007C0
000F80
007F00
007E00
ENDCHAR
STARTCHAR 022A
ENCODING 554
SWIDTH 738 0
DWIDTH 41 0
BBX 38 56 2 -1
BITMAP
007FFFF800
00FFFFF800
00FFFFF800
0000000000
0000000000
0000000000
0000000000
003E03E000
007F07F800
00FF87F800
00FF87F800
00FF87F800
007F07F800
007F03F000
001C01C000
0000000000
0000000000
0003FF0000
001FFFE000
007FFFF800
01FF9FFC00
03FC03FF00
07F801FF80
0FF000FFC0
1FE0007FC0
1FC0003FE0
3FC0003FE0
3FC0001FF0
7F80001FF0
7F80000FF8
7F80000FF8
FF80000FF8
FF80000FF8
FF800007F8
FF800007FC
FF800007FC
FF800007FC
FF800007F8
FF800007F8
FF800007F8
FF800007F8
7F80000FF8
7FC0000FF8
7FC0000FF0
7FC0000FF0
3FE0001FE0
3FE0001FE0
1FF0001FC0
0FF8003FC0
07FC007F80
07FE00FF00
01FF83FE00
00FFFFF800
003FFFF000
000FFF8000
0000300000
ENDCHAR
STARTCHAR 022B
ENCODING 555
SWIDTH 558 0
DWIDTH 31 0
BBX 28 44 2 -1
BITMAP
1FFFFF00
1FFFFF00
1FFFFF00
18000000
00000000
00000000
00000000
07C03C00
0FE0FE00
1FE0FF00
1FF0FF00
1FF0FF00
1FE0FF00
0FE07E00
03803C00
00000000
00000000
003FC000
01FFF800
07FFFE00
0FFBFF00
1FC0FF80
3FC07FC0
3F803FC0
7F803FE0
7F001FE0
FF001FE0
FF001FF0
FF001FF0
FF000FF0
FF000FF0
FF000FF0
FF000FF0
FF800FE0
FF801FE0
7F801FE0
7FC01FC0
3FC03FC0
3FE03F80
1FF0FF00
0FFFFE00
07FFFC00
00FFF000
00060000
ENDCHAR
STARTCHAR 022C
ENCODING 556
SWIDTH 738 0
DWIDTH 41 0
BBX 38 56 2 -1
BITMAP
00FFFFF800
00FFFFF800
00FFFFF800
0000000000
0000000000
0000000000
0000000000
000FE03000
001FF87800
007FFFF800
007FFFF000
007FFFE000
00607FC000
00001F0000
0000000000
0000000000
0000000000
0003FF0000
001FFFE000
007FFFF800
01FF9FFC00
03FC03FF00
07F801FF80
0FF000FFC0
1FE0007FC0
1FC0003FE0
3FC0003FE0
3FC0001FF0
7F80001FF0
7F80000FF8
7F80000FF8
FF80000FF8
FF80000FF8
FF800007F8
FF800007FC
FF800007FC
FF800007FC
FF800007F8
FF800007F8
FF800007F8
FF800007F8
7F80000FF8
7FC0000FF8
7FC0000FF0
7FC0000FF0
3FE0001FE0
3FE0001FE0
1FF0001FC0
0FF8003FC0
07FC007F80
07FE00FF00
01FF83FE00
00FFFFF800
003FFFF000
000FFF8000
0000300000
ENDCHAR
STARTCHAR 022D
ENCODING 557
SWIDTH 558 0
DWIDTH 31 0
BBX 28 44 2 -1
BITMAP
1FFFFF00
1FFFFF00
1FFFFF00
00000000
00000000
00000000
00000000
01F80400
03FF0F00
0FFFFE00
0FFFFE00
1FFFFC00
0C0FF800
0803E000
00000000
00000000
00000000
003FC000
01FFF800
07FFFE00
0FFBFF00
1FC0FF80
3FC07FC0
3F803FC0
7F803FE0
7F001FE0
FF001FE0
FF001FF0
FF001FF0
FF000FF0
FF000FF0
FF000FF0
FF000FF0
FF800FE0
FF801FE0
7F801FE0
7FC01FC0
3FC03FC0
3FE03F80
1FF0FF00
0FFFFE00
07FFFC00
00FFF000
00060000
ENDCHAR
STARTCHAR 0230
ENCODING 560
SWIDTH 738 0
DWIDTH 41 0
BBX 38 55 2 -1
BITMAP
007FFFF800
00FFFFF800
00FFFFF800
00FFFF0000
0000000000
0000000000
0000780000
0001FE0000
0003FE0000
0003FE0000
0003FE0000
0003FE0000
0001FE0000
0000F80000
0000000000
0000000000
0003FF0000
001FFFE000
007FFFF800
01FF9FFC00
03FC03FF00
07F801FF80
0FF000FFC0
1FE0007FC0
1FC0003FE0
3FC0003FE0
3FC0001FF0
7F80001FF0
7F80000FF8
7F80000FF8
FF80000FF8
FF80000FF8
FF800007F8
FF800007FC
FF800007FC
FF800007FC
FF800007F8
FF800007F8
FF800007F8
FF800007F8
7F80000FF8
7FC0000FF8
7FC0000FF0
7FC0000FF0
3FE0001FE0
3FE0001FE0
1FF0001FC0
0FF8003FC0
07FC007F80
07FE00FF00
01FF83FE00
00FFFFF800
003FFFF000
000FFF8000
0000300000
ENDCHAR
STARTCHAR 0231
ENCODING 561
SWIDTH 558 0
DWIDTH 31 0
BBX 28 42 2 -1
BITMAP
1FFFFF00
1FFFFF00
1FFFFF00
00000000
00000000
000F0000
003F8000
007FC000
007FC000
007FC000
007FC000
003FC000
001F8000
00000000
00000000
003FC000
01FFF800
07FFFE00
0FFBFF00
1FC0FF80
3FC07FC0
3F803FC0
7F803FE0
7F001FE0
FF001FE0
FF001FF0
FF001FF0
FF000FF0
FF000FF0
FF000FF0
FF000FF0
FF800FE0
FF801FE0
7F801FE0
7FC01FC0
3FC03FC0
3FE03F80
1FF0FF00
0FFFFE00
07FFFC00
00FFF000
00060000
ENDCHAR
STARTCHAR 0232
ENCODING 562
SWIDTH 630 0
DWIDTH 35 0
BBX 33 45 1 0
BITMAP
007FFFFC00
007FFFF800
007FFFF800
0000000000
0000000000
0000000000
0000000000
FFFF01FF80
FFFF01FF80
FFFF01FF80
FFFF01FF80
3FFC007E00
1FFC007C00
0FFC007800
0FFC007800
07FE007000
07FE00F000
03FE00E000
03FF01E000
01FF01C000
01FF83C000
00FF838000
00FFC78000
007FC78000
007FE70000
003FEF0000
003FEE0000
001FFE0000
001FFC0000
000FFC0000
000FF80000
0007F80000
0007F80000
0007F80000
0007F80000
0007F80000
0007F80000
0007F80000
0007F80000
000FF80000
000FFC0000
007FFF0000
01FFFFC000
01FFFFC000
01FFFFC000
ENDCHAR
STARTCHAR 0233
ENCODING 563
SWIDTH 558 0
DWIDTH 31 0
BBX 29 49 1 -14
BITMAP
01FFFFE0
03FFFFE0
03FFFFE0
00000000
00000000
00000000
00000000
00000000
00000000
F83F3C38
FFFF1FF8
FFFE1FF8
FFFE1FF8
3FF807E0
1FF003C0
1FF003C0
0FF80780
0FF80780
07FC0780
07FC0F00
03FE0F00
03FE0E00
01FE1E00
01FF1C00
00FF3C00
00FFBC00
007FB800
007FF800
003FF000
003FF000
003FE000
001FE000
001FE000
000FC000
000FC000
00078000
00078000
00078000
000F0000
000F0000
001E0000
003E0000
7FFC0000
7FFC0000
7FF80000
7FF00000
7FF00000
3FE00000
0F000000
ENDCHAR
STARTCHAR 0237
ENCODING 567
SWIDTH 306 0
DWIDTH 17 0
BBX 13 40 1 -14
BITMAP
0030
03F8
7FF8
7FF8
7FF8
1FF8
0FF8
07F8
07F8
07F8
07F8
07F8
07F8
07F8
07F8
07F8
07F8
07F8
07F8
07F8
07F8
07F8
07F8
07F8
07F8
07F8
07F0
07F0
07F0
0FE0
0FE0
0FC0
1FC0
3F80
3F00
7E00
FC00
F800
F000
4000
ENDCHAR
STARTCHAR 0258
ENCODING 600
SWIDTH 504 0
DWIDTH 28 0
BBX 24 27 2 -1
BITMAP
00FF00
07FFC0
0FFFF0
1FFFF8
3F83FC
7F01FC
7F01FE
FE01FE
FE00FF
FE00FF
FE00FF
FFFFFF
FFFFFF
FFFFFF
7FFFFF
0000FF
0000FF
0000FF
3800FE
7801FE
7C01FE
7E03FC
7F07F8
7FFFF0
7FFFE0
1FFF80
007000
ENDCHAR
STARTCHAR 0259
ENCODING 601
SWIDTH 504 0
DWIDTH 28 0
BBX 24 27 2 -1
BITMAP
01FE00
0FFFC0
3FFFF0
7FFFF8
FC1FFC
7007FE
4003FE
0001FE
0001FF
0000FF
0000FF
0000FF
7FFFFF
FFFFFF
FFFFFF
FF00FF
FF00FF
FF00FF
FF00FF
7F00FE
7F01FE
3F81FC
3FC3F8
1FFFF0
0FFFE0
03FF80
001800
ENDCHAR
STARTCHAR 0272
ENCODING 626
SWIDTH 648 0
DWIDTH 36 0
BBX 34 40 1 -14
BITMAP
00300E0000
03F87FC000
7FF9FFF000
7FFBFFF800
7FFFFFF800
1FF79FFC00
0FFE07FC00
07FE03FC00
07FC03FC00
07F803FC00
07F803FC00
07F803FC00
07F803FC00
07F803FC00
07F803FC00
07F803FC00
07F803FC00
07F803FC00
07F803FC00
07F803FC00
07F803FE00
07F803FE00
07F807FF00
07F81FFF80
07F81FFFC0
07F81FFFC0
07F0000000
07F0000000
0FF0000000
0FE0000000
0FE0000000
0FC0000000
1FC0000000
3F80000000
3F00000000
7F00000000
FE00000000
F800000000
F000000000
4000000000
ENDCHAR
STARTCHAR 0292
ENCODING 658
SWIDTH 504 0
DWIDTH 28 0
BBX 24 40 3 -14
BITMAP
FF01FC
FFFFFC
FFFFFE
FFFFFE
FE07FC
FC07FC
F80FF8
F81FF0
F81FF0
103FE0
003FE0
007FC0
00FF80
00FF80
01FF00
01FE00
03FE00
07FF00
07FFE0
07FFF0
07FFFC
000FFC
0003FE
0003FE
0001FF
0001FF
0000FF
0000FF
0000FF
0000FF
F001FE
F001FE
F001FE
F803FC
FC07F8
FE0FF8
FFFFF0
FFFFC0
7FFF00
07F000
ENDCHAR
STARTCHAR 02B9
ENCODING 697
SWIDTH 288 0
DWIDTH 16 0
BBX 10 15 3 25
BITMAP
0080
07C0
0FC0
1F80
1F80
1F00
1F00
3E00
3E00
3C00
3C00
7800
7800
7000
F000
ENDCHAR
STARTCHAR 02BA
ENCODING 698
SWIDTH 468 0
DWIDTH 26 0
BBX 20 15 3 25
BITMAP
008010
07C1F0
0FC3F0
1F83F0
1F83E0
1F07E0
1F07C0
3E07C0
3E0780
3C0F80
3C0F00
780F00
781E00
701E00
F01C00
ENDCHAR
STARTCHAR 02BB
ENCODING 699
SWIDTH 270 0
DWIDTH 15 0
BBX 9 16 3 24
BITMAP
0700
0F00
1E00
3E00
3C00
7C00
7C00
7C00
7E00
FF80
FF80
FF80
FF80
7F80
7C00
2000
ENDCHAR
STARTCHAR 02BC
ENCODING 700
SWIDTH 288 0
DWIDTH 16 0
BBX 9 17 4 23
BITMAP
0600
FF00
FF80
FF80
FF80
FF80
FF80
3F00
1F00
1F00
1E00
1E00
3C00
7C00
7800
F000
E000
ENDCHAR
STARTCHAR 02BE
ENCODING 702
SWIDTH 252 0
DWIDTH 14 0
BBX 10 16 2 24
BITMAP
F800
FE00
FF00
3F80
1F80
0FC0
0FC0
0FC0
0FC0
0FC0
1FC0
3F80
FF80
FF00
FC00
E000
ENDCHAR
STARTCHAR 02BF
ENCODING 703
SWIDTH 252 0
DWIDTH 14 0
BBX 10 16 2 24
BITMAP
03C0
0FC0
3FC0
7F00
7E00
7C00
FC00
FC00
FC00
FC00
7E00
7F00
3FC0
1FC0
0FC0
00C0
ENDCHAR
STARTCHAR 02C6
ENCODING 710
SWIDTH 288 0
DWIDTH 16 0
BBX 21 11 -2 29
BITMAP
003000
00F800
01FC00
03FE00
07FF00
0FFF80
1FBFC0
7F0FE0
FC07F0
F001F8
6000E0
ENDCHAR
STARTCHAR 02C7
ENCODING 711
SWIDTH 288 0
DWIDTH 16 0
BBX 20 10 -2 30
BITMAP
7000F0
FC01F0
7E07E0
3F8FC0
1FFF80
0FFF00
07FE00
03FC00
01F800
00F000
ENDCHAR
STARTCHAR 02C8
ENCODING 712
SWIDTH 216 0
DWIDTH 12 0
BBX 5 15 4 24
BITMAP
F8
F8
F8
F8
F8
F8
F8
F8
F8
F8
F8
F8
F8
F8
F8
ENDCHAR
STARTCHAR 02C9
ENCODING 713
SWIDTH 486 0
DWIDTH 27 0
BBX 21 3 3 32
BITMAP
7FFFF8
FFFFF8
FFFFF8
ENDCHAR
STARTCHAR 02CA
ENCODING 714
SWIDTH 288 0
DWIDTH 16 0
BBX 11 10 8 29
BITMAP
0FE0
0FC0
1FC0
1F80
1F00
3E00
3E00
7C00
7800
F800
ENDCHAR
STARTCHAR 02CB
ENCODING 715
SWIDTH 288 0
DWIDTH 16 0
BBX 11 10 8 30
BITMAP
1F00
FF00
7F00
3F80
1F80
0F80
07C0
07C0
03E0
01E0
ENDCHAR
STARTCHAR 02CC
ENCODING 716
SWIDTH 216 0
DWIDTH 12 0
BBX 5 16 4 -10
BITMAP
30
F8
F8
F8
F8
F8
F8
F8
F8
F8
F8
F8
F8
F8
F8
70
ENDCHAR
STARTCHAR 02D8
ENCODING 728
SWIDTH 288 0
DWIDTH 16 0
BBX 21 10 -2 29
BITMAP
F00078
F80078
F800F0
FC01F0
7F87F0
7FFFE0
3FFFE0
1FFFC0
0FFF80
03FC00
ENDCHAR
STARTCHAR 02D9
ENCODING 729
SWIDTH 288 0
DWIDTH 16 0
BBX 9 8 4 29
BITMAP
3E00
FF00
FF80
FF80
FF80
FF80
FF00
3E00
ENDCHAR
STARTCHAR 02DA
ENCODING 730
SWIDTH 288 0
DWIDTH 16 0
BBX 13 11 2 29
BITMAP
0F80
3FE0
7FF0
F8F8
F0F8
F078
F0F8
F8F8
FFF0
7FE0
1F80
ENDCHAR
STARTCHAR 02DB
ENCODING 731
SWIDTH 288 0
DWIDTH 16 0
BBX 14 16 1 -14
BITMAP
00E0
03F0
0F80
1F00
3F00
3E00
7E00
7E00
FE00
FF00
FFF8
7FF8
7FFC
3FF8
3FC0
0F00
ENDCHAR
STARTCHAR 02DC
ENCODING 732
SWIDTH 288 0
DWIDTH 16 0
BBX 21 8 -2 30
BITMAP
070000
1FE030
3FF8F8
7FFFF0
FFFFE0
F0FFC0
C03F80
000600
ENDCHAR
STARTCHAR 02DD
ENCODING 733
SWIDTH 288 0
DWIDTH 16 0
BBX 21 11 -2 29
BITMAP
0FE3F8
1FC7F0
1F87E0
3F0FC0
3F0FC0
3E0F80
7C1F00
781F00
F83E00
F03C00
300400
ENDCHAR
STARTCHAR 0300
ENCODING 768
SWIDTH 0 0
DWIDTH 0 0
BBX 11 10 3 30
BITMAP
1E00
FE00
7F00
3F00
1F80
1F80
0F80
07C0
03C0
03E0
ENDCHAR
STARTCHAR 0301
ENCODING 769
SWIDTH 0 0
DWIDTH 0 0
BBX 11 11 3 29
BITMAP
0FE0
1FC0
1F80
3F00
3F00
3E00
7C00
7800
F800
F000
3000
ENDCHAR
ENDFONT
